<mxfile host="app.diagrams.net" agent="Mozilla/5.0 (Macintosh; Intel Mac OS X 10_15_7) AppleWebKit/605.1.15 (KHTML, like Gecko) Version/18.1.1 Safari/605.1.15" version="26.1.3">
  <diagram name="Page-1" id="0hzpCAHAHxJdVben-amq">
    <mxGraphModel dx="954" dy="563" grid="1" gridSize="10" guides="1" tooltips="1" connect="1" arrows="1" fold="1" page="1" pageScale="1" pageWidth="827" pageHeight="1169" math="0" shadow="0">
      <root>
        <mxCell id="0" />
        <mxCell id="1" parent="0" />
        <mxCell id="QeW_MbtNmJis6Iord1d6-2" value="" style="shape=image;verticalLabelPosition=bottom;labelBackgroundColor=default;verticalAlign=top;aspect=fixed;imageAspect=0;image=data:image/png,iVBORw0KGgoAAAANSUhEUgAABawAAAOkCAYAAABK3XNqAAAKrWlDQ1BJQ0MgUHJvZmlsZQAASImVlwdQU1kXgO976SGhBSIgJfQmSCeAlBBa6NLBAiEJEEoIgaBiRxZXYEUREQFF0AURBdcCyCoqotgWAQXsC7KIKOtiwYblf8AQ3P3n///5z8yZ+73zzj33nDv3vjkPALIsWyhMhmUBSBFkiII8XWkRkVE03BiAgQIAQAdosDnpQkZgoC/yBObGv8u7fgBNj7dNpmP9+/v/KnJcXjoHACgQ4VhuOicF4VOIPucIRRkAoA4gdu1VGcJp7kBYQYQkiPDdaY6f5fFpjp1hNJjxCQliIoxUgCex2aJ4AEg0xE7L5MQjcUguCJsJuHwBwkKEnVJSUrkIH0fYAPFBbKTp+PTY7+LE/y1mrCQmmx0v4dlaZgTvxk8XJrPX/J/b8b8lJVk8t4YeoqQEkVcQMsoje3Y3KdVHwoJY/4A55nNn/Gc4QewVOsecdGbUHHPZbj6Sucn+vnMcx/dgSeJksELmmJfuHjzHotQgyVpxIiZjjtmi+XXFSaESewKPJYmflRASPseZ/DD/OU5PCvaZ92FK7CJxkCR/nsDTdX5dD0ntKenf1ctnSeZmJIR4SWpnz+fPEzDmY6ZHSHLj8tzc531CJf7CDFfJWsLkQIk/L9lTYk/PDJbMzUAO5PzcQMkeJrK9A+cYMEEqSEZUBGjAF3lyAyCDtzpjuhBmqnCNiB+fkEFjIDeMR2MJOKaLaBZmFtYATN/X2ePwhjpzDyHq9XlbWhIAdqPIHamdt0UbANCEnGM5+3mbHnK2ZbEAtPlwxKLMWdvMXcIAIpBBvgXKQB1oAwNgAiyADXAALsAdeIMAEAIiwUrAAQkgBcl8FVgHNoNckA92gN2gDFSCg+AwOAZOgGZwFlwEV8AN0A36wAMwCEbACzAB3oEpCIJwEBmiQMqQBqQLGUMWEB1ygtwhXygIioRioHhIAImhddAWKB8qgsqgKqgO+gU6A12ErkE90D1oCBqDXkOfYBRMghVgNVgPXgzTYQbsA4fAK+B4OA3OgnPg7XApXA0fhZvgi/ANuA8ehF/AkyiAkkJRUZooExQdxUQFoKJQcSgRagMqD1WCqkY1oFpRnajbqEHUOOojGoumoGloE7QD2gsdiuag09Ab0AXoMvRhdBO6A30bPYSeQH/FkDGqGGOMPYaFicDEY1ZhcjElmBrMacxlTB9mBPMOi8VSsfpYW6wXNhKbiF2LLcDuwzZiL2B7sMPYSRwOp4wzxjniAnBsXAYuF7cXdxR3HteLG8F9wEvhNfAWeA98FF6Az8aX4I/g2/C9+FH8FEGWoEuwJwQQuIQ1hELCIUIr4RZhhDBFlCPqEx2JIcRE4mZiKbGBeJn4kPhGSkpKS8pOaqkUX2qTVKnUcamrUkNSH0nyJCMSk7ScJCZtJ9WSLpDukd6QyWQ9sgs5ipxB3k6uI18iPyZ/kKZIm0qzpLnSG6XLpZuke6VfyhBkdGUYMitlsmRKZE7K3JIZlyXI6skyZdmyG2TLZc/IDshOylHkzOUC5FLkCuSOyF2TeyaPk9eTd5fnyufIH5S/JD9MQVG0KUwKh7KFcohymTKigFXQV2ApJCrkKxxT6FKYUJRXtFIMU1ytWK54TnGQiqLqUVnUZGoh9QS1n/ppgdoCxgLegm0LGhb0LnivtFDJRYmnlKfUqNSn9EmZpuyunKS8U7lZ+ZEKWsVIZanKKpX9KpdVxhcqLHRYyFmYt/DEwvuqsKqRapDqWtWDqjdVJ9XU1TzVhGp71S6pjatT1V3UE9WL1dvUxzQoGk4afI1ijfMaz2mKNAYtmVZK66BNaKpqemmKNas0uzSntPS1QrWytRq1HmkTtenacdrF2u3aEzoaOn4663Tqde7rEnTpugm6e3Q7dd/r6euF623Va9Z7pq+kz9LP0q/Xf2hANnA2SDOoNrhjiDWkGyYZ7jPsNoKNrI0SjMqNbhnDxjbGfON9xj2LMIvsFgkWVS8aMCGZMEwyTepNhkyppr6m2abNpi8X6yyOWrxzcefir2bWZslmh8wemMube5tnm7eav7YwsuBYlFvcsSRbelhutGyxfGVlbMWz2m9115pi7We91brd+ouNrY3IpsFmzFbHNsa2wnaArkAPpBfQr9ph7FztNtqdtftob2OfYX/C/i8HE4ckhyMOz5boL+EtObRk2FHLke1Y5TjoRHOKcTrgNOis6cx2rnZ+4qLtwnWpcRllGDISGUcZL13NXEWup13fM+2Z65kX3FBunm55bl3u8u6h7mXujz20POI96j0mPK0913pe8MJ4+Xjt9BpgqbE4rDrWhLet93rvDh+ST7BPmc8TXyNfkW+rH+zn7bfL76G/rr/AvzkABLACdgU8CtQPTAv8dSl2aeDS8qVPg8yD1gV1BlOCo4OPBL8LcQ0pDHkQahAqDm0PkwlbHlYX9j7cLbwofDBiccT6iBuRKpH8yJYoXFRYVE3U5DL3ZbuXjSy3Xp67vH+F/orVK66tVFmZvPJctEw0O/pkDCYmPOZIzGd2ALuaPRnLiq2IneAwOXs4L7gu3GLuGM+RV8QbjXOMK4p7Fu8Yvyt+LME5oSRhnM/kl/FfJXolVia+TwpIqk36lhye3JiCT4lJOSOQFyQJOlLVU1en9giNhbnCwTT7tN1pEyIfUU06lL4ivSVDAWmMbooNxD+IhzKdMsszP6wKW3Vytdxqweqba4zWbFszmuWR9fNa9FrO2vZ1mus2rxtaz1hftQHaELuhfaP2xpyNI5s8Nx3eTNyctPm3bLPsouy3W8K3tOao5WzKGf7B84f6XOlcUe7AVoetlT+if+T/2LXNctvebV/zuHnX883yS/I/F3AKrv9k/lPpT9+2x23vKrQp3L8Du0Owo3+n887DRXJFWUXDu/x2NRXTivOK3+6O3n2txKqkcg9xj3jPYKlvactenb079n4uSyjrK3ctb6xQrdhW8X4fd1/vfpf9DZVqlfmVnw7wD9yt8qxqqtarLjmIPZh58OmhsEOdP9N/rqtRqcmv+VIrqB08HHS4o862ru6I6pHCerheXD92dPnR7mNux1oaTBqqGqmN+cfBcfHx57/E/NJ/wudE+0n6yYZTuqcqTlNO5zVBTWuaJpoTmgdbIlt6znifaW91aD39q+mvtWc1z5afUzxX2EZsy2n7dj7r/OQF4YXxi/EXh9uj2x9cirh0p2NpR9dln8tXr3hcudTJ6Dx/1fHq2Wv2185cp19vvmFzo+mm9c3Tv1n/drrLpqvplu2tlm677taeJT1tvc69F2+73b5yh3XnRp9/X09/aP/dgeUDg3e5d5/dS7736n7m/akHmx5iHuY9kn1U8lj1cfXvhr83DtoMnhtyG7r5JPjJg2HO8Is/0v/4PJLzlPy0ZFRjtO6ZxbOzYx5j3c+XPR95IXwxNZ77p9yfFS8NXp76y+WvmxMREyOvRK++vS54o/ym9q3V2/bJwMnH71LeTb3P+6D84fBH+sfOT+GfRqdWfcZ9Lv1i+KX1q8/Xh99Svn0TskXsmVYAhSgcFwfA61oAyJEAULoBIC6b7adnBJr9B5gh8J94tueeERsADl4AIGQTAH6IHkBUD1EZFwCmW6IQFwBbWkp0rved6dOnBYv8sRyY7idBf82mYfAPme3hv8v7nyOYjmoF/jn+CxGgAyr4W19aAAAAlmVYSWZNTQAqAAAACAAFARIAAwAAAAEAAQAAARoABQAAAAEAAABKARsABQAAAAEAAABSASgAAwAAAAEAAgAAh2kABAAAAAEAAABaAAAAAAAAAJAAAAABAAAAkAAAAAEAA5KGAAcAAAASAAAAhKACAAQAAAABAAAFrKADAAQAAAABAAADpAAAAABBU0NJSQAAAFNjcmVlbnNob3RYIOgZAAAACXBIWXMAABYlAAAWJQFJUiTwAAAC3GlUWHRYTUw6Y29tLmFkb2JlLnhtcAAAAAAAPHg6eG1wbWV0YSB4bWxuczp4PSJhZG9iZTpuczptZXRhLyIgeDp4bXB0az0iWE1QIENvcmUgNi4wLjAiPgogICA8cmRmOlJERiB4bWxuczpyZGY9Imh0dHA6Ly93d3cudzMub3JnLzE5OTkvMDIvMjItcmRmLXN5bnRheC1ucyMiPgogICAgICA8cmRmOkRlc2NyaXB0aW9uIHJkZjphYm91dD0iIgogICAgICAgICAgICB4bWxuczpleGlmPSJodHRwOi8vbnMuYWRvYmUuY29tL2V4aWYvMS4wLyIKICAgICAgICAgICAgeG1sbnM6dGlmZj0iaHR0cDovL25zLmFkb2JlLmNvbS90aWZmLzEuMC8iPgogICAgICAgICA8ZXhpZjpVc2VyQ29tbWVudD5TY3JlZW5zaG90PC9leGlmOlVzZXJDb21tZW50PgogICAgICAgICA8ZXhpZjpQaXhlbFhEaW1lbnNpb24+MTQ1MjwvZXhpZjpQaXhlbFhEaW1lbnNpb24+CiAgICAgICAgIDxleGlmOlBpeGVsWURpbWVuc2lvbj45MzI8L2V4aWY6UGl4ZWxZRGltZW5zaW9uPgogICAgICAgICA8dGlmZjpSZXNvbHV0aW9uVW5pdD4yPC90aWZmOlJlc29sdXRpb25Vbml0PgogICAgICAgICA8dGlmZjpYUmVzb2x1dGlvbj4xNDQvMTwvdGlmZjpYUmVzb2x1dGlvbj4KICAgICAgICAgPHRpZmY6WVJlc29sdXRpb24+MTQ0LzE8L3RpZmY6WVJlc29sdXRpb24+CiAgICAgICAgIDx0aWZmOk9yaWVudGF0aW9uPjE8L3RpZmY6T3JpZW50YXRpb24+CiAgICAgIDwvcmRmOkRlc2NyaXB0aW9uPgogICA8L3JkZjpSREY+CjwveDp4bXBtZXRhPgqVBSDJAABAAElEQVR4AezdB5gTRRvA8ZdeBOm9SxcRFZEu3d79RKWogEpRig1RURAVQRELNlCRpmBDAUVAEQTFhoDlpHdQ6UeRdpRv3jk25HLJXZLb5HJ3/3mekM3u7Ozsb3PH5d3JO9lOmiKmxMXFSfXq1XWRggACCCCAAAIIIIAAAggggAACCCCAAAIIIIBA1AWyR/2IHBABBBBAAAEEEEAAAQQQQAABBBBAAAEEEEAAAT8CBKz9oLAKAQQQQAABBBBAAAEEEEAAAQQQQAABBBBAIPoCBKyjb84REUAAAQQQQAABBBBAAAEEEEAAAQQQQAABBPwIELD2g8IqBBBAAAEEEEAAAQQQQAABBBBAAAEEEEAAgegLELCOvjlHRAABBBBAAAEEEEAAAQQQQAABBBBAAAEEEPAjQMDaDwqrEEAAAQQQQAABBBBAAAEEEEAAAQQQQAABBKIvQMA6+uYcEQEEEEAAAQQQQAABBBBAAAEEEEAAAQQQQMCPAAFrPyisQgABBBBAAAEEEEAAAQQQQAABBBBAAAEEEIi+AAHr6JtzRAQQQAABBBBAAAEEEEAAAQQQQAABBBBAAAE/AgSs/aCwCgEEEEAAAQQQQAABBBBAAAEEEEAAAQQQQCD6AgSso2/OERFAAAEEEEAAAQQQQAABBBBAAAEEEEAAAQT8CBCw9oPCKgQQQAABBBBAAAEEEEAAAQQQQAABBBBAAIHoCxCwjr45R0QAAQQQQAABBBBAAAEEEEAAAQQQQAABBBDwI0DA2g8KqxBAAAEEEEAAAQQQQAABBBBAAAEEEEAAAQSiL0DAOvrmHBEBBBBAAAEEEEAAAQQQQAABBBBAAAEEEEDAjwABaz8orEIAAQQQQAABBBBAAAEEEEAAAQQQQAABBBCIvgAB6+ibc0QEEEAAAQQQQAABBBBAAAEEEEAAAQQQQAABPwIErP2gsAoBBBBAAAEEEEAAAQQQQAABBBBAAAEEEEAg+gIErKNvzhERQAABBBBAAAEEEEAAAQQQQAABBBBAAAEE/AgQsPaDwioEEEAAAQQQQAABBBBAAAEEEEAAAQQQQACB6AsQsI6+OUdEAAEEEEAAAQQQQAABBBBAAAEEEEAAAQQQ8CNAwNoPCqsQQAABBBBAAAEEEEAAAQQQQAABBBBAAAEEoi9AwDr65hwRAQQQQAABBBBAAAEEEEAAAQQQQAABBBBAwI8AAWs/KKxCAAEEEEAAAQQQQAABBBBAAAEEEEAAAQQQiL4AAevom3NEBBBAAAEEEEAAAQQQQAABBBBAAAEEEEAAAT8CBKz9oLAKAQQQQAABBBBAAAEEEEAAAQQQQAABBBBAIPoCBKyjb84REUAAAQQQQAABBBBAAAEEEEAAAQQQQAABBPwIELD2g8IqBBBAAAEEEEAAAQQQQAABBBBAAAEEEEAAgegLELCOvjlHRAABBBBAAAEEEEAAAQQQQAABBBBAAAEEEPAjQMDaDwqrEEAAAQQQQAABBBBAAAEEEEAAAQQQQAABBKIvQMA6+uYcEQEEEEAAAQQQQAABBBBAAAEEEEAAAQQQQMCPAAFrPyisQgABBBBAAAEEEEAAAQQQQAABBBBAAAEEEIi+AAHr6JtzRAQQQAABBBBAAAEEEEAAAQQQQAABBBBAAAE/AgSs/aCwCgEEEEAAAQQQQAABBBBAAAEEEEAAAQQQQCD6AgSso2/OERFAAAEEEEAAAQQQQAABBBBAAAEEEEAAAQT8CBCw9oPCKgQQQAABBBBAAAEEEEAAAQQQQAABBBBAAIHoCxCwjr45R0QAAQQQQAABBBBAAAEEEEAAAQQQQAABBBDwI0DA2g8KqxBAAAEEEEAAAQQQQAABBBBAAAEEEEAAAQSiL0DAOvrmHBEBBBBAAAEEEEAAAQQQQAABBBBAAAEEEEDAjwABaz8orEIAAQQQQAABBBBAAAEEEEAAAQQQQAABBBCIvgAB6+ibc0QEEEAAAQQQQAABBBBAAAEEEEAAAQQQQAABPwIErP2gsAoBBBBAILYF/v13m8Tv3RvbnaR3CCAQcYHjx4/LmrXrIn4cDoAAAggggAACCCCAAALRE8gZvUNxJAQQQAABBNIuMG78e6KPnDlzyKOPPCStW12c9kZpAYEsJHDs2DF57fW35ODBg3LppW3lgvPrZcizj4/fK1269ZTdu/dI9epVZcyboyR79mwZ8lxipdMzv5wjy377QypVrCAdO7SPlW7RDwQQQAABBBBAAIEsJkDAOotdcE4XAQQQyOgCn03/Qk6ePCkJCcdkxudfRi1gPX36TFmy9De/fGedVVlu63yr323hrPxk6jT588+/TBCumnS49aZwmmAfBAIKjH13okz9dLqUKFFc+vW7J2C9WN/w7YLvbLBa+7l69Vr5M+4vObdunVjvdkz379y658jIF0fZ36/lypaRli2bx3R/6RwCCCCAAAIIIIBA5hQgYJ05rytnhQACCKSbwPeLfpSpU6fb4999dxepWaN6in3RwPOQp4bZ0Z41alST7nd3TbH++fXqyjfzFtg65593bop13dy4YuUqmTc/8bi+7e7dt8/VgHVc3HJ7jgcPHopYwPro0aPyyKODfU/F7+uOHW/OsKNw/Z5QFl65dNnvMnnKR1bgnl53Sb68eTOsxnn1Tv/8Fyhwhh1lnWFPJkY6Xr58WWl/043y3vsfyPMvvCJn16ktJc2NDQoCCCCAAAIIIIAAAtEUIGAdTW2OhQACCGQBgfoXnG9G6L0qO3fukmNvHJeXXxye4ll/Nm2GLFj4va0TzCjlRwY8IE2aNJKCBQvIRQ0uTLFtNze2b3+DtGndMkmTOhJaA/QZsWju38W/Lg2q65dd1i6oem5U6v/w47Jr127pYNIRtGndwo0m07WNWDufN954W06cOCnnmzQgrVpm7HQ6lSpVkPHjRstS882H5s2aZOjgu/4eGTt2ohQwv9dS+50Z6Td05863yJyv5sqOHTtlwoT35cEH+kT6kLSPAAIIIIAAAggggEASAQLWSTh4gQACCCCQVoG8efPI3Xd1kaHPjpBlZjSnBmKamgCzv7J//36ZMHGy3dTi4mZSz4yeTq3kzp1b2rVtlVo117dXrlRR9OFdnEC797qMspwrVy7p17eXp7tHjybI62+8ZV9rXuPatWp4ttXyWvasjNDCho2bZNu27bLPjFrPDCWWzkdT2qxctdqy3nXn7ZmB1/5M+v5cZsQT27dvv508slChM9O9+zrqvnOnW+yNx1mzv5ZuXW+TIkUKp3u/6AACCCCAAAIIIIBA1hHInnVOlTNFAAEEEIiWwCXtWosT5Hxz9FjR0bz+ysRJU0xgcr9o8LRHj27+qrAuQgI5c+aU66+72vO45urLPUdqcOEFnvVap0L5cp5tLGRcgQ8/nGo7X6ZMKalzdu2MeyL0POICLVo0kxw5cphc1gny6WczIn48DoAAAggggAACCCCAgLcAAWtvDZYRQAABBFwRyJYtm9zb627b1qZNm+3kiL4N//PvNjvxm67/343XStkypX2rRPT1gQMHRPM4p3fRHN6ZsRw8eDDdT+vYsWP2hogbHYmF80nLeeh73UkB07pVy7Q05dnX7feu/kyuXbtetmz526QtOeE5DguhCbjxvi9cqJDUr3+ePfCiH34KrQPURgABBBBAAAEEEEAgjQKkBEkjILsjgAACCPgXqFu3js2RqxMVjhv/nuio6/z583sqjxkz1ozeO2a/at65062e9d4Le/bES7/7HvZelWT58ccflmpVz0qyLqUXOpnh5A8+lsWLl8qhQ4ds1eLFi0nbNi3N5IbtJVpfx//7n39l1qyvbO7dv5avlMKFC0m9c8+RtibVSZPGDVM6hZja1rvPgzYg3LdPT7nggvNk7tz58t33P8jS3/6QPbv3SLGiRW3Q69577ja2hfz2XSfcVA+n7N692y5OnvKxzJ4z11nteb7pxuukjblegYoGZj8wI4lnm1QGW//WwOdJ0TQydc6uJTe3v1EaN74o0K4Si+cTsLMhbtD3mY6W1dK6dfC5q+fPXyjvjpskRYoWkZdGDpPNW7bKRx99Kn/8GScbNmyU8uXL2wk5dUTuBSYvtr/y2bTP5dNPk4/SHTP6FcmTJ4/Jl/yNzZWsbTulUcMGMnzYEOelfR777kT59tvvkqxzXujvm2ByLevvE/29oj9rmvYiUPlr+QoZPvxFu3nw4EelSuVKfqtq2iN9n65es1Y2bdoihc4sKGXLlpErLr9E2rVrI9mzZ/O7n6ZnGfPWu55t8fHxdvnAgf+kR69+nvXOQl7j9FIK8wGk5X3vHMP3uXWrFvLzz7+amwjrRG8mFChQwLcKrxFAAAEEEEAAAQQQiIgAAeuIsNIoAggggIAK9Oje1eaw1gDR+5M/kju7JebNXW6CZ/NMIExL1y6d5YwzTgey7cpT/+hIQc0BHKgcOXIk0KZk63V06YBHBnmCdvny5RPdXyeHnPLBJ7LMBFk1IKT5WyNZdCKzPn0fshOaOcfRPsz95luZb4Jxw4Y+6ayO+WcNMOq1/e+/gzJ9xkx5YeSoJH3eZYLPGoz8+ZclMvad12wAO0kF82Ldug2y3gQ+fYvmsdaHb9HjBSp6A2Tg40/JTz8vtlV0pL++t7R/S01gUa/xE48PkNat/AdsY+18Ap1nOOs1sKpF3/eh3OTZZ/LM68/gf2bE/Hbz3r3//gH22emDfoNCH3r9hwx+TJo3b+Js8jzv3bvP78/xiZMnRW9MvDn6HU9dZyHhWGJw3Xmtz/pzEuj3QYmSJbyrBlyuWu0s+fjjz2x/O3W8WfQ94q/ozRc9ln7zw1+wWtMcvf3OePO742N7U8RpY/uOI9ZH32szzU2pkSOG2tQaznbnWVMh6e9B36Lt+ltfoMAZvlU9r9P6vvc05LNwrrkJoEVv+vz+R1yGupnmcyq8RAABBBBAAAEEEMhgAgSsM9gFo7sIIIBARhIoXbqU3PS/6+W99z+QD82ozGuvuVJKlChuJ/c7aYJVZ51VWa668rKAp1SsWDH59JP3k2zXkX6db09MN5JkQwovNFj36GNP2mB1y5bNpftdXaSMCUTpqMQlS36T50a8JCtWrJJBg56RZ4cO9htgSqH5oDdp3x986DEbrM6ePbtowKxVy4ulpAm2bd68RT6ZOk0GPTlUihUrGnSbsVDxhx9/toHp9jddb0c/ly1TRrZv325y334un38xS3T06DvvTJD+DyUfOTrkycfMjYPTqVkeHvCEaKBb27rEjFD1LSVLFvddZV/rzY1Bg5+xwWodKX9fv3tER+lqgFYDrWPHTpAvTQBx6LPP21H95593rt92dGUsnE/AzoW54Z9To9j1GwXhFB35q8HqXGa0+pMmMF2zZnU5aq7b73/8KW+9PU40KD3k6eEy4vln7LcFvI+h36Do2KG9XaU/Z/f0fsAub936t4w237TQEfAtzQjtatWqmp+F4rLbjM7XSUB9S6+ed3luejnbNGj8xczZzstUny+7pK0NWG/fvkN0FLW/XN76u0lvHmm55JLk70Fd/7UJaOtNOC36e62VuQlS3QTD4/5aIQsWfC8zv5xtJ53VSWW73NHJ1vP+50KTbuPtMa96VmnaDR1Bni9fXhn18gjPemdBf1/4K26+733b19+/TnHeP85rnhFAAAEEEEAAAQQQiKQAAetI6tI2AggggIAJyrY3gcI5NgilwaVmTRvb0XpKc2+v7uYr8/4DMbpdv05f1KQi8C65coX+X9do89V7HU2tx35y0KOe5jQdgaaIeGnkcLmjaw8b7Fy06Ce/o0Q9O6VhYeF3P3hGiD4+8OEkI31r164pAx/rL6+9PsYG9/UwGjjLCEUDhtr3dibNglPONKkRHnqwr00ZsmDh9zbAp699R7RWrFjB2cU+5zx1fTWIX7161STbUnqhNx6+X/SjbX/Ec89IjRrVPNVLmpskAx6+X46alBg6cnbUq2/K2Ldf92z3XYiF8/HtU1pfa0BZS/Ewb4ZoCp1s5mf1nTdftjcBnP5UqlRBGl50of350ZHsOrGjprfxLvpznD174s+tTvbplFmzvpYKFcrL4CcekapVqzirAz4njjJOOtI4b4jfiND3VJUqlWX9+g0yb95CvwHrP//8y47m1o5oKiN/RdOc6Hm1bNFc7r/vXk8VtdCHTiSrkxXqNyf8Baw1vUb16gU8+60xaTe06O/D9HrfezpzaiFv3jwmDcgZJh3If/aGhO92XiOAAAIIIIAAAgggECmBwFGCSB2RdhFAAAEEspSA5q12UoHM+WquvPBS4qhCzdXsTOoVSRAdRb169Rp7CE0/4q9o0K2VGXmtZeWq1f6quLLO+ar/OeecnSRY7d24BrcKFizovSrmlzV1gHew2rvDV191uX2pNwx05Gykyp9xf9mmmzVrnCRY7X28Lrd3tC83bNiU4oSbsXA+3v12Y3nvvlMB6zBHWGsfut/dJUmw2umX3lzQHPBanPe4sy2l56mfTpehzwwKKlidUjuhbrv01Kjp+d8u9HtTyElXpD+n5cqV9dv8G6+9KPPmzpRBJtjur2jQWouOItffQZEqbr7v/fXR+baHc8PDXx3WIYAAAggggAACCCDgtgABa7dFaQ8BBBBAIJnA5ZddYr/ur7lQdTI+HWXZq9ddyepFYsVyk4JAc7zqyOwqVSoHPISmI9AS0YD1isSctXVNICxQ0QB/1bMqB9ock+t1wrtApUyZUp5NmoYhUkVz7GqpUf30yGrfY5UvX85O8qd5gp0Rrb519HUsnI+/fqVlnaaO0KIjf8Mt59ULnEblvHp1bbOazkVTsARTrrziUqlgrkm0i95c0dHRmk9eJ2L1Lvqthm8XfGdXBRpd7V0/0PIZZmSylhMnTngmeA1UNy3r3Xzf++tHrly57Wr9maEggAACCCCAAAIIIBAtgdPfywzjiJorMtCIC/3Ddr0ZweSUHDlymElrKjovg3r2bUN3KlGimJmB/cyg9ncq6QcnndzGKW604cb5hNOGnkNmOp9Yusa+fQnn+vi2odfLjfdbOG349iW18zn77Npy9113aJcpCLguoMGhe0yA+j6TA1eL5nyNVqBq3br19pgaJH9l1Bt22d8/mzZvtqtXr0n8ar6/Omldp6MttWj+7JRK2bJl7ASBKdWJpW06wjZQye81oeaJkycCVUvzeuc6L1myLMWR3Dlz5jDpYcSMul8rZ9eu5fe4sXA+fjuWhpXO3047d+0KqxVN8ZKYksP/7mXKnn5PbzGTcWoaltRKgwYXpFYlIts1j/cF558nOhHrvPkLREdSO8VJB6I3uAJNzunU1eeNGzeb/Pcr7cShe83fmgfN5JSHDh6SXbt2e1eL2LKb73t/ndx16v2i15+CgD8BPg+m7fNtan+f+zPXdZnp82BmOx/fz2B6fuF8lnPjGvv2JZz3m28bnI8KpM/P4AP397ap1BJ7wL8IZH6BNAWs//jjLzsxUrBMS5fFB1s1YL39Zrb6tBY32tA+uHE+brTB+SR/R8SSiRt9caON1N6zmsuXgkAkBWrXquFpXvM1R6scP5Y4MvDQocM2p2xqxz1o8vBGqjgpqb3z+Po7lrPdN9+zv7qxsC4W+qkfqLQsNRNs6iO1ctAEFQOVWDifQH0Ld32hwoXsruEGUp33ZKDj58zh9Sel80YPVPnUer0xk17l0kvb2oC1Tq547z3dPbnVnXQgjRs1TDE1z86du+TlV94Qzc+ensXN973veeio/Pj4vXZ1oUKJ7x/fOrxGgM+Daf98y+fB5D9H0fjsk/yo/tfEyvWJJRM3+uJGG3rFstL10blCKAhkJQGvTxfhn/bN7W+QUqVKJmlAv34ddyqfpG7Qr6DWqVM7SZ3UXvi2ofX167zFQ8y/uGnzFtntNdLFjTbcOJ9w2lCDzHQ+sXSNffsSzvXxbSM937O+fQl0Pjqa7Jt5C7SrFAQypUAOM6JWSwkz4nPY0MF2OaV/smWLfLYsJ8gUqB+pbQ+0X1Zer6OGtGi+9MaNGqRKUbx46iOAU20kA1UodmryUg20hlM0VUbKJbXtyfcukY7XoHnzJjYft3ro/4OaBkbP0UkHcumlbZJ3+NQa/f914BNP2XzdhQqdKU3NZK5NTU5+zYWfL18+0Ykg16xZK33vezhgG25tiOT7fveeeE+O73An63TrPGkn9gX4PBjcNQr27/PUWstMnwf1XDPT+fheYz0/N+IP4bTh25dAnwe1j4GKbxtaL5y+uHGNffuS0c/H1yTQ+bwzdoIQrA70DmV9ZhZwJWDdulULqeU1cu402I2nF8NecqONsA8egR05n+SosWTiRl/caCO5UnhrUu+L/sdIwDo8XfbKGALODdV95uv6Vaue5RlJmR691zQJGzZuktRyOW/btt12L/UgYXqcRWweU6+zpinTAJ6Tjzw2e5o+vap7Th354MOp1khHWTuT6QXbGx1pq5MH5s6dmNPYd79t207nJy+RQooY7/00VVB6lXwmqHzxxU1l9uyvTVqQhTZgrYFrDWBrELpRw8A3PX76+RfP5JL9H+onzUzA2rdEa5R+JN/3a9eeTo+UUl5333PnddYU4PNgKNc99b/PQ2kt/etyPsmvQSyZuNEXN9pIrhTeGjf64kYb4fU+nL3ee+9DAtbhwLFPhheI/DCyDE/ECSCAAAIIZGSBChXK2+4fMYmLt5zKIZ1e5+OkQllhJoIMVHT0yNr1GwJtzvTrndQTx06lcgn2hJ3rnNJkisG25Wa9cM/HzT5oW/XMpIhOEHVeGN+q0Zsnmvc7UHEmKy1YsKCUL1c2ULWYWn/ZJYmjqOd/u9COJHbSgbRqdbGdGDZQZ9ecynOv3/hr0riR32o62WsoxXmfhPrtiki+7x0PnTg1pbzuoZwndRFAAAEEEEAAAQQQCEaAgHUwStRBAAEEEMiwAmXNBIdFT6VDGGu+UheovDLqTbmja08Z+eKrgaqkeb0TsP5l8ZKAkyp+MnWa7Nm9J83HyqgNVK9e1XZdJ7ILpdQ9NXHefDNadn2AgP/6DRul21332uscqE4oxwymbrjnE0zbodTRSfNq1qhud5k779tQdvXUfTvAz4/eDJo4aYqtV6tmdU9g3LNjjC6cd149mypIR5z//vufnnQgl13SNsUeFyhQwG4/fPiInDiRmDvdewf1mPvNfO9VqS477xNtU9+nwZZIve8TEhLku+8W2W40uLB+sN2hHgIIIIAAAggggAACrggQsHaFkUYQQAABBGJVQFNE9Op5l+2epr/RgPShQ6cn3Ntj8rSOfXeiaKBYg5ia2zZSpWmTRlLkVPD80ccGy5ezvvL0RdNZaD/GvPWuFCtaNFJd8LSrI2Y3mzkenMeWLX97tmkAz1mvzwcPRm+SF01doUUnw9NJ7Rb/ulQ0AKhF+3zixAm77PvP1VddbnMI6wjV/gOeSDLxoq5bvnylPPLoIJtbOH/+fFKlSmXfJiLyOtzziURnrr/+atvsX3+tkH/+3RbSITR9x0aTzuaxgUNk+46dnn3Xrl0vffr2F01joyO4r7zyUs+2WF/Qc2rXtpXt5suj3rDpQCqYuVKcG0uB+l+7duIEsgcOHJDhz70o69ZtsFX1/blx42a57/4B8m+IvpUqVvBM8jho8DMyffpM+fvvfzxdCDTyOlLv+x9//MXz9ePrrr3K0w8WEEAAAQQQQAABBBCIhoArOayj0VGOgQACCCCQ9QQ0iNqjV78kJ65BIac8+NBAm7PYea3P77z1arKJgDUo9dNPv8hXX8+TadO/kC9mzhb9Kr3m5N3qlSbk+uuulgYXXuDdnGf5uedfkgULE0ccOisPHz5sF3/77Q+56pr2zmr73NqkFbj/vnuTrNMUAs8Pe0r69Otvg0HDho+0Aa9CZ54p8Xv32ro9unezOa6nfjo9oiNVte+dbksM5CfppHnxxptv24ezfuBj/T2BPWddpJ4vadfaOH8vaqoG+tCbDtmzZ5fjx4/JA/f3kauuvCzZ4XPmzCn9H+yXGFDdvkP6mQnvChcuLKVLl7SB1kOHEq+V5vzt16dXsv0jtSLc84lEf9q2aSlvvT3OBmYnT/4o2fszpWPmypVbXnxhmPS69365qX1nKVKksOgo3AMH/vPs1qN7V2nV8mLPa2dBRwxroFuL989bh07dPEFa3aZ5o/v07qGLfktKP4NLliwL6mfQt+FLTFqQ942FBt61XHppyqOrtU6ds2vLZabeLJP/es5X39iHpszQGyt640lTaDzz9CDp3edBrR5U0WB/3z497e8DDXq/8OIou5/mDNebNIULF5JPPpqUrK1IvO/1d+zkDz62x2rQoL7J/V8l2XFZgQACCCCAAAIIIIBAJAUIWEdSl7YRQAABBNIkoF+3379/f8A2/I38PR5gBK4GXXWStTFvjTNBs62etBG5cuWUypUryV133iENL7ow4LF0VHagvujoR99tTjDbt0H96v9zw4bIx2ZE97Klv9tA9d59++yI30tN8OzWW/5nRxb77pdVXmvqipEjhsr4Ce/bNA12BnWTIkWNdUSsBugClXNMWpDx40fL66+/Jd99/4PEx8fbh9bXke3NzAj3nj3ulDPOyB+oCdfXp+V83O6M2nXudIu8+NJrMuPzmaKjc51UFMEcq1KlCvLMU4/Lu+MmieZo1gCt/vycbQK4rU2g+rrr/I/ETTiakCRQ7RxLJ0LVh1N2p5IKx62fQed4+lzF/OzXqFFNVq1aY28Q6Q2GYMqDD/QxgenSNtitDjqRqqYK0d8h/fqaGyImAB1q0RtrZcuWlg/N5JgbN22RLVu22ptq2k6gyS51m9vv+9lz5kpc3HL789bl9o56CAoCCCCAAAIIIIAAAlEVyGZGUdihanFxceZDS2Juw2B7cMONHWXX7t0y+o2XpVatxK9HBrsv9RBAIDYEps+YKS+MHGVHtg03QTQKAllBQANMm02qi+zZc0jFiuVTDIJG0kP/C95g0iwUL1Y0yUjTSB4zI7ateX01/qdBO2fiwGDOY+fOXTY1Q3mT5kFHqMZKCfd83Oi/vucGPDJIfjTfONBA56uvjEjR1Pk/Ik+ePDJn1meeLujkoBs3bTITLJaTvHnzeNZntQUd/bzVpO44duyYVK5UMYnliROJ3wbRGy3hFG078aZArpB+R6Xlfa8j5jvdfpfNo683N+7sdns4XWefLCTA58EsdLE5VQQQSBcBfs+mCzsHjQGBwMOUYqBzdAEBBBBAAIFICGjwrVq1xMn9ItF+sG1q8FVHeFJSFgg3IFrcpGDRR6yVcM/HjfPQ99wjAx6QviYtjead1lzFjRtfFHLTOrK6WtWzQt4vs+2gqWo077W/Em6g2mlL286XL5/zMujntLzv9QZFLpOCR1MjdbmjU9DHpCICCCCAAAIIIIAAAm4KELB2U5O2EEAAAQQQQACBGBfQ0ebjx42O8V7SvfQQ6HDrTaIPCgIIIIAAAggggAAC6SmQPT0PzrERQAABBBBAAAEEEEAAAQQQQAABBBBAAAEEEHAECFg7EjwjgAACCCCAAAII+BUIYw5Bv+2wEgEEEEAAAQQQQAABBBBITYCUIKkJsR0BBBBAAAEEEMiiAtdcfYXog4IAAggggAACCCCAAAIIREuAEdbRkuY4CCCAAAIIIIAAAggggAACCCCAAAIIIIAAAikKELBOkYeNCCCAAAIIIIAAAggggAACCCCAAAIIIIAAAtESIGAdLWmOgwACCCCAAAIIIIAAAggggAACCCCAAAIIIJCiAAHrFHnYiAACCCCAAAIIIIAAAggggAACCCCAAAIIIBAtAQLW0ZLmOAgggAACCCCAAAIIIIAAAggggAACCCCAAAIpCuRMcWsqGzt0aC+HDh2SEiWLp1KTzQggEKsCtWvVlDu73S7lypWN1S7SLwQQQAABBBBAAIEYFODzYAxeFLqEAAKZSoDfs5nqcnIyIQhkO2mK1o+Li5Pq1auHsCtVEUAAAQQQQAABBBBAAAEEEEAAAQQQQAABBBBwT4CUIO5Z0hICCCCAAAIIIIAAAggggAACCCCAAAIIIIBAGgQIWKcBj10RQAABBBBAAAEEEEAAAQQQQAABBBBAAAEE3BMgYO2eJS0hgAACCCCAAAIIIIAAAggggAACCCCAAAIIpEGAgHUa8NgVAQQQQAABBBBAAAEEEEAAAQQQQAABBBBAwD0BAtbuWdISAggggAACCCCAAAIIIIAAAggggAACCCCAQBoECFinAY9dEUAAAQQQQAABBBBAAAEEEEAAAQQQQAABBNwTIGDtniUtIYAAAggggAACCCCAAAIIIIAAAggggAACCKRBgIB1GvDYFQEEEEAAAQQQQAABBBBAAAEEEEAAAQQQQMA9gZAD1g89PFDu7t5HNmzc5F4vaAkBBKIqsHDhIvtzPOrVN6N6XA6GAAIIIIAAAgggkLEF+DyYsa8fvUcAgdgX4Pds7F8jehh5gZyhHmLtmvWya/duOXzocKi7Uh8BBGJEYE98vKxctVqKFCkcIz2iGwgggAACCCCAAAIZQYDPgxnhKtFHBBDIyAL8ns3IV4++uyUQ8ghrtw5MOwgggAACCCCAAAIIIIAAAggggAACCCCAAAIIeAsQsPbWYBkBBBBAAAEEEEAAAQQQQAABBBBAAAEEEEAg3QQIWKcbPQdGAAEEEEAAAQQQQAABBBBAAAEEEEAAAQQQ8BYIOYe1984sI4AAAggggAACCCCAAAIIIIBAbAqMn/C+7NixU5o3byINL7owNjtJrxBAAAEEEPARIGDtA8JLBBBAAAEEEEAAAQQQQAABBDK6wJYtf8u74ybZ07j55hsz+unQfwQQQACBLCRAwDoLXWxOFQEEEEAAAQQQQAABBBDIaAKDnhwqB/YfkEaNGshN/7s+xe4PeHSQJBxNkD69e0qlShWS1B02fKQdbZxkZYAXFSqUl359ewXYenr1mrXr5I033rYrLr64qVx7zZWnNwZY+nLWV/L11/P8bi1Q4AzRY1epXEkuvriZ5MoV/kf26TO+kJMnT8oFF5wnFcqX83s835XhnI9vG7xGAAEEEEAgrQLh/++X1iOzPwIIIIAAAggggAACCCCAAAKpCPz22x+yZ0+8/P5HnLRo0VxKligecI8lS36TI0eOyIH/DiSr88efcaKjjoMpB/77L5hqMnfufFn861Jbd8fOnUEFrLdu/duzT0oHqVB+kvTrd49cWP/8lKr53Xb06FGZNftru+26a1MPojuNhHM+zr48I4AAAggg4JYAAWu3JGkHAQQQQAABBBBAAAEEEEAgYgIahH377XHy6CMPpukYdc6uZUZrX5RiG8WLFU1xu7NxwcLvnUXZuHGzffiO7PZU8FkoVOhM6dqlc5K18fF7Zf36DbJg4SLZvGWr9H/4cXnz9ZekRo1qSeql9mLe/IWyd+8+KWbOo1nTxqlV92xPy/l4GmEBAQQQQACBNAoQsE4jILsjgAACCCCAAAIIIIAAAghER+Crr7+R9jddL9WqVQ37gLVq1ZTbOt8a9v7OjuvWbbAjtvPlyydnnVVZ4uKWm0Dz99K50i1OlRSf8+fPJ9dde5XfOhq0vu+BR+zI8meGPi/vjn1DsmfP7reuv5XTpn9hV1915WWSI0cOf1WSrUvr+SRrkBUIIIAAAgiEKRD8/3hhHoDdEEAAAQQQQAABBBBAAAEEEEirgKYCOXHipLz+ZmLO6LS2l9b9ndHIDS68QFq3vNg29+2C79LarN2/SpXK0qvnXXZ5w8ZNsnnzVrsczD+ah1qD5xrgvvqqy4PZxdaJ5PkE3YlUKh44cEDWrl1vbxScOHEildqJmxMSEuTgwYNB1Q220vHjx+Xvf/61fdm3b3+wu1EPAQQQQCBIAUZYBwlFNQQQQAABBBBAAAEEEEAAgfQTuPPOO+TFl16TX39dJj///KtcdFH99OuMObITnG7atJGcW7eOjHpttKxevVb+/XeblC5dKs19885dvW79+mSTSAY6wPTpM+2mJk0aSokU8n377h/u+fTu86Bo0Pb22ztK61aJgXvftvfu3St9+va3qx8f2D/ZCPnPpn0un346w3c3GTP6FcmTJ4/M+eobmTDhfZsmxanUqGEDGT5siPMyybNeg8kffCwLFyyS3Xv22Mkn8+fPL+fVq2sm7rzOTkSZZAevF3d06WHre62Syy+/RG65+UbZvmOnvPvuRNufY8eO2SrZsmWT118bKWfXruW9i2d52bLfZfacubJ6zVrZtGmLFDqzoJQtW0auMG22a9fG3FjI5qnLAgIIIIBAogABa94JCCCAAAIIIIAAAggggAACMS+g+ZhvveV/MtYEDN8c845caEY2p1ewTydO1BQaevxGjRpI4UKFpHKliqKjoXWkcvubbkizZ8GCBUWDoSdPnrT5qINpUEcSa3BXS6B0I/7aScv5bDKjv+Pj42X//sAjjY+ZEclqo+XIkaPJuqD5tp3t3htPmHOfPOVjeXP0O96r7XLCsYRk63SFjnzu0/ch2WGCy05RR7VZ9MNP8uNPv8jAx/pLm9YtnM1JnrUfau5d9pigt+YX1+C8BsO9i9Y9fuy49yq7rKOw335nvEwxgXP9ZoBTtu84YgPfy8xkojNnfSUjRwwNOm2L0wbPCCCAQGYXIGCd2a8w54cAAggggAACCCCAAAIxL6BB2Pr1z5e659RJtyBszCOZDrZvf4NMm/aFTcUwa/ZXdpRqevRbJ0XUUqfO2TZYrcs6olmDnd8ucCdgvXnzFk/gtGyZMnqIVIsGqw8dOiTlypUV7xHaqe0YjfNJqQ+dO90qHTu0t1VWrFgl9/R+wC5rIH30mLGSO3duadmimR2ZXbJkcdm9e48cPZo8YL1t23bp26+/DVYXL15M+vbpKfXOPUfy5s0ra9etl7feHi9LliwTzQuuub21Td/y9ZzpnlWPPDbYjubXFa+/8ZYNVmv+9Avrn2fyllcRc4HsNT/zzDM9+zgLX8+dL+9P/si+vPaaK6WVGX1evdpZEvfXCllg3iMzv5wtOvp6wsTJ0uWOTs5uPCOAAAIIGAEC1rwNEEAAAQQQQAABBBBAAIF0Fphm0jiMNykPihYtIs2bNbGBtHomfUGwE+alc/ejdvh8JvDYpUsnGfHCK/LO2Al2lKymjAilaEB3+/YdKe5SuHAhGyQNVMnJ99y0SSNPFV3WAKXmj961e7cUK1rUsy2chYmTJtvdChQoIOecUzuoJqbPSEwHcs3VV9jR2UHtZCpF43xS6ouOVM+ePTE8kTPn6TDFrFlfS4UK5WXwE49I1aomQJxKmfTeB/baFip0pox9+zUpZEa+O0VTdrzw/FAZ+PgQ+X7Rj/LSK6/7DVh7Hz97tsRpv/7776As/O4HO1nnHSb1STA/l5rmRM+rZYvmcv999zrdkIYXXWgfuXLlkk8/myFzv/mWgLVHhwUEEEAgUeD0/wSIIIAAAggggAACCCCAAAIIpKuAjhydNv0L+9CgW9OmjaXFxU2l/gXnS65cfHzTi3PlFZfKJ59Mk/UbNspHH38mnTreHNI1m/nlHDO6dU6K+zw//OmAObI11cTy5Svt/k3NqGqnnH12bSlcuLBNj7HQjMAOJSWH04amkdi4cbMddTtv/gK7WtOgaP7l1Mqff/5lR55rIPTyy9qlVt2zPZLn4zlImAtTP50u48eNlgrlywXVwh/GQIu+J7yD1c7OGkDWySw1Ncge87Om6UPKlintbA74POPzL+XSS9pIt663Bazju+GN1170XZXktQauNWCto8iPHj2a4g2SJDvyAgEEEMgCAvzFkwUuMqeIAAIIIIAAAggggAACGU9A8/rOnDnbPgoUOEOaNG5ogtfNpEGDC+xEdBnvjNzpcfbs2aV7964y4JFBZkTzh3L1VZf5DU66c7TkrSz8bpFN1VG+fFmpWLGCp4IGQxubfNZfmrzEmhYktYD1tm075PobO3j21yzHe02e5BMnTnjWXWGC806qDM/KAAt6o0OLTnyoNzuCLW6dT7DHC6We3pwINlh94MB/Jti/0TZ/Xr1zAx5Gr5vmQ9+5c5cdDR9MwFpHXYcSrA54cK8NZ5ifaS16vXXUv6Y9oSCAAAIIJAoQsOadgAACERH44MOp8oMZuZCWoiNM1m9InJxF29Gv3lWpXDGkJn3b0J1LlChmZucO/o943UdnBNfZz50SThu+feF8RHxN1DccWzeuj28bblyfcNpQA9++uGESTl98r48bbaTnNeZ8VD9p8TXRrW6839xow433WzhtqEFm+hnMbOcTS+9Z376E+37Ta6TlwIEDiQsB/tVgnOYn1ke+fHmlUcOLpEWLpua5gXmdL8BemXd140YXyfnnnStLTQ7gd8e9J/369gr6ZG+84Vrp07tH0PV9K3777Xd2lXc6EKeOrtOA9W9mQr195m/HM88s6GxK9qyBSh1R76/oDYonBz8WdB5qvbkxb/5C25TmSw6luHU+oRwz2Lp6cybYsnbtOs/khmXLpjxqWnN8a8B61arV0q5tq1QPUbFieSlVqmSq9fxV0BHzK1astN8I2GveEzr546GDh2TXrt3+qrMOAQQQQMAIELDmbYAAAhER2LRps/0A4XbjS5fFp7nJlGYwD7ZxN9rQY3E+ycXdsHWjDbeuT6xc48x2PrF0jd3oixttuHWN3eiLG224dT78DKpk0sL1Seqhr2LJJHnvkq85dOiwCU4usA8dlXnRRfXljts6SvXqVZNXzsRreva8U7r36CuaruF/N14nOnI20mXv3r3y+x9x9jCffva5rFufOKLXOe7hw4ftot7Q+O77H1KcFLJEieLyykvPObvaZ72uY94aZ25g/BfSAAsNkickJEi1qmeZiSCDy3etB3TzfJKciEsvypYNbrJJPVzCsWOeo6Y2Wjm3SZui5agxC6aE0g+nPQ2Iv/zKG5784M56nhFAAAEEUhcgYJ26ETUQQCAMgTatW5iZsyuHsefpXRISjpmv6SXmodO1mo8vlD/AdR/fNnRd+fLlpLiZNTyUssnM0r7baxREOG349oXzia3r43uN3bg+4bSh70vfvoTzfvNtI5y+8J5N/lvC10RruHF9wmnDty9uXOP0PJ9Yec+qgW9fwrk+vm24cX3CaSOznY/v+z4937O+fQn3+ug5aHnr7fE2LUDiq+D+rVWrhk0RojmudcRoVis1a1SXtm1ayldfz5PRY8bKU0MGRpxAJ95zUnZo3uFffvk14DF1IsMrLr8k4PacOXOIbyD0xhuukw8/+szmwZ44aYoMefKxgPs7G06ePCnOZIuhjq5283yc/rj5XKJ48aCb01QxTtEbBimVY6e258ieI6Vqnm2h9EN30t8PA594yuY6d3LRNzUpfSpVqmC/EZHXTB66Zs1a6Xvfw55jsIAAAgggcFqAgPVpC5YQQMBFgQsuOE/0kfZyY9qbEDfacKEbtgk3+uJGG5yPWwLJ24ml65O8d6GvceN83Ggj9J7738ONvrjRhv/ehb7Wjb640UboPY/cHpxP5GzdaNmN6+NGG26ci7bhXl8mTJySasBacyTXqXO2nYRRc1mXLFnCrRPJsO3cdecdMt+k6NDgsE46GOmywOSm1lK6dCnpYfJo+yufmZHXy0xKkMWLl9r0D8FMmOi0kzdvHrnh+qtl7LsT7TlpOgkNcqZUfl2yzE7cp8dp1y719BbebblxPtmyJbZ45MgR76aTLO/aGV76C33PB1uqVK7kqfrvv9ukSpXKnte+C9vMdi2Vg0w36B0M923L3+uffv7FMzFn/4f6STMzeapvyebA+W7gNQIIIIAAKUF4DyCAAAIIIIAAAggggAACsSqggbJ69eraIPXFZiR1saJFY7Wr6dIvzSt84w3XyJQPPpFRr46282NEqiOapmPJ0mW2+Z7du0nLls39Huocc1Phf+072xQdP/z4i+g3D0Mp1193tUye8rG9gfHe+x/Io488mOLun0373G6/pF3rkPKZu3U+RYsWkT174mXbtu0B+7lq9ZqA29zaUKRIYdEJFP/+519ZsXJ1wIC1pkH591Rf655ztluHT9LOmjXr7Gv9VmeTxo2SbHNeLF+xylnkGQEEEEDAR+D0d2Z8NvASAQQQQAABBBBAAAEEEEAg+gI5c+a0eakferCvfDr1fXlp5DDRICbBav/XonOnW+zkhitWrpJjXnmM/dcOf+0PP/5sUz3kypV4fQK1pLmpa9SoZjfryO9Qi07UeNWVl9ndvp47X/45NRrYXzuaJ3nRosSJzkNNB+LW+ZQxQWIt333/o1//Qyav9/gJ7/vrvuvrzjkVgJ5gjqdpOfyVse9OsmlddGLLSpVOj8r2VzfcdQUKFLC7Hj58xBwreXoSHY0+95v54TbPfggggECmFyBgnekvMSeIAAIIIIAAAggggAACsS6Q2wRBmzZpJI8OeECmfTpZnh/+tA1aFi5UKNa7nu790+DgbZ1vDbofu3fvkb+Wr0jxsX7DxmTtOekzzqt3rqSW5kOvpZaffvpFNNd1qOXm9jeI3rjQXMzvT/4w4O6ffzHL1qlbt07I88e4dT6NG11k+6dpOJ5+5nk72lpXaK7vuLjlcs+990uliimnNQl4giFuuOH6a+wocx1l3fe+/rJly9+eFg4dOiSvjHpTnBHpHW5tL6GkHPE0FMRC7do1bK0DBw7I8OdelHXrNtjXmm9c07zcd/8AUS8KAggggIB/AXJY+3dhLQIIIIAAAggggAACCCAQNYFJE9+WPHnyRO14me1A1117tUydOt2mg0jt3ObNXyD6SKnohJaj33jZU0VHyv78y2L72l8+Yk/FUwtNzAR7746bZNJ6HDb7/eo3h7HvPt6vdZR2u7at5MtZX8mXX86RO27rKMWKJU0Ho8HsGZ9/aXcLdXS1m+ejE0tO/XS6rF273rqqbeHChW3+bg3WV69e1U6IedkVN3ifYpJlvUHw2MAhdt3WraeDzB06dZOCBQt66jZq2ED69O7hee27ULt2TRk+bIg8POBxGyzv2LmbFDEpS87In0/+/vsfE0Q/aXe5/bYO0rFDe9/d7esXRo4SzQuuxenLJ1OnyY/m5oN3GfHc08kmzXS21zm7tlx2aVuZNftrmfPVN/ahOed1ZPXevfukTJlS8szTg6R3n5TTvTjt8YwAAghkNQFGWGe1K875IoAAAggggAACCCCAQMwJEKxO2yXRNB133dUlbY2ksLcGqzXIq6VJk4Yp1EzcpClBNOisZcHCRYkrQ/z31ltuEp2YT1NbvD/lo2R7ayoQTQmio/BbtmiWbHtKK9w8H82z/spLz8mlJkDrTE4YHx8vBc3I97Ym6D5s6JOSN2/elLojCUcTbHDYCRA7lfft2+9Zr9t0dHxqpd6558hz5hsKmvtdyx6zj4601mC1Bor79ukpXbt0DtiMmuqxfPvirHOeA6UccRp+8IE+0uWOTp4bUdu37zCj4U9Iw4sulJEjnhXNb01BAAEEEPAvkM18JcXeYoyLizN3Pqv7r+W19oYbO8qu3bvt3Wa960xBAIGMJzB9xkzRkQM6QkFHIFAQQAABBBBAAAEEEAhGgM+DwShFp84DDz4qi39dKrfe8j/pYSaBjIWSkJAgmzZtEb2BUDFKaUBSOu94M8Hi9m07bFoWvYGgo5z1JkA0i6ZG2WpGd2t+9cqVKiY5vjPiO1KpSaJ5nhzLPQF+z7pnSUsZV4CUIBn32tFzBBBAAAEEEEAAAQQQQACBLCiwa9duEwT9W0qXLiXXXHNlzAjkypVLqlatEjP90dHn6Z0HXkedVyhfzq8JgWq/LKxEAAEEhIA1bwIEEEAAAQQQQAABBBBAAAEEMpCA5rOe8v64DNRjuooAAggggEDwAuSwDt6KmggggAACCCCAAAIIIIAAAggggAACCCCAAAIRFCBgHUFcmkYAAQQQQAABBBBAAAEEEEAAAQQQQAABBBAIXoCAdfBW1EQAAQQQQAABBBBAAAEEEEAAAQQQQAABBBCIoAAB6wji0jQCCCCAAAIIIIAAAggggAACCCCAAAIIIIBA8AIErIO3oiYCCCCAAAIIIIAAAggggAACCCCAAAIIIIBABAUIWEcQl6YRQAABBBBAAAEEEEAAAQQQQAABBBBAAAEEghcgYB28FTURQAABBBBAAAEEEEAAAQQQQAABBBBAAAEEIihAwDqCuDSNAAIIIIAAAggggAACCCCAAAIIIIAAAgggELxAzuCrJtbs0KG9HDp0SEqULB7qrtRHAIEYEahdq6bc2e12KVeubIz0iG4ggAACCCCAAAIIZAQBPg9mhKtEHxFAICML8Hs2I189+u6WQLaTpmhjcXFxUr16dbfapR0EEEAAAQQQQAABBBBAAAEEEEAAAQQQQAABBEISICVISFxURgABBBBAAAEEEEAAAQQQQAABBBBAAAEEEIiUAAHrSMnSLgIIIIAAAggggAACCCCAAAIIIIAAAggggEBIAgSsQ+KiMgIIIIAAAggggAACCCCAAAIIIIAAAggggECkBAhYR0qWdhFAAAEEEEAAAQQQQAABBBBAAAEEEEAAAQRCEiBgHRIXlRFAAAEEEEAAAQQQQAABBBBAAAEEEEAAAQQiJUDAOlKytIsAAggggAACCCCAAAIIIIAAAggggAACCCAQkgAB65C4qIwAAggggAACCCCAAAIIIIAAAggggAACCCAQKQEC1pGSpV0EEEAAAQQQQAABBBBAAAEEEEAAAQQQQACBkARCDlg/9PBAubt7H9mwcVNIB6IyAgjEjsDChYvsz/GoV9+MnU7REwQQQAABBBBAAIGICvBZLqK8NI4AAggIv2d5EyDgjkDOUJtZu2a97Nq9Ww4fOhzqrtRHAIEYEdgTHy8rV62WIkUKx0iP6AYCCCCAAAIIIIBApAX4LBdpYdpHAIGsLsDv2az+DuD83RIIeYS1WwemHQQQQAABBBBAAAEEEEAAAQQQQAABBBBAAAEEvAUIWHtrsIwAAggggAACCCCAAAIIIIAAAggggAACCCCQbgIErNONngMjgAACCCCAAAIIIIAAAggggAACCCCAAAIIeAsQsPbWYBkBBBBAAAEEEEAAAQQQQAABBBBAAAEEEEAg3QQIWKcbPQdGAAEEEEAAAQQQQAABBLKmwIEDByQh4VjWPPkMcNZHjhyRffv2Z4Ce0kUEEEAAgcwokDMznlQsn9Nfy1fIO+9MsF18/PGHpXChQil298WXXpMtW7ZKo0YN5Kb/XZ9iXTYigAACCCCAAAIIIIAAArEocPLkSZk+Y6YsWfqbrFy5Sv75Z5vkypVTqp51ltSsWV2uufpyqVataix2Pcv0Ke6v5fLRR5/JmrXrZOvWrXLixEkpUqSwVKpYQW666Xpp1rRxlrHgRBFAAAEE0leAgHWU/ffG75PFvy61R004mpDq0TXAvWrVGildulSqdamAAAIIIIAAAggggAACCMSawNGjR+XZYS/IN/MWJOmajrBeYYLX+pjz1VwZ+Gh/adYs6wVFv1/0o4wdO1EKFCwgL784PIlRNF5oYHrylA/lHdOH48ePJznknj3xoo9lv/0hzZs3kUcHPCD58+dPUieWX/R/+HHZtWu3dOjQXtq0bhHLXY1a3zCJGjUHQgCBNAgQsE4DHrsigAACCCCAAAIIIIAAAggEFtCR1Q/2Hyi/mYBnjhw55MorL5XLLmkrZcqUlsOHD9vBORMnTbGjegc+8ZQ8OfhRaXFxs8ANZsItmnpDRzUXKnRmupzduPGTZPyE9+2xy5rrct11V0v16lUlT+7ctl+Tp3xkR8QvXLhIRhcrKvf1vSdd+hnOQTds3CTbtm036U32hbN7ptwHk0x5WTkpBDKdAAHrTHdJOSEEEEAAAQQQQAABBBBAIDYEFi9eYoPV2pve93aX600w1LuULVtGGje+SPr07W9HWn/+xawsF7D29oj2so6e/vCjqfawF1xwngwxNwwKFizo6Uad8R6f9AAAQABJREFUOrXlkkvayCOPDpalJp3LtGlfyCVtW4uupyCAAAIIIBApASZdjJRsOrWbkJAge/em/e6xToKiX91zs2iba9euNzm5/zb50E642TRtIYAAAggggAACCCCAQAwK/P5HnO1Vvnx55dprrvLbwzx58sjtt3ew25Ys+U0OHPjPbz1npY7a1s89vkXXHz58xHd1urzOKJ99JkycLIcOHbaj3x9+qF+SYLUDly9vXnnk4fslb948osYLv1vkbErxWQ3c+tx38ODBFI+VHhvT6xprCpf4vXvttUiP8+aYCCCAQDQEGGEdDeUIH2PX7t0yadIH9g+HnTt32f+48uXLJ7Vq1ZCOt94kDRrUD6oHcXHLZfIHH8vixUvNHy2H7D7FixeTtm1aSodb2wf8itpn0z6XTz+dkewYY0a/IvrH55yvvpEJ5itmm83kkU5p1LCBDB82xHnJMwIIIIAAAggggAACCGRCAWcwTSEz2Xz27NkCnuGF9c/3fD7wDXLe0bWnnDQDXl579QX5YuYcmfrpdJPiYb/NqfzQA31MsDWnjB7zjsz95luTr3iX1K5dS54Y+HDAeYA0qP3Bh5+Ifv7RVBwHDx6SsmVLS+1aNeW2zrdKqVIlA/bTjc8+OvHkmLfe9RwjPj7eLmugvkevfp71zkJe85nqpQjltl6yZJk9TMsWzQJ6aQU1UZ+ly36Xdes22H38/TN7zlyZ8fmXZmLN1XYAVPbs2W36F/1M2f6mG6RAgTP87WbX9e7zoL2uffv0FB3tPXfufPnu+x9kqUkns2f3HilWtKjUr3+e3HvP3eazaSG/7Qx5apj8/c+/nm27zWdlLZOnfCzaN99y043XSRvTN+/ixjX2bi8t7zenHb1BM+m9D2TRDz/Jpk2b7Y0ZvYFQuVIlueWWG6Vli+aSLZv/ny83TJx+8IwAAghES4CAdbSkI3ScjRs3S6977/OMQtCRCzoJhk4soV/Z0ke3rrfZP7xS6oJOBDngkUGekQoa8D5y5IhoAHzKB5/YSTb0jyS9u+5b9I9QzYPlW06Yu+/6h8Gbo9/x3SQJx5KPiEhWiRUIIIAAAggggAACCCCQoQUqVChn+695hLdu/VvKlSvr93xym3zJOqjFX9m4caMZqXtSfvv9T3njzbc9I0tnz/5azqpSWXLnzmU/szj7aiB6qJnk8ZWXnnNWeZ5Xr14rT5qg5ubNWzzrdEG/CaoPDWoOefIxadK4YZLtzgs3PvtosH358pVOk55nnfDQ3/qUgryencNY0NHS//y7ze5Zo0b1VFu46srLpHz5clKkSGG/dce8NU7ee/8DzzYNoOrNB73umiNb08OMeP6ZgJM26gAnTVHy338HZfqMmfLCyFGetnRBB2rpYKiff1kiY995zQawk1QwLzSYvn7DRt/VNo+1vgd9ix7Pt7hxjZ020/p+03Y0QP34E08n+cytthoI1wlLBz/5rDRtMk+efuoJvzeF3DBxzodnBBBAIFoCBKyjJR2h4wwa/IwNVteqWUN69rxT6pxdW3LlymnTbkx6b4p8OesrM9vzBLnwwvPlbDPSwF9ZZu6SP/rYkzZY3bJlc+l+Vxd7F1xTguhX8p4b8ZKsWLFKBg16Rp4dOth+Xcy7nc6dbpWOZtZlLVrvnt4P2GX9w2T0mLHmD8jc5o5vM6lWraqULFlcdpu740ePErC2SPyDAAIIIIAAAggggEAmFjj//Ho2iKYB58cef8qOfD7rrMphnfHb74yXB82I6jpn15K335lgR9/qhIE62Kb3Pd3loovqyzgTGNWRuTrJ4/YdO6VkieKeY2mAdtCTQ20AtXTpUnLH7R2lXr26dmTqwoXfyxdfzLZBweHDX5QJ40f7HcXrxmefC80o4bfHvOrpl46aHfvuRHMeeWXUyyM8650FHaUcibJ7zx47SEnbLlmyRKqHaNu2lejDX9H+O8Hqq6+6XG64/hqpWLG8/ez3/aIf7efCuL9WSP8BT8jzzz3tdyCU0+4PP/5sA9Ptb7rejn4uW6aMbN++XT797HPRHOc6Iv0dc/37mxQmvkVvNhw5cjq15cPmeBro1rYuadfGt7r9fOq70o1rrG268X7TNoY996J9X+bKlUu6391FmjdrIoULF5bFvy6RBQu+tzdZ1Fh/Frp26ex7OvYGTFpNkjXKCgQQQCDCAgSsIwwcyeb1P17n7vED9/eWGjWqeQ5XvnxZ0XWbzMiBf8xXojTwHChgPdp8HU1HUzdr2lieHPSopw1N56EToLw0crjc0bWH/PTzYlm06Cf71TtPJbOgX+3Lnj3xrZQz5+m31KxZX0uFCuVl8BOPSNWqVbx3YRkBBBBAAAEEEEAAAQSygEC1qmfJdddebdN4rF+/QbrddY+cf/65cnHzpnJh/QvMiF3/I6790bRqebHoKF8tPXp0swFrzb/ctk0r+d//rrPr+/buYQPW+uJfM3rYO2D98y+/ms9G/9hczE89OTDJ5ydNV9G6VQu5tWNXmx948a/LpE3rFrZN73/c+OxToEABqV69gKdZTUuiRQPT1atX9ayP9MKO7Ts9hygaYNS0p0IKC/q5VEdQa7n9tg5JgqYaCNeJNjWdSM97+skfJqf5HDOK/dprrgzY4hczZ8vAx/pLO6/g+JlnFpSHHuxrU4YsMDcXvjY3JfS1bxqMihUrJGk3pxnMpUX7EaytG9dYj+nG+01HlOs3BrToe1Y/nztFP7/rQ89t4qQp5mdshr0J43uDww0T55g8I4AAAtESOB1djNYROY5rAvF79nraio8/veys1Duwr7860nnp91lHUa9evcZu83c3VjdUqlRBWpmR15oTbuWq1ckC1n4bNis1t9z4caOlgvnaGAUBBBBAAAEEEEAAAQSypkDve3tI0aJF5N1xk0TTXvxqgsH60FK2bBk7Z44GJ30Da75a9U1eY6foZ4zCJo+xTj6no7idormNNQiuE73/5zN5Y8OLLpR5c2c6VZM96/w9VSpXsp951q1b7zdgnWynUysy4mefEydPeE4nWxpGcf/551+2nSLmGuvcR/6Kzq+kNxacAGxKAetz69ZJEqz2bk9Hb2vAWgdc6Td3ixUr6r05osuhXmM33m8a9Nai3yrwDlZ7n6jerNEUnzoaWwesVa5U0XszywgggECGFIjMd4syJEXG67R+xUrzVWt500wyon/06X9SoZTlJoVHQsIxm0akSpXKAXfVdB5aNGAdbLnyiksJVgeLRT0EEEAAAQQQQAABBDKpgI5Y7dzpFnlv0jt29K13YPrvv/+RCRMny+1dutuJCPWzSaBSpkzpJJsKFEycwK906ZJJ1hcsWDDJ61BenHFqUkCdADGUkpU/+zgB69omTaVOBBioaPoVLX+eGjEcqF5dE7AOVMqUKeXZtH37Ds9yNBYicY1Te79t2bzVntq5554T8BT1xs2br78ko994mWB1QCU2IIBARhNghHVGu2Je/dUR1L1M3uoRL7xiJwi5/8FH7CQmOsN2nTq1pWHDC+2oA69dki3qyAEtmsrjlVFvJNvurNi0ebNdXL0m8etqzvqUnhs0uCClzWxDAAEEEEAAAQQQQACBLCRQxuSN1pQR+tBgo07C963JwfuLedaR1++9/6EdNTvg4fsjqqKT1f1uJnBcZ1KUaMD80KFDcvCgeZjnVSEM0PHuZFb+7KMTC2opWzbpDQVvH112JtzUuY50YsUzzkgcfOVbL6V82vm99vEeIe7bRiReh3uN0/J+22ren1pKlUp6UyYS50ebCCCAQCwJELCOpasRRl/0K1H6H7rOyLxmzVo7gYj+ATBt+hc2B1p9E7zWCUg0rYe/cvzYcbtac799+tkMf1WSrDto/rAItujX+ygIIIAAAggggAACCCCAgK+Afoa5wnwjUx86L89TTw+3g3B00vhrrrki4Pw7vu2E+nrml3PkrbfH2cB4qPumVD8jfvbRifucsn//fmcx5OeEY4mj4nPnzp3ivrnNgCunJBxLcBaTPfvmpU5WIZ1WhHON0/p+S0hInEDS+WZ1Op06h0UAAQSiLkDAOsrk+fPn8xxx3779UsJr1mrPBq8FraPFez+vzXZRc2PpQ/O06UzB+pWsxUuWyR6T0+sXk/NKJzbRXNbekzI6beTImcMuaj+GDR3srA74nC1b8FlkShQ/PSN3wAbZgAACCCCAAAIIIIAAAllaQPNGP/3UE9KxU1c5ceKkHf0caML4tEB9990PMvy5F20T55xztjRt0kguuKCeaN7r/PnymnQWeWXAo4PNhPWJ+bVDOVZG/OxTytw00An6Tpw4ITt2nJ6AMZTz1ro5TuW/1lHyKZVjXtudfVKqH2vbQr3GbrzfcuRI/LyuObspCCCAQFYSIGAd5avtm6+tatUqAXtwzNypdvJyVahQPmA9Z4NOLqKP6669yuay/v77H2XwkGdNjuoEGT1mrLwwYqhT1fPsfLVIA+NVq56VbJZlT8UwFjRXHQUBBBBAAAEEEEAAAQSypoAGMP84NSGfBqULFTozIERZk5+6TJkyid8YPZUGIWDlMDe8O/49u6fOz/PaqBf8tnLSBG/DKRnxs48GQ0uVKiH//LNNNm3akuppPzvsBZk9Z66ZHLO8TBg3xlO/srm2v5kUK//+u92zzt/Cv/9us6uLFS0qackz7q/taKwL9Rq78X4rbdLorF273hMXiMZ5cgwEEEAgFgSCHy4bC73NBH0oUqSwFDg1kcdPPy9O8Yw0l5ve7dZSMYiAtXdj+jWqZs0aS+tWF9vVa8x/cv6KEwjXO7ZbTCoRCgIIIIAAAggggAACCCDghoAGRAc/OVT69utvUxam1KaOrN6zJ95WKVgg/EkTAx1Dg+cbTOoRLddefYXfalonlDl7/DYSxkqdT0hLaiOUw2g61V00eK/lq6/nmTzeKad/XL5ipR0Y5Qx6chrX+ZO0rF69xo6Qd9b7Pq9cudqu0tHt0SqO7bFTqTCjdVy33m8VypezXV5xys5f//fu3SsvjBxlH5oeNLWSXiap9YvtCCCAgLcAAWtvjSgtN2nc0B7pi5mzZc3adX6PevToURk9eqzdpnega9asnqzehx9Nlc633y297rlPnNQhvpUKFy5kVxUvVtR3k32tIxmKFi1il8eOneC3jq58ZdSbckfXnjLyxVcD1mEDAggggAACCCCAAAIIIOAtUK9eXftyxudfegLS3tud5TlfzfUETM8+u6az2rVnDZ5ryg8tOrmiv6ITQB44cMDfpoiuq149MWisk/NpPu9olts63Wq/Zas5rMdPeD/gofX6bdy42W6/uHnTJPXqngpA//3PvzLzy9lJtjkv9JvD2oaWc85JDHA72yL57NiuMMH2aBa33m/nnnuO7bam+lyxcpXfU3jTxA2mz5hpR78XL17Mbx3vlell4t0HlhFAAIHUBAhYpyYUge09enQzOanz29HTvfs8ZP/j3rt3nz2SBqqXLftd7rq7t+ePlV4975R8+U7nvna6VLNmDfPVrc0S99cKGfrsCNm5c5ezSXTE9MKFi8x/XIl/FGhuNn9F/yPt1fMuu+mbeQtsQFpnyXaKjnIY++5E+WTqNFlvZtFu3ryJs4lnBBBAAAEEEEAAAQQQQCBFgZvb3yC5cuW0KQ363few/PDjz0nqa5B28pSP7ehQ3aCpQ5o0bpSkjlsvatdODIRPeu8DmT9/oSdAriOLP5v2uTwz9Pl0SVVRqWIFz3EHDX5Gpk+fKX97pUWJ5MhrnefI+VbulA8+MSPin7UpKJxj7tq9W8a89a68/Mrr9jJosLNd29ZJLolORtiqZeI3e196+XWZ+ul00fSWTtF0IX36PST6WbdMmVLSpnVLZ1PEn+ueU8ceY/6335lzeMPM+bTUflbWlSdPnvR8ozkSHXHj/XbN1VeK863ohwcMsj8/zrewNRYwYeJk0YlKtbRp01Ly5MmT6qmkp0mqnaMCAgggcEqAHNbp8FbQEdP333evPD/iZftH0ogXXhF9aE63/fsPJPlP87JL20rbtq389rKeudt66y3/s3/g6R9+N97Uyf4BoJNBLF+xyuau1h31j5A7u93utw1d2c60/9NPv9ivgU2b/oXoyG/9T1H/oPD+StH1110tDS68IFk7OgrgsYFD7Hrv+h06dfP84aUbGzVsIH1690i2PysQQAABBBBAAAEEEEAgcwro5In39Uv87LNh4yYZ8MggMxgnr5QuVcoGDreZkbdOcFQ/3zw15HEzEWC2iGD0vqe73Hn3veYz134ZZFKVaCBd82Zv2bLFprK4+6477ChizdMcqETis4+mc+zbp6edEFJHMb/w4ih7+Ny5c9vPhvqt2U8+mhSoS2le36d3T9ltBiotXfqbzJu/wD5y5cplgp+5zYjz/zzt161bR4YNfdKMVE8eFH18YH97HRcs/N4Ghl97/S0pV66M7Nq129NGSTPJ40sjh0uxAN/+9RzIxYVL2rUW7dNvv/1hA+kaTNdBWzrZ5PHjx+SB+/vIVVdeluSIbl1jN95v+h7t/1A/Gfj4EImPj7c/PxqULnRmQdnuNVGm3kjoa65jMCUck2DapQ4CCCDgpgAjrN3UDKEtDRKPfft1Oe/UV+R0Vx1l7dwtLVGiuDzz9BPyyIAHUmy1R/du8vhj/cXJPaYTZvz+R5wNVp9p/hPr1vU2+0dBandaB5o2nhoy0AaqT5w4bkdTa/BZ/4PU//yeG/6U9Ovby29fEo4mJE6O4pMvS9OUaBvOY/fuPX73ZyUCCCCAAAIIIIAAAghkXoErr7hUxrz5ijRoUN+e5KFDh+23STWFhAarNZCpg2NeGPFsihMzplWoUqUK8uqoEeKMfE1IOCabN2+RShUrSve7u0rHDjeneohIffbRz4cvvzRcWrZoJlWqVDafw3LZAUQ6UlkD15EsGhAfaezvvquLmW+pgD1UQkKCJ9Csx9eBVCOee8YzH5NvfzQIPOiJAXLLzTdK4UKF7AhrDb5rwFtzJus3dV9+6TnRSQSjWfQz8cgRQ+W2zrfaz96aDlPfc3p+Wpx8zt59cusau/F+036da24U6CSXbVq3sN/U1m9TO8FqnR+ra5fOMuqVEX5vJHifl7McjomzL88IIIBAtASyma/BnNSDxcXFmcBk8jzJvh254caOol8LGv3Gy1KrVg3fzbwOQ0C/gqajDbZs+Vt09HXlyhXDuuus+db+3bZdjpiv1ZUxual1gke9Wx9q0f8A9Q+37Nlz2Bmg/f0nHmqb1I8tAc1xphNz6Kj34cMSR8fHVg/pDQIIIIAAAggggIDbArHwWU4niNPPPRqs1kCpDo7RAGe0i46y3mrSbpQvV9YTpNU+6Mdj/YSsH6PC+Szl1nnoQCb9XKaB62h/HtNg6No162SfMdKBVDVrVJczzsgf9KlpkH2b+Vy604yuLmgC4KVLl7SB1qAbiHBFTUOj11cD8dG6xm693/T9ucNcH/UtZYL/JYoXc+Uc0sMkwpc53ZqPhd+z6XbyHBgBFwVICeIiZrhNaT5r/aqcPtJS9G54NfNIa9HR2M6I7bS2xf4IIIAAAggggAACCCCAgCNQyASn9VGnTvQm3nOO7f1csGBBqVWzoPcqu6wBzDDG/CRrJ60rNGWFv3mM0tpuMPuXNEFqfYRbNMBeztwI0EcsFn8pTSLdT7feb/r+1G8k6MPNkh4mbvafthBAIPMJkBIk811TzggBBBBAAAEEEEAAAQQQQAABBBBAAAEEEMiQAgSsM+Rlo9MIIIAAAggggAACCCCAAAIIIIAAAggggEDmEyBgnfmuKWeEAAIIIIAAAggggAACCCCAAAIIIIAAAghkSAEC1hnystFpBBBAAAEEEEAAAQQQQAABBBBAAAEEEEAg8wkQsM5815QzQgABBBBAAAEEEEAAAQQQQAABBBBAAAEEMqQAAesMednoNAIIIIAAAggggAACCCCAAAIIIIAAAgggkPkECFhnvmvKGSGAAAIIIIAAAggggAACCCCAAAIIIIAAAhlSgIB1hrxsdBoBBBBAAAEEEEAAAQQQQAABBBBAAAEEEMh8AgSsM9815YwQQAABBBBAAAEEEEAAAQQQQAABBBBAAIEMKZAz1F536NBeDh06JCVKFg91V+ojgECMCNSuVVPu7Ha7lCtXNkZ6RDcQQAABBBBAAAEEIi3AZ7lIC9M+AghkdQF+z2b1dwDn75ZAtpOmaGNxcXFSvXp1t9qlHQQQQAABBBBAAAEEEEAAAQQQQAABBBBAAAEEQhIgJUhIXFRGAAEEEEAAAQQQQAABBBBAAAEEEEAAAQQQiJQAAetIydIuAggggAACCCCAAAIIIIAAAggggAACCCCAQEgCBKxD4qIyAggggAACCCCAAAIIIIAAAggggAACCCCAQKQECFhHSpZ2EUAAAQQQQAABBBBAAAEEEEAAAQQQQAABBEISIGAdEheVEUAAAQQQQAABBBBAAAEEEEAAAQQQQAABBCIlQMA6UrK0iwACCCCAAAIIIIAAAggggAACCCCAAAIIIBCSAAHrkLiojAACCCCAAAIIIIAAAggggAACCCCAAAIIIBApAQLWkZKlXQQQQAABBBBAAAEEEEAAAQQQQAABBBBAAIGQBEIOWD/08EC5u3sf2bBxU0gHojICCMSOwMKFi+zP8ahX34ydTtETBBBAAAEEEEAAgZgX4PNgzF8iOogAAggggECGF8gZ6hmsXbNedu3eLYcPHQ51V+ojgECMCOyJj5eVq1ZLkSKFY6RHdAMBBBBAAAEEEEAgIwjweTAjXCX6iAACCCCAQMYWCHmEdcY+XXqPAAIIIIAAAggggAACCCCAAAIIIIAAAgggEKsCBKxj9crQLwQQQAABBBBAAAEEEEAAAQQQQAABBBBAIIsJELDOYhec00UAAQQQQAABBBBAAAEEEEAAgeAFjh8/LmvWrgt+B2oigAACCKRJIOQc1mk6GjsjgAACCCCAAAIIIIAAAggg4JLAL7/8Kl/PnS8FCpwh9/TqLtmzZ3OpZZpBIFEgPn6vdOnWU3bv3iPVq1eVMW+O4n3GmyNmBWZ+OUeW/faHVKpYQTp2aB+z/aRjCKQmQMA6NSG2I4AAAggggAACCCCAAAIIxJzAzp275KlnnpO9e/dJn949wgoiHjhwQPLkySu5cmXNj8bTp8+UJUt/83ttzzqrstzW+Va/29xe+fPPv4oG2kqXLik9undzu/k0tfftgu9ssFobWb16rfwZ95ecW7dOmtoMdudoXZ9du3fLq6+Ott266847pGzZMsF2kXoxJnBu3XNk5IujJCHhmJQz17Fly+Yx1kO6g0BwAlnzf+XgbKiFAAIIIIAAAggggAACCCAQgwInT56Up08FqzWwev11VwfVS91v+ozEIO3Klavkn3+22WB11bPOkpo1q8s1V18u1apVDaqtzFBphTGYN3+B31PZu29f1ALWW7Zutf3QEczhlO8X/ShTp063u959dxepWaN6is1oMG/IU8Pk4MGDUqNGNel+d9eA9c+rd65nm47kD7ePnkZCWIjW9Tn430H5Zl7i++Dm9jf6DVjrz823336Xau9LlCguAx6+P9V6VIiMQPnyZaX9TTfKe+9/IM+/8IqcXae2lDTXhIJARhMgYJ3Rrhj9RQABBBBAAAEEEEAAAQSyuMCPP/4iS5f9bhX69ellRlenPj3T0aNH5dlhL3gCcw6hBi81MKiPOV/NlYGP9pdmzRo7mwM+a5B07NiJUqBgAXn5xeEB68Xyhvbtb5A2rVsm6eInU6eJnls4Jb1M6l9wvhlV+qroqPtjbxxP9Xp8Nm2GLFj4vT3F1EaRV6pUQcaPGy1LzUj05s2aSL68ecOhCWsft69PWJ04tdOWLVtl8a9LU22iXLmyqdZxq0J6vd/c6r9vO26dT+fOt9jfZTt27JQJE96XBx/o43soXiMQ8wIErGP+EtFBBBBAAAEEEEAAAQQQQAABb4HJUz6yLxs0qC/16tX13uR3WUdWP9h/oPxmcrvmyJFDrrzyUrnskrZSpkxpOXz4sKxatUYmTppiJ9Yb+MRT8uTgR6XFxc38tuWs3Ldvv61fqNCZzqoM91y5UkXRh3dxArne64JdTi+TvHnzyN13dZGhz46QZeZGhgb+mjZp5Lfb+/fvlwkTJ9tteo2Def/4c/LbuMsr/R03LdcnLd3TYL3+vDjl2wXf2yB+4UKF5I47Ojqr5YwzzvAsR3ohvd5vkTovt85Hb6p07nSLvYkza/bX0q3rbVKkSOFIdZt2EYiIAAHriLDSKAIIIIAAAggggAACCCCAQCQEdCT0b7//aZtu16ZlUIdYvHiJDVZr5d73dk+WQkRz9jZufJH06dvfjrT+/ItZqQasgzowlaImcEm71jL10+myYsUqeXP0WGnUsIG9OeHbAb0xoYHBXLlySY8esZUv27evsfS6rsnbrQ+n/PPPvzZgfYZJkxJsSh5nX54jL9CiRTN5+ZU3TC7rBPn0sxnStUvnyB+UIyDgokDq35ty8WA0hQACCCCAAAIIIIAAAggggEBaBH744We7uwYcm5lRn8GU3/+Is9Xy5csr115zld9d8uTJI7ff3sFuW7LkNzlw4D+/9SK1UieA1LQllKQCaqIj5FMr2bJlk3t73W2rbdq0WWZ8/mWyXf75d5sNauuG/914rZT1GjGcrHIEVsTKNdY0OLFUDplvOZw4cSLdu+TW9YmF89GR7/Xrn2dNF/3wU7rb0gEEQhVghHWoYtRHAAEEEEAAAQQQQAABBBBIN4FlJq2HloYNLzTpB/IH1Y+9e/fZeoVMECd79mwB97mw/vkyfNgQu903gLbE5DAe89a7nn3j4+Ptsga2e/Tq51nvLOQ1AfCXUsltHRe3XCZ/8LEsXrxUDh06ZHctXryYtDUjxzvc2l6CSTeiKTBmz5krq9eslU2btkihMwvaSfOuuPwSadeuTYrn6/Q13OdImGhftpvcuzPMJH+ap3z58pWSM2cOqVSxonTs2D7Fke86ArhVy4vtBI7jxr8nOuo6f/7T75ExY8aaEafHbHqEzp1u9XvaY9+dGHByQW0/1HzAblxjvx0NceXXX8+Tn3/5VX5dskzi4/faSUbrnXuOdOzQPsSWwqs+95tvbT7lChXLy9NDHpft23fIZ9M+t9dYR8Vrqp5KFStIp04322vo7yiReL+Fe31i9Xy83Vq3aiE///yrrF27ztyAOyAFChTw3swyAjEtQMA6pi8PnUMAAQQQQAABBBBAAAEEEHAE9OvtGmDScm7dc5zVqT5XqFDO1tm2bbts3fq3BJoYLnfu3DaVhL8GNY2EBk99y/Hjx/2uL2BSJaRUdAK7AY8Msl/Z13r58uWTI0eO2IkDp3zwiWhgXgPegSb50+O+/c54mWIC3idOnB6BvH3HERvw1f1nzvpKRo4Y6jc1Rkp9C3ab2yZ6XL0B8NBDj8mGjZs83Th27JisXLVanhj0jOgkiZqTN1Dp0b2rzWG9Z0+8vD/5I7mz2+22ql67efMX2mVNjxDoZodO3Oh9bO/jlChZwvtlqstpvcapHiDIChq8f3fcpCS19edIH+rSp3fPJNsi8UJzh6trDnPzQYOnD/Z/TDZu3Ow5lN4gWmMCq4OffFb+z959wEdRvA0cfwgdQu+9hirNSlWw9w4qHcEGimAD/4IdFURQUZEq2MsrKioqilLsDVtEeu8QOgn93WfCHpfLXXK57CW3m998PvH2tszOfGdB8tzcMytWrAo6xk4/b9kZn1jsjw/z+EZz6wMWLfr3g37LpG2bM44f4QWB2BcgYB37Y0QLEcizApusr+zpoiK66ne9enXyrAMdRwABBBBAAAEEEEgV2L49yRfg1ZnI4ZZWrVqYmcYauHlg+GPy4LAhUrdu7XAvN+edan29fvLEF3zX6NfsdTauphkZ99xo3357Iy4udAZOnRX9vwceMX3p2LGD3GItGKgL2mn6C01HMmr0syYX80NWgPbJJx4OGnD+as5cE5DV+11x+SXSqdOZklC/riT++5/MtxbEm/XZF2YBQl1gsE/v7nazHH110kQblpKcIg8+/LgcPnJYHnnof9KwUQOJs1J9aJ9efGmiCeZrEPqiC88zs8iDdaZy5UrS+dqr5I0335F33/vA2FSoUF5eGj/JpBbRcb/0kguDXWr29b/tJl+Q2z5JPxj4dNYX9tuwXp0Y47BulMlJmhrFDlZr32+9pa80bJBgPhzRXPDqMnLU2Exqce5wSsoBGW491/pnUWda6xjrdx40eP6CNcZbrdn1uqhqsDF28nlzanxipT/BRqhcuRN/R2rOcQoCbhIgYO2m0aKtCOQBgbXr1lv/wP7W+hred2YWhXZ59NMjpJ4QsM4Dw08XEUAAAQQQQACBDAV27trlO16+XFnfdmYb9evVlSuvuMzkL1650pq9edMAadWquZzZoZ2cesrJUr161cyqMF+nT0g48ZV6nQ2qRQPTCQn1Mr3e/4QJVmoRnU3dvl0bE5i1j2kebV388dkxI6X3jbfKTz//Kt9//5N06JA+V7emU9D0Jh3P6iB3Db7drkLOOP1U86M5vnWxNU1dEK2AtaYYcMpEO6C/CxQsVFCmTn5J1MIulSpVlNq1asqN/fqLzrbWPvXofr19ON1rdyt1yGefz5akpB1mFro623nMb+9/ixmzdBcd35E6Mz7t7PgiRYqEOj3kfifGOGTlWTigi0xqqV+/nox/cYzotwjsoilTTrY+zOnZOzX3t+4PJ1+4fX0kr/oNh8KFC8mUSS+kGWP94KZGjermz6ambZk771srLU7nNLdw8nlzanxipT9poI6/KVKksPX3VnHzrYVdx9MiBTuPfQjEokDoj3xjsbW0CQEEPCmgvzTo19T69L1NuvfoZ+UGnOYLVnuyw3QKAQQQQAABBBBAICKB3bv2+K7LygxrveiO2281M2c1V66mH/jttz9k7LMvSrcefeWGbjfKlKmvWjmg1/rqj9aGzqJeunSZqV5TUwQrtWrVsPL4djCHNBVGsDL+xbHyzZxZ8tCD9wc7bILWekADam5azFHHyT9YbXdOZwc3bdrYvN2QyWxRzVttpwKZ/eUceebZ1JnxmhLBXojOrjcar06NcXbbpmlRNA2OFk2V4h+stuvWP0fXX3et/TZHXu8YcEvQMdZv1TZu3NC0YcOGjVFri9Pjk9v9yQiq3PEP9ghYZ6TEsVgUIGAdi6NCmxDIAwJLliyTSZOnSfeeN1mzR24zX1PTXGUUBBBAAAEEEEAAAQRCCWiqCLvoDOKsFJ2NrLNy33h9imiguKa1wJtdNDimqTN69bnFLKyoMzyjVRZZC8xp/QULFpA6dWqHvI3OiNUSKmAd8sLjB4ofz6GtwXl7QcfMrsnt4zpb/aTjQelgbalqpU3RsuV4EDbYOfa+iy4838wq1tQTO6yZ1gUKFJD+/W+yD0f1NafGOLNOLPpvsTkln5VWpdlJqfmMg11j5zoOdszpffrn0P7gIVjdVayULlp0UcZoFSfHJxb6k5FTwYKpM+o15z0FATcJkBLETaNFWxFwsYB+tezfRf+ZFbc1L/XGjZvD7s3LL0+RN0q8E/b5/ifq/5hXrlrj26UzaurUrul7H85GYB16TYUK5awV2EuGc7nvHF3tXBcKsYsTdTjRn0jq0D54qT+xNMaBbYlkfALr0PFy4nmLpI7Atri9P4HPvRP9iaQOr/0Z9Fp/Ap97/gyqgLf+vxFL/TG4fv+JLxFv8sL67fLUpv+/v7Zt3y4Vs7gInmJoQKxXz67mR4Niv/76u8yzcj7/Yr3qn9833nzXpJIYOuSuqNitWLHS1KsB1OfHjQ95jzVrU2d7L12Wmnok1Im6cN1/VmBy5arVssv6t+b+/fsleX+yaL5vt5UypUsHnQVs96NY8WJm86j1u0VmRQOJA6wA9eC7hppTNc93jeqpi29mdm12jzs9xpG2R2fXayldprRoeohQpWrVKqEOOb6/VKlSQWdX2zcqXjw1HUs4Y2xfk9VXJ8cnFvqTUf+3W39PailZskRGp3EMgZgTIGAdc0NCgxDwlsC+ffvNbJWv5nxjFkmJpHd2fsBIrg12zcI/dgbbnaV9uip0dosTdWgbnOiPE3XQn/RPRCyZONEWJ+pw6pl1oi1O1OFUf/gzGNt/fmJlfGLpmXWiLU7UwZ/B9H92SlsBPy8XDQ7ZZfu27AdkNeB98cUXmB8N+D72+EhZvnyllf/4S7n88oulSeNG9u0cez1yOHWmY7K1wKDmmM6s7Lf+PR2sbNu2XZ57frxZpDzYcTfuy2cFmZ0sja0F/exip5qw30fz1akxzm4bddKQlgLWpJ2MSv4CJ47rbOyolmjXH0bjHR2fGOhPqC5rvvedO1Pz/vv/3RnqfPYjEEsCBKxjaTRoCwIeFChuzYLo1fMGaWAtRKMzV376+RfRlZSzUnQ2hObxi6To1y0TE//1XapfHc3oK2i+E/02AuvQQ9Wt2Rnls7AyvV6zZu06SfKb6eJEHU70J5I6vNafWBrjwLZEMj6Bdeh4OfG8RVJHYFvc3p/AP8dO9CeSOrz2Z9Br/Ql87vkzqAL8fzBVIe1/nfg7JW2NkuHs1MBz3fi+bNnSogE1DcTpDGsnS53ateTxxx6Ubt1vtHJcH5O//vonKgFrOzhYoUJ5eeqJhzPtQr586TN56t8zwx58TBYtWiylSpWUdtaigu2s/Mz6b+aiRYtas2mLyLJly+XOwUMyrZ8TnBdwYoydbNXRI0czrC6z4xle7MKDsTY+0SJMsnKY2x9aZGWR2mi1h3oRyIoAAeusaHEuAghEJKCLnpxzTkfzo8FqDVpr8PqHH342X1nMrFJdFf20U0/O7LQMjl+TwbFwDzlRR7j3yonz6E965VgycaItTtSRXimyPU60xYk6Imt9dK6iP9FxdapWJ8bHiTroj1MC6euJpfFJ3zr2hBbQf1fq4ns6Czrc9U80zcff/6ROYNCgtAZ4QxXNkVylShWzUOH6KC36VqlSRXN7TRVXr15dE4AP1Z5Q+/Xf0xqs1nLfvYOkvRWwDixRnykbeEPe+wScGGNfZdnYqFihgrl6x84dVt70Q1be9OB53+2FGfVkO8CZjdvG/KWxMj7Rhlq+/EQ6oWbNQucwj3Y7qB+BSATSf1QbSS1cgwACCIQpoLnTzjqzvTw4bIjM/PBtedKaVXLhBedKiRLk1AqTkNMQQAABBBBAAIE8LdCqZXPT//nWBAgNRmdWdK2Ahx95Qu4cdJ98NPPTDE83C/RZsxK1lIjP+N+nmoNaSzhtMCce/0+NGtXN1oEDB2Td8RzD/sfD2V52PK+1fuOvbZvWQS/RheVyukRqktPtjPb9nBhjJ9pop0HR53rJkmUhq4x0Yc+QFebQgUift1gZn0CmSPsTWI/9/pu5C8xmlSqVIsr3b9fDKwK5IUDAOjfUuScCCBgB/YS/rfXVxfuH3i0fznhTRj89Qi6/7GIpYy0KQkEAAQQQQAABBBBAIJjAqce/ebdz1y757bc/gp2Sbl+LFs3Mvo8/+Ux2HA9IpzvJ2jH7yzm+bwA2adIw2Cm+fQlWyjst+g1CzX8dbtFZ3GXLljGnT536asjLnh/3svS+8TYZM/aFdOfEx8ebfXrvo0fTB+01GD7n67nprov2jkhNot2unK7fiTF2os06k7jM8Wdt0uRpQWdP6yKdr78R2QL3TrQxO3VE+rzFyvgE9j3S/gTWo+91Rv23335vDp126inBTmEfAjEtQMA6poeHxiGQdwT002RN+3H3XXfIjP97Q557dpRcdeVlUq5c2byDQE8RQAABBBBAAAEEMhU44/RTpWrVKua8cIOy13W52kqHUEC2bNkqg6y8zj/8+HOa+2jg9623/0+eGTPO7NfUIaFmLtsX1qpZw/ctwYceHiEzZ86SDX5pRELNvNYZ3/1vu8lU8/U3801AOjk52a7WBNSnvvKavD/jI1m5cpVoerzA0rhx6mKCe/fulZGjxvrSo2g6h9Wr18rgu4bKpk2bAy+L+vtITaLesBy+gRNj7FSTL7vkQlPVwj/+kvuGDpe169abwPXRo0ettX4WSf8Bd4WVlmaX9QHRWmtNHvtnz569pl4NjNr79HVjDj53kT5vsTQ+/uMcaX/867C3f/zxF9l3fMHWK6+41N7NKwKuESCHtWuGioYikHcE4uLipKU1C0Z/7hx4m+jqxhQEEEAAAQQQQAABBFRA/63YpfNV8uxzL4kGfPv07i6VK1fKEKdJ40YyeNDt8vTo52TV6jUy9P6HrMUJi0jlSpVEZyNvtgLZdoC5RfOT5LFHh1v3yZdhnZojWv+tqgFjDRI/MzY12F2oUCFr1vNRKV26lLz/3utB6zjv3E7y00+/yJdffWPSlHw66wvRNAUHDx40+bPti3QCR7C1XJo2aWzS6n3+xVfWrPCvzU/FihVMX3bt2m3l4a4kIx5/SO4YeI9dVdDXUU8/K/MXpM7CtE9ISUkxm3/++bdcenkXe7d5PbvTmXLX4NvT7PN/kx0T/3pyczsjk99//yNsk+yOsRpk1JZwx+fGPj1Ec1R/MXuO/Pzzb9K9Rz/RXPD6O5Y+bzrb+JnRT0jvPrca9lC5z9948115590Z6YZGPwTq3jP1Axg9WK1aVXnz9SnpzovGjuw8b06Mj9N9yk5//NuiH1y99c7/mV2nnXaKlSu/jv9hthFwhQABa1cME41EIO8K6P+0Qy0OkndV6DkCCCCAAAIIIJC3BS6+6Hx5+533zSzicS9OkBGPPZgpyCUXXyAJ9evJRCs1wi+//CbJySlpUnlowLdd29YyoP/NZjZ2phVaJ2jQq2rVyvKuFchbvWadrLNmr2oQUIsGrjMqwx64T848s51MnDTNClKvN7Op9XydCV7bmuF9U7/eorPJQ5V77h5oBaYry5tvvWcC1Ro41FQhes2gO/uLNW021KW+/Tqze8+ePb73/hsawA88Zgez/c8L3M6OSWBdufHeSZPsjrETbdHfp3RhTk0PogHrJUuXmrQ3+qyc3KqF+dDFTjGTG97ZvWd2nrfsjk922x7s+uz0x65PP5zQ2fP6oVufXt3s3bwi4CqBfNYnL8e0xYmJiZKQkJBp46++pptsT0qSCeOfk0aNUr+GlOlFnIAAAjElMPPjWebrjq3POE1GPvVoTLWNxiCAAAIIIIAAAgjErkAs/T74zz//yh133mtmM48e9bjoTMJwi6Y3WLdug2zYuMnMhNbcsaVLlQr38pDn6cxqnbGtEy4KHF+UMeTJfgf0Gk2nEBeXX2rWrJ6la/We661UJDpjtnatmmnSO+hie1oymy3u1xTHNyM1cbwhuVxhdsbYyabrhxDbtidJrZo1c/W5cLJP/nVF+rzFyvj490W3s9qfvXv3SfdeN8mOpB3So/v10q9vr8AqeY+AKwSYYe2KYaKRCCCAAAIIIIAAAggggAAC/gInndRE+t7YUz786BN508o/fcopJ4cdgCtlBaf1p2nTxv5VZntb05UULVo0y/UULlxY6luzvyMpes8a1asFvTQ3A9V2gyI1sa/3ymt2xthJgxIlSvhyrztZb6zUFenzFivjE+iY1f7o5LSCVp58TSWk6ZIoCLhVgIC1W0eOdiOAAAIIIIAAAggggAACeVyge7frRH8oCCCAAAIiXW/obH6wQMDtAnFu7wDtRwABBBBAAAEEEEAAAQQQQAABBBBAAAEEEPCGAAFrb4wjvUAAAQQQQAABBBBAAAEEEEAAAQQQQAABBFwvQMDa9UNIBxBAAAEEEEAAAQQQQAABBBBAAAEEEEAAAW8IELD2xjjSCwQQQAABBBBAAAEEEEAAAQQQQAABBBBAwPUCBKxdP4R0AAEEEEAAAQQQQAABBBBAAAEEEEAAAQQQ8IYAAWtvjCO9QAABBBBAAAEEEEAAAQQQQAABBBBAAAEEXC9AwNr1Q0gHEEAAAQQQQAABBBBAAAEEEEAAAQQQQAABbwgQsPbGONILBBBAAAEEEEAAAQQQQAABBBBAAAEEEEDA9QIFstqDrl27SHJyslSoWD6rl3I+AgjEiEDjRg2lX99eUq1a1RhpEc1AAAEEEEAAAQQQcIMAvw+6YZRoIwIIIIAAAu4WyHfMKtqFxMRESUhIcHdvaD0CCCCAAAIIIIAAAggggAACCCCAAAIIIICAawVICeLaoaPhCCCAAAIIIIAAAggggAACCCCAAAIIIICAtwQIWHtrPOkNAggggAACCCCAAAIIIIAAAggggAACCCDgWgEC1q4dOhqOAAIIIIAAAggggAACCCCAAAIIIIAAAgh4S4CAtbfGk94ggAACCCCAAAIIIIAAAggggAACCCCAAAKuFSBg7dqho+EIIIAAAggggAACCCCAAAIIIIAAAggggIC3BAhYe2s86Q0CCCCAAAIIIIAAAggggAACCCCAAAIIIOBaAQLWrh06Go4AAggggAACCCCAAAIIIIAAAggggAACCHhLgIC1t8aT3iCAAAIIIIAAAggggAACCCCAAAIIIIAAAq4VyHLA+t4hw+TmWwbKqtVrXNtpGo5AXhdYsOB78+d43Asv53UK+o8AAggggAACCCCQBQF+H8wCFqcigAACEQjw+3oEaFziOYECWe3R8mUrZXtSkqQkp2T1Us5HAIEYEdixc6csXrJUypQpHSMtohkIIIAAAggggAACbhDg90E3jBJtRAABNwvw+7qbR4+2OyWQ5RnWTt2YehBAAAEEEEAAAQQQQAABBBBAAAEEEEAAAQQQ8BcgYO2vwTYCCCCAAAIIIIAAAggggAACCCCAAAIIIIBArgkQsM41em6MAAIIIIBA9gSOHDkiy5avyF4lXB1UYNOmzbJz166gx9iJAAIIIIAAAggggAACCCAQPQEC1tGzpWYEEEAAAQSiJrBz5y65tksP6dtvgPS7+XY5evRY1O6V1yqeNv0Nub5rH7m2c3f5+pv5ea379BcBBBBAAAEEEEAAAQQQyFWBLC+6mKut5eYIIIAAAnlW4MCBA3LgwEEpWbKEJww0wLxx40ZZu269rFu7XvYnJ0uhQgWlWNFi0qbN6VKhQvkM+zlv/reSlLTDnLN06XL5J/Ffad6saYbXcDA8gQ9nfirHjh2TQ4cOy8effCZndzozvAs5CwEEEEAAAQQQQAABBBBAINsCBKyzTUgFCCCAAALREkj8d5G8996HJu3F+vXrzSziMmVKS62aNaRz56ukfbs20bp1VOvVQPMjjz0lf/zxV9D7jCj3YKYB65YtmvuujY8vLgkJ9Xzv2cieQKsWzXwzq1u1POGcvVq5GgEEEEAAAQQQQAABBBBAIBwBAtbhKHEOAggggECOCujs47feflemTH1NNE+zf9mxY6fozx9//i0dOrSV/w29W4oVK+Z/SkxvHz582KTw2L49yZpRXUgaN25oZkaXLVvGzOhNtmZaV69eLdM+1KpVQ6ZPmyALF/4pHdq3laJFimR6jZdP+O77H2Wq9bzEl4iX58aOzFZX77eeqbZtW0sJq67TTzs1W3VxMQIIIIAAAggggAACCCCAQNYECFhnzYuzEUAAAQRyQGDa9Ndl+qtvmjtVrVJZrrzyMjODuLAV4NVFBt96+z0rncZmWbDge5lQrqwMvnNADrTKmVv8998S0WC1loeGD5X27SOfJV67Vk3RH4rI7t17zLNRqlTJbHPoBwnnndsp2/VQAQIIIIAAAggggAACCCCAQNYFCFhn3YwrEEAAAQSiKKCzp999b4a5w8knt5RHH/6fNdP1RN7qpk0by/nnnyP3/+9hM7v4o48+lfPPPVt0vxvKX38nmmZqIL5du9ZuaDJtRAABBBBAAAEEEEAAAQQQQCDHBOJy7E7cCAEEEEAAgTAEXn3tLUlOTpH8+fPLkHsHpQlW25dr+ov7h9wlRYoUNovjLfj2e/tQhq+HDh2S/fv3Z3hOuAcjrWfv3r3mFuXKl5N8+fKFe7scO09TsGzYuEmWL19pZi1nduODBw8GPSUl5YAZm6AH88hOHeujR4860ttInzdHbk4lCCCAAAIIIIAAAggggEAOCjDDOgexuRUCCCCAQOYCv//+hzmp41ntpXLlSiEvqFSpojRu1FAWWgsXrlixKuR5mzZtlrfe+T9ZMP97SdqxwwRRNed1S2thvc7XXik6iztUuWPgPSZoe+fA28x5c+bMlW+/+0EWWvmzd1gLJ5YrW1ZOOaWl3D7gZilVqlTQamZ+PEtmfTbbd2zL5q1me9myFXJr/0G+/f4bt93SV1pY7fMvU195TebN+9Z/l2+7WbOmcs/dA33vQ2307nNruiDyRRedL9dfd41s2bpNXrHuMfvLr0XzbGvRgPpLL46RJo0bmfcffvSJfPDBx3KulS7j7E5nyrgXJsgvv/4utWvXkn439pQ2bU6Xf/75V6ZOe81aUPJvKVq0iPTofr1V/7Xm+mD/0YUnv5g9R5YuWy5r1qyTUiVLSNWqVeRiq13nnXeOxMUFD+r/buXunjjpFV+VO3fuNNt79+4L6lqkcGF5Nkhua53RP2jwEF89gRvDhw+R+vXqBu4O+V778vEnn8nixUtFg/lxcXFSxZpNf+45HaVL56tFF8gMVZx43kLVzX4EEEAAAQQQQAABBBBAwC0CBKzdMlK0EwEEEMgDAseOHZONVoBZS4MGCZn2+NJLLjQLFJYpUzrouTpTeOCd98pWKxhrFw3C6mzV73/4SX786RcZ9sB9cs7ZZ9mH07yuXbfeLPC4b99+0cDzM2PGpTm+PSnJBHh//uV3mTrlRRPATnOC9Wbbtu2yaNHiwN3WLPLkoPv1xD3HZ2H7X6T1rFq9xn+Xb7tCxQq+7Yw29Ho19i87rCD+zp27RIOlGtz3L3rukcMnFr3ctWu3aYPm4B777IsmWK3nL7OCzSNHPytTJr0gjz4+UjZv3mKq0eDx+JenSMOGDaRVy+b+VZvFNCdPmS5vWx8m6CKbdtmy9YAJnuuimrM+/1LGjH7CzLa3j9uvmrM6mKvOEA+2P1SgWIPzoVz1XgcOHLBvmenrxEnT5I033/Gdp8+azrBev36Dycn+qxXcH/30iJCLhDrxvPluzgYCCCCAAAIIIIAAAggg4FIBAtYuHTiajQACCHhRQGdA2wHCimEEYXWmr/4EKxo0vXPQfSZYXd5Kv6GzpFs0P8lKI1JElq9YKZMmTxedzT3iiadNQFRndIcqP/z4swlMd+l8lZxjzZStWqWKbNmyRT748BP55NPPrYDvTpky5VW5z0phEliuuOIS6dC+rW/3jA9mmhnXdaxZyQ/8717ffv8NnZEbWPrfdpP069srzW4N+H4664s0+zJ689Xsmb7D9z/wsPz882/m/UvjJ5lgdf369eRUa8Z43bp1xIpsm0BuyZLpFzH8Zu4CadmymUx75WX599//5KXxk82M8xv7DrBmI9eRxx8dbs2WXisvvDTRBPx11nZgwPora7b6m2+9Z+5/xeWXSCdrxnZC/bqSaNU3f/53ltEX1iztv0RTxPTp3d3XbntD2zl54gv2W/MBhM5C11nd454b7dtvb+hM52ClXLly8sH7qQt82sc1lUePXjfbb8N61XvbwerLLr1Irr7qcqlZs7okWTPxv/v+R5kwcarp231DH5SnRz0umtYmVMnO8xaqTvYjgAACCCCAAAIIIIAAAm4RIGDtlpGinQgggEAeENi65cRM6LIhZk2Hy/D6G+9YQeWtVqqOkjJ18otpUnZoiotnnn5Chg1/1AQTn33+JckoYK1BYZ2JfZ5fcLyklbri3nvuNClD5i/4TjQAq+8D81Jr2hD9sYs9G7yIFVhNSKhn7870NXWGcNp0Ehp8z0opUODE//bj8qUGcHX2+IJvf5CePW6Q3r26BZ3NHHiPlJRkGfa/+6RgwQKigfffrMC/pkvRwP39Q+8W/YCgQYP68reVHkTTiATO3Nb6dL+m++h4Vge5a/Dtvluccfqpoj8FCxa0PhD4WEXGYmYAAEAASURBVOZ8PS9owDo+Pt7yi/ddt2z5CrOtgemsuGobypYt46tHN7RfWSk60376q6lB7149u8qNfXr4LtcPXq668jKTvua2AYPkb2vRzdlW2hAN0ocq2XneQtXJfgQQQAABBBBAAAEEEEDALQLBpxu5pfW0EwEEEEDAUwJHj51YoC5fiBmx4XZYg6Vaune7Lk2w2r5eA5U6a1kDzJqPWtOHhCrNrRzR/sFq//N0Nq0WnRmus2ndVjTfcof2baSvlYNaF7oMpzQ7qWmaoG5z672WGjWqm2C1XUezk5qYzX1WapDAMv7FsfLNnFny0IP3Bx4y7zVorUXTaYRa2NGcEAP/0bzdWspYge+uN3QJ2qJGjRpYeaxTvw2QmLgo6Dn2Ti8/b3YfeUUAAQQQQAABBBBAAAEEQgkQsA4lw34EEEAAAdcKaO7k1atXm/a3bJE2d7J/p6pXryrlyqXOfs4oiKiLGoYqVaqcWBhSZ3S7reisaw1WZ6VUqZo2ZYmdHzpwkcwS1iz0SEvx+OLmUs0Brfm+Y7nYAevGVq7uIkUKh2yqvZDmP5kErL38vIXE4QACCCCAAAIIIIAAAgggcFwga9959WMbM/YFa9Ggon57xCygtHLVGt8+nalVp3ZN3/twN7ZYi2PpYkp2qVChnJQKkkPTPh7sNbCOSNqiCzdltz+BdWhbnehPJHUEtsUJE/qT+vQFPm+RjE9gHU6MT6g6tlkLplEQ8LLAcis9hL2QX9WA4Gpgv6tVq2oWRlyyZGnIWdQZ5dMuVryYr0r/GeK+nTG+oXmWK1WqmGutXL16rfz332Lr/7erZZf1/35dEDN5f7Lowo5uKUuXLjdNDedZ0xN11rimYinu9+z499XLz5t/P9lGAAF3C/D7YPjjF/jv/Fj/XSGjngX+TqnnOtGfSOoIbEuo333c0p/A58SJ/kRSh3oFtiWS8QmsI5K2ODHGbuwPv69n9KeWY3lFIOKA9WLrF/twysI/doZzWobn7NlzInid4YmZHHSiLU7U4UR/nKhDuehP+ofGCVsn6nBqfJwY4/RK7EEgOgKlS5f2VZydP0eHDh/21VOoUCHfdrCNQlauZC0HDx0KdtjsC8xLHfJEFx6oWrVKrrR627bt8tzz40Xzf7u92M9buM+a9vfQ4bz5vLl9rGk/AgicEOD3wRMWWd3Kzr9x/O/lxL/znajDif44UYfa0B//JyR1O1ZMnBof+pN+jNmDgBcFshyw7tu3p6SkpAS1OHTosCQmpuZx1BN0waSmTRsHPTejnWvWrpMkv5lV1atXS5MTM6Nr7WOBdUTSFif6E1iHts+J/kRSR2BbnDChP6lPXODzFsn4BNbhxPhkVkfg1/dTe8N/Ecg9gUrWAnW6aJ6mgdhqfdsm0qJ12EVnZmRUDh8/nj8uvPzNGdXlxmMVypfP8Wbr/4+GPfiYLFq02CyK2a5dG2nX5gypVauGFC1a1EqrUUSWLVsudw4ekuNti+SG+Y8/b+E+a3oP+5pI7sc1CCCAQG4K8Psgv9/6/86vz6ITv/tEUke4v99q6q6vv5kvtWvVlMsvvzjNH5/AOnKzP7nx+2AaDL83gW2JZHwC68jsd1O/2/s2A8cnkjq0ssC2uKU//L7uexTYyIMCWQ5YX3LxBZkwXZPJcbcddqI/TtThlJsTbXGiDvrjlED6emJpfNK3jj0IZCSgXxWsVKmCbNy4WdasWZfRqebYk089I1/MniOa1uLVaRN959epXcu3vWnTZqlTp7bvfeDGZuu4ltoRpLAKrMuN7/2D+znV/p9+/sUEq/V+9907SNpbAevA4qZZ7bWt5+3Pv/6RTZu2BHYjzXt9FrWUK1tWSpSIPL93mkp5gwACCOSwAL8P5jC447dz4ncFJ+pwqmOZt0WDnBqw1uDfNVdfEeTGmdcR5KIY3kV/YnhwrKZ5bXxiW5vWuVfgxBQ09/aBliOAAAIIeEigfv16pjdffvWNyWecUdcWWbmPjx07li4Hc5kypaVqldSFAf9bHDqF1a5du2TT5tQgY7OTmmR0K445KLBs2QpTW/ny5aRtm9ZBa17035Kg+0Pt1MUjtWQ2yznU9dnZb3+bbOnSZb7c6cHqW3z8WTyJZy0YD/sQQAABBBBAAAEEEEAAASNAwJoHAQEEEEAgpgR6dr9BdHat5jKc/uqbIdv28SefiS7Yp+XMDu3SnWcHBV+16tCvEwYrU1953aQfiY8vbqWjODErO9i57HNOID4+3lSWknLA8k+fsuXAgQMy5+u5WbphQkLqBx1apy7gmJPF/rBjw8ZNMuuzL4LeesuWraLPrJaTTsr618mDVspOBBBAAAEEEEAAAQQQQMCDAgSsPTiodAkBBBBws0CDBvXl7E5nmi68/c778vAjT8ry5St9M2e3JyXJxEmvWAv2vWTO0UDleeeena7LV191ucmHrEHEOwffJ+vWbfCdk5ycLM+Pe1k+/OgTs6/rDV2s3Nn5fMfZiK5A48YNzA327t0rI0eNlRUrVpn3OlteP4QYfNdQK71GavqMcFtSq2YNX5qNhx4eITNnzpINGzb6Lo/mzGtduLJTx9Rn9tnnXpIZH8yUw34Lf2q6kIGD7pWDBw9KlSqV5JyzO/raxQYCCCCAAAIIIIAAAggggEBagSznsE57Oe8QQAABBBBwXmDgHbdJ0o6dsnDhn/LN3PnmR/MPFi5cSPbu3ee7YbNmTeWpJx6xFukr7NtnbzRu3FBGPvWoDBk63FoQeJF069FXypQtI8WLFTWBzKNHj5lTe/XsKt26drEvi9nXUU8/K/MXfJ+mffYiyL///odcennaPmjQ/67Bt6c5/5kx4+Q361wt69enBvDfn/GR/PjTL2nOGz3qcdEgbLRK0yaN5cILzpXPv/hKZn/5tfmpaC24qTOrd+3abYK6Ix5/SO4YeE/YTdBZ+XcOvM0EwDXo/czYcebaQoUKmVn0pUuXkvffez1dffpBxq39B6XZr4Fzu9xz7zDR3Or+ZcqkF9KloRk+7D7zocr8Bd9ZH6aMlxdfmiTVqlWR7dYi0vYzq318dsxIKVeurH91bCOAAAIIIIAAAggggAACCPgJELD2w2ATAQQQQCA2BDS4OGb0k/LW2+/Jm2+9ZwX89lppPQ6ZH22hBiE1IDt40O1Bg9V2L1o0P0lGjXxcJk+ZLn/++bfsSNphfvS4znTt0vlq0ZnYbig6K1zTpAQrOns48JgdzPY/f9u27b5Atf9+O3ht7wuVQsU+7sTrPXcPtMagshlfDVRrygxNFXLG6afKoDv7i5UXJsu3Oe/cTlagvbK8++4MWW0t2rlu3Xozq1kr0mcmWNGUJIF2/uft37/f/63ZPnL0aLp9GtR+6MGhMmnyNPn8869kp5Uf3U5Zo/m127Q5XfrfdpNZ8CndxexAAAEEEEAAAQQQQAABBBDwCeSzZhGZaUSJiYmSkJDgO8AGAggggAACsSKwZes2WW4t1LfbCthWqFBeGjZIkOLFi2WpeRpA3LJ5qwlgah0621Vn5VJyV+CoFfxdb6Xu0BQatWvVTDMm9iz4SNO1aN0aDNfZ+faijDnRW+3LZmsxz23W7OoSVhC+cuWKUqxY1p7XnGgn90AAAQQQQCAvCMz8eJbot8xan3Ga+fZdXugzfUQAAQTcLsAMa7ePIO1HAAEE8oBARQ0wWz/ZKaVLlRL9ocSWQFxcnNSoXi1ooyINVNuVad1Fixa13+bYqwbHq1Wran5y7KbcCAEEEEAAAQQQQAABBBDwiACLLnpkIOkGAggggAACCCCAAAIIIIAAAggggAACCCDgdgEC1m4fQdqPAAIIIIAAAggggAACCCCAAAIIIIAAAgh4RICAtUcGkm4ggAACCCCAAAIIIIAAAggggAACCCCAAAJuFyBg7fYRpP0IIIAAAggggAACCCCAAAIIIIAAAggggIBHBAhYe2Qg6QYCCCCAAAIIIIAAAggggAACCCCAAAIIIOB2AQLWbh9B2o8AAggggAACCCCAAAIIIIAAAggggAACCHhEgIC1RwaSbiCAAAIIIIAAAggggAACCCCAAAIIIIAAAm4XIGDt9hGk/QgggAACCCCAAAIIIIAAAggggAACCCCAgEcECFh7ZCDpBgIIIIAAAggggAACCCCAAAIIIIAAAggg4HaBAm7vAO1HAAEEEEAAAQQQQAABBBBAAAEEggk0btRQ+vXtJdWqVQ12mH0IIIAAAjEoQMA6BgeFJiGAAAIIIIAAAggggAACCCCAQPYFEhLqif5QEEAAAQTcI0BKEPeMFS1FAAEEEEAAAQQQQAABBBBAAAEEEEAAAQQ8LUDA2tPDS+cQQAABBBBAAAEEEEAAAQQQQAABBBBAAAH3CBCwds9Y0VIEEEAAAQQQQAABBBBAAAEEEEAAAQQQQMDTAgSsPT28dA4BBBBAAAEEEEAAAQQQQAABBBBAAAEEEHCPAAFr94wVLUUAAQQQQAABBBBAAAEEEEAAAQQQQAABBDwtQMDa08NL5xBAAAEEEEAAAQQQQAABBBBAAAEEEEAAAfcIELB2z1jRUgQQQAABBBBAAAEEEEAAAQQQQAABBBBAwNMCBKw9Pbx0DgEEEEAAAQQQQAABBBBAAAEEEEAAAQQQcI8AAWv3jBUtRQABBBBAAAEEEEAAAQQQQCDPCNw7ZJjcfMtAWbV6TZ7pMx1FAAEEEBApAAICCCCAAAIIIIAAAggggAACCCAQawLLl62U7UlJkpKcEmtNoz0IIIAAAlEUYIZ1FHGpGgEEEEAAAQQQQAABBBBAAAEEEEAAAQQQQCB8AQLW4VtxJgIIIIAAAggggAACCCCAAAIIIIAAAggggEAUBQhYRxGXqhFAAAEEEEAAAQQQQAABBBBAAAEEEEAAAQTCFyBgHb4VZyKAAAIIIIAAAggggAACCCCAAAIIIIAAAghEUYCAdRRxqRoBBBBAAAEEEEAAAQQQQAABBBBAAAEEEEAgfAEC1uFbcSYCCCCAAAIIIIAAAggggAACCCCAAAIIIIBAFAUIWEcRl6oRQAABBBBAAAEEEEAAAQQQQAABBBBAAAEEwhcgYB2+FWcigAACCCCAAAIIIIAAAggggAACCCCAAAIIRFGAgHUUcakaAQQQQAABBBBAAAEEEEAAAQQQQAABBBBAIHwBAtbhW3EmAggggAACCCCAAAIIIIAAAggggAACCCCAQBQFCFhHEZeqEUAAAQQQQAABBBBAAAEEEEAAAQQQQAABBMIXIGAdvhVnIoAAAggggAACCCCAAAIIIIAAAggggAACCERRgIB1FHGpGgEEEEAAAQQQQAABBBBAAAEEEEAAAQQQQCB8AQLW4VtxJgIIIIAAAggggAACCCCAAAIIIIAAAggggEAUBQhYRxGXqhFAAAEEEEAAAQQQQAABBBBAAAEEEEAAAQTCFyBgHb4VZyKAAAIIIIAAAggggAACCCCAAAIIIIAAAghEUYCAdRRxqRoBBBBAAAEEEEAAAQQQQAABBBBAAAEEEEAgfAEC1uFbcSYCCCCAAAIIIIAAAggggAACCCCAAAIIIIBAFAUIWEcRl6oRQAABBBBAAAEEEEAAAQQQQAABBBBAAAEEwhcgYB2+FWcigAACCCCAAAIIIIAAAggggAACCCCAAAIIRFGAgHUUcakaAQQQQAABBBBAAAEEEEAAAQQQQAABBBBAIHwBAtbhW3EmAggggAACCCCAAAIIIIAAAggggAACCCCAQBQFCFhHEZeqEUAAAQQQQAABBBBAAAEEEEAAAQQQQAABBMIXIGAdvhVnIoAAAggggAACCCCAAAIIIIAAAggggAACCERRgIB1FHGpGgEEEEAAAQQQQAABBBBAAAEEEEAAAQQQQCB8AQLW4VtxJgIIIIAAAggggAACCCCAAAIIIIAAAggggEAUBQhYRxGXqhFAAAEEEEAAAQQQQAABBBBAAAEEEEAAAQTCFyBgHb4VZyKAAAIIIIAAAggggAACCCCAAAIIIIAAAghEUYCAdRRxqRoBBBBAAAEEEEAAAQQQQAABBBBAAAEEEEAgfAEC1uFbcSYCCCCAAAIIIIAAAggggAACCCCAAAIIIIBAFAUIWEcRl6oRQAABBBBAAAEEEEAAAQQQQAABBBBAAAEEwhcgYB2+FWcigAACCCCAAAIIIIAAAggggAACCCCAAAIIRFGAgHUUcakaAQQQQAABBBBAAAEEEEAAAQQQQAABBBBAIHwBAtbhW3EmAggggAACCCCAAAIIIIAAAggggAACCCCAQBQFCFhHEZeqEUAAAQQQQAABBBBAAAEEEEAAAQQQQAABBMIXIGAdvhVnIoAAAggggAACCCCAAAIIIIAAAggggAACCERRoEAU66ZqBBBAAAEEEEAAAQQQQAABBBBAICKBrl27SHJyslSoWD6i67kIAQQQQMCdAvmOWUWbnpiYKAkJCe7sBa1GAAEEEEAAAQQQQAABBBBAAAEEEEAAAQQQcL0AKUFcP4R0AAEEEEAAAQQQQAABBBBAAAEEEEAAAQQQ8IYAAWtvjCO9QAABBBBAAAEEEEAAAQQQQAABBBBAAAEEXC9AwNr1Q0gHEEAAAQQQQAABBBBAAAEEEEAAAQQQQAABbwgQsPbGONILBBBAAAEEEEAAAQQQQAABBBBAAAEEEEDA9QIErF0/hHQAAQQQQAABBBBAAAEEEEAAAQQQQAABBBDwhgABa2+MI71AAAEEEEAAAQQQQAABBBBAAAEEEEAAAQRcL0DA2vVDSAcQQAABBBBAAAEEEEAAAQQQQAABBBBAAAFvCBCw9sY40gsEEEAAAQQQQAABBBBAAAEEEEAAAQQQQMD1AgSsXT+EdAABBBBAAAEEEEAAAQQQQAAB7wncO2SY3HzLQFm1eo33OkePEEAAAQRCChQIeYQDCCCAAAIIIIAAAggggAACCCCAQC4JLF+2UrYnJUlKckoutYDbIoAAAgjkhgAzrHNDnXsigAACCCCAAAIIIIAAAggggAACCCCAAAIIpBMgYJ2OhB0IIIAAAggggAACCCCAAAIIIIAAAggggAACuSFAwDo31LknAggggAACCCCAAAIIIIAAAggggICnBI4cOSLLlq/wVJ/oDAK5IUAO69xQ554IIIAAAggggAACCCCAAAIIIIAAAp4R2Llzl/Tpe5skJe2QhIR6MvHlcRIXl88z/aMjCOSkADOsc1KbeyGAAAIIIIAAAggggAACCCCAAAIIeE5g3vxvTbBaO7Z06XL5J/Ffz/WRDiGQUwLMsM4pae6DAAIIIIAAAggggAACCCCAAAIxL/DUyDGydeu2sNpZo0Z1GXRn/7DO5aTsCXzxxVcy+8uvs1xJtWpV5a7Bt2f5uqxe0LJFc98l8fHFzSxr3w42EEAgSwIErLPExckIIIAAAggggAACCCCAAAIIIOBlgb//SZR16zaE1cW9+/aFdZ6XTvru+x9l6tTXJL5EvDw3dmSOdW39ho3y628Ls3w/TdWRE6VWrRoyfdoEWbjwT+nQvq0ULVIkJ27LPRDwpAABa08OK51CAAEEEEAAAQQQQAABBBBAAIHsCDRt0khatz49wyrKlyub4XEvHty9e49ZWLBUqZI52r2TW7WQAgXSh7F+/uU3+fvvRClZsoR0vvaqdG0qU6Z0un3R2lG7Vk3RHwoCCGRPIP2f9OzVx9UIIIAAAggggAACCCCAAAIIIICA6wUaNWooPXvc4Pp+eKUDLVs2F/0JLHv37jUB6xIlSjBegTi8R8ClAiy66NKBo9kIIIAAAggggAACCCCAAAIIIJC3BA4fPiw6w9mJkpySIkePHnWiKk/WceTIEdmwcZMsX77SMfNwoA4dOhTOaRme40QdegMnnzf/BuuHDOqqqXd4Bv1l2LYFmGFtS/CKAAIIIIAAAggggAACCCCAAAIIZFNg7rxv5ZVXXpN8+fLJ8889bVJVhKryiSdHy+LFS6VFi2YhFwY8ePCgvPPuDNFFB9dv0ADfMSlUqJBoypLrulwjbdqETlsy5+t58uqrb0qNmtXl8UeHy5YtW+XDjz6RhX/8Jf/9t0Ty588vtWrWkO7dr5NOHc8M2szfrZzMEye94ju2c+dOs7137z65tf8g3357o0jhwvJsDua2tu+bldfefW6VY8eOpbnkoovOl+uvu0a2WAtu6vjpAo8asNWiY/nSi2OkSeNGvmumWufMs8Y6WGnWrKncc/fAYIeC7tPg7ZdffW3GZcmSZVKhQnlpaT0TF5x/rpxySkt57vnx8vvvf8iZZ7aTvjf2jFodWnF2njd9tj744ON07Zs44XkpbD0XaqrP49p1633ntD7jNBn51KO+92wgoAIErHkOEEAAAQQQQAABBBBAAAEEEEAAAYcEWrZsJuvWbzDBzgXffi+XXHxB0Jp37dplBSm/MTNMu97QOeg5hw4dlmHDH5Offv7VHNfAafHixWTfvv0muPnHn3/Lg8OHytmdggeb9+zZI6tWr5H8BfKLzmq9574HZPXqtb576ezWZctXyMOPPCkrVqwKGgzVGd2LFi32XWNv6AzkYPvj44vbp8Tsq5oEBqx37NghukDjHQPvkU2bNqdpu5575PCRNPu2bdtubNPsPP6mQsUKwXYH3af+dw66zxqfEwt4bt68Rb6YPUe+/ma+PPP0CCuIvtXcq8n2xlGrQyvO7vO2a9fuoCZHLb+33v4/eXnClHTtP3Q4+zPK01XKDtcLELB2/RDSAQQQQAABBBBAAAEEEEAAAQQQiBWB0qVKyRmnnyrfff+jfDN3QciA9bz535lgddGiRczM2cD26+zehx4eYYLVusDh4EEDRGejFi1a1MwCnjr1Vfns8y/liSefFl1YsFWQ/M52nSkpB2T4QyPM7Gydad2wUQPJZx1MTFwkL7w0UbZas4rfevs9uejC86Rq1Sr2Zeb1VGuG7+SJL/j2ff/DT6Kzi7Xd454b7dtvb8TFxX722a9mz7SbK/c/8LD8/PNv5v1L4yeZYHX9+vVE+123bh2xItsmCFuyZNpFJvvfdpP069vLV49uTJ4yXT6d9UWafRm92WgFxu+9b5gJVhcpUtjUp2NcunQpWbFytbz2+tvygPWBhS4oGao4UYfW7cTz1qP7DdKtaxfTVJ3BP+COu832eusDnAkTp5pvBnQ8q72ob8WK5SUpaYc1o5uAtUHiP2kECFin4eANAggggAACCCCAAAIIIIAAAgggIJKcnGxSaGRkoYFFTc8RWC644BwTsNY0DjrrVAPOgWXuvAVmV4f2bU0QOvD477//aerQWdWjR42QBg3q+06paKWMGDrkLjlo5TueM2eujHvhZZk6+SXf8cANDRgWLlxIpkx6waRmsI937NhBatSoLn1vGmBm12o6k8DZ3vHx8ZKQEG9fYmZk6xsNTCck1PPtd9NGgQInwmFx+VID7DprfcG3P5iFG3v36mbSpWTUp9SZ5GlnkxcpUiSjS9Id++STz0zQNi4un4wd81SalCMtmp8kzUc+Jo+NGGXGON3Fx3c4UYdW5cTzpv2Ii0u19Tf+/POvzHP28IP3S7161ocAFAQyETjxJzSTEzmMAAIIIIAAAggggAACCCCAAAII5BWBWZ/NFv3JqDw98nE5/fRT0p3Sts0ZUqJECdGUHJoW5NJLLkxzjqYDWbjwL7PvggvOTXPMfvNP4r9ms337NmmC1fZxfe1jBVY1YL1q1RqTezhY8Nw+/44Bt6QJVtv7NYDYuHFD+fff/2TDho327jz3+rEVPL7g/HOCpkWJFsa/x1OtnHfu2WmC1fb99MOKAdZMbs2VbefTto/Zr07UoXU5/bzZ7dPXGR/MlOnTJkiN6tX8d7ONQEiB2P+eRsimcwABBBBAAAEEEEAAAQQQQAABBBCIPYGCBQtKp04dTMO+sfIQBxY7HUi5cmXl5FYtAw+b93/9nWheGyTUD3pcd1a3AoC6mJ3mk9ZcyKGKznxt2jR4/mO9pkrlSuZSXZQxrxadERxqQcNomGhe7MWLl5iqm1uzqUMVfUYC07TY5zpRh12Xk8+bXaf9qnncCVbbGryGI8AM63CUOAcBBBBAAAEEEEAAAQQQQAABBPKUwDVXXyED77g14j5fcN45MnPmLLM44k5rRrXmtraLnQ5EZ9ZqMDlYWbFipdmtaUU012+oUsBaUPHAAZGlS5cHnaWr15Wy7q2B7VClePHU1Ba6OF5eLTVrVpdKlSrmWPd37NhpFs/UG1atUjnD++rxNWtOLJZpn+xEHXZdTj5vdp3262mnnWxv8opAWAIErMNi4iQEEEAAAQQQQAABBBBAAAEEEEAgfIGTTmpiZsZqmo0FC76Xyy69yFycJh2IlYIiVNFZ01oW/vGX+Ql1nr1///5kezP9q5VagpKxQKhZzBlfFfnRY3Liw4H8+fNnWJF/Pmj/E52ow67P0efNrvT4a07bBtyety4UIGDtwkGjyQgggAACCCCAAAIIIIAAAgggEPsCmhP5lWmvyzdz5/sC1nY6kPr160ndurVDdsIOYvbr20vatD4t5Hn2gfLly9ubvEYgUCEX/Y4cPZphi0Plr/a/KLt1RPN5y01bfyO23SNAwNo9Y0VLEUAAAQQQQAABBBBAAAEEEEDARQLnHw9Y6wKLOrNaU3PY6UAuOP/sDHui6Sl27dotGkjU4DYlugJxcTm7zFuZ0mWkaNGikpycLBs3bhJp1SJkBzdt2hz0mBN12BVH83kLlfbGvjevCAQK5OyfxsC78x4BBBBAAAEEEEAAAQQQQAABBBDwqIDmHm7erKkctWbQzpv3nQlaa/Bag6PnntMpw17XqFHdHM9oMcUMK4jSQTs9hZ1CIkq38Xy1GsRt2KC+6effxxfYDNZpzVO9fsOGYIdM/vPs1mFXHKvPm90+XvOWAAHrvDXe9BYBBBBAAAEEEEAAAQQQQAABBHJQ4LzzUmdSf22lBbHTgZx26slStmyZDFvRzMqBrWXu3AWycuUqsx34n5WrVkvfm26X3jfeFvKcwGuy+z4hIXW2d0rKAdH7UyIXaNy4obn4i9lzZMmSZUErennCFDl06HDQY7rTiTq0nlh93rRtlLwnQMA67405PUYAAQQQQAABBBBAAAEEEEAAgUwEkpJ2yL+L/svwJ5yA7dmdzpSCBQvKn3/+LTNmzDR31dzWmRVdpLFWrRqiM5nvG/pgmoUXdd+iRYvl/v89JMuWLZdixYpKnTq1M6vSkeO1ataQEiVKmLoeeniEzJw5S3RhSbsw89qWyPz1kosvkJIlS5gZ+HcOHiIfzfxUtmzZKgcPHpTFS5bKA8MfNR9ylC9fLmRlTtShlcfq8xay4xzwtAA5rD09vHQOAQQQQAABBBBAAAEEEEAAAQQiEdCFEvUno9KoUQOZMP65jE6R+Ph4adeudepMaWtGcrFixaR9+zYZXqMHNfXGffcMkgeGPWqCmIOsgGbp0qWlcuWKsnr1Giv3cYqpQ3MPDxrYP9P6nDohX758cufA22TkqLFWO9bKM2PHmaoLFSpkAq+lS5eS99973anbRaWeZ8aMk99+/8PUvX59arqN92d8JD/+9Eua+40e9bhUrVolzT77zainn5X5C76335rXlJTUMfndqvvSy7ukOaYfXNw1+PY0+zQNx5MjHpa77vmf7N+/X8aMfSHNcX0GnnryEXn//Y9k27btaY7Zb5yoQ+ty4nnTD3D0edViu+p21+59fR9y6PvWZ5wmA++4VTcpCAQVIGAdlIWdCCCAAAIIIIAAAggggAACCCCAgDMCOqNaU3to6XhWeylcuHBYFZ9kpQWZPn2CvPTSJPn2ux9k586d5kcvLmOlFGnftrXcdms/KV68WFj1OXXSeed2sgK5leXdd2fI6jXrZN269WZWsNavgetYLxr89Q+o2u0N3JdRKg5dLHHPnj32pWledZZ54DE7mJ3mROuNjvEzT4+Q2V9+Lb/+ttDMVi9tLc7ZrHlT0dnTmj5GA9YZFSfq0Pqz+7wdOngoqOvu3XtEf+yi316gIJCRQL5jVtETEhMTJSEhIaNzOYYAAggggAACCCCAAAIIIIAAAgjkiMDV13ST7UlJZgazzmSmiJllu2nTZqlevZo127pUzJDoopIHDhwwqU/sRRljpnEua8iuXbtNmhCdyW6Xm28ZaFKE9L2xp/TscYO9O+SrE3Vo5RrYj8XnLWTHOeAZAWZYe2Yo6QgCCCCAAAIIIIAAAggggAACCHhZQHMZZ5TPOLf6HhcXJ0WLFs2t27v2vj/88LNs3bZN6tSuJc2aNTX9KFWqZJr+7N2715rFvsbsa9WyeZpj+saJOtJVenxHrD5vodrLfu8IELD2zljSEwQQQAABBBBAAAEEEEAAAQQQQAABlwj8t3iJTJv+hpQpU1qeGzvKLLLp3/RDhw6ZvNYpKQesDwSKSOPGDf0Pm20n6khXKTsQyGUBAta5PADcHgEEEEAAAQQQQAABBBBAAAEEEEAg7wlcfvnFMnv2HNmwcZP0vWmANLEC0k2aNBJdSHPTpi0yb/4C2bhxsxQpUliGDxtiFkYMVHKijsA6eY9AbguQwzq3R4D7I4AAAggggAACCCCAAAIIIIBAOgFyWKcjYYcHBbZu3SbPjBknP/70ixxfZi5NLzUtx+OPDg86u9o+0Yk67Lp4RSAWBJhhHQujQBsQQAABBBBAAAEEEEAAAQQQQAABBPKcQIUK5eWpJx+R9es3yN///CtbtmyVw4cPS/36daVBQn2pXLlSpiZO1JHpTTgBgRwUIGCdg9jcCgEEEEAAAQQQQAABBBBAAAEEEEAAgUCBatWqiv5kpzhRR3buz7UIOCUQ51RF1IMAAggggAACCCCAAAIIIIAAAggggAACCCCAQHYECFhnR49rEUAAAQQQQAABBBBAAAEEEEAAAQQQQAABBBwTIGDtGCUVIYAAAggggAACCCCAAAIIIIAAAggggAACCGRHgIB1dvS4FgEEEEAAAQQQQAABBBBAAAEEEEAAAQQQQMAxARZddIySihBAAAEEEEAAAQQQQAABBBBAwCmBrl27SHJyslSoWN6pKqkHAQQQQMAFAvmOWUXbmZiYKAkJCS5oMk1EAAEEEEAAAQQQQAABBBBAAAEEEEAAAQQQ8KIAKUG8OKr0CQEEEEAAAQQQQAABBBBAAAEEEEAAAQQQcKEAAWsXDhpNRgABBBBAAAEEEEAAAQQQQAABBBBAAAEEvChAwNqLo0qfEEAAAQQQQAABBBBAAAEEEEAAAQQQQAABFwoQsHbhoNFkBBBAAAEEEEAAAQQQQAABBBBAAAEEEEDAiwIErL04qvQJAQQQQAABBBBAAAEEEEAAAQQQQAABBBBwoQABaxcOGk1GAAEEEEAAAQQQQAABBBBAAAEEEEAAAQS8KEDA2oujSp8QQAABBBBAAAEEEEAAAQQQQAABBBBAAAEXChCwduGg0WQEEEAAAQQQQAABBBBAAAEEEEAAAQQQQMCLAgSsvTiq9AkBBBBAAAEEEEAAAQQQQAABBBBAAAEEEHChAAFrFw4aTUYAAQQQQAABBBBAAAEEEEAAAQQQQAABBLwoQMDai6NKnxBAAAEEEEAAAQQQQAABBBBAAAEEEEAAARcKELB24aDRZAQQQAABBBBAAAEEEEAAAQQQQAABBBBAwIsCBKy9OKr0CQEEEEAAAQQQQAABBBBAAAEEEEAAAQQQcKEAAWsXDhpNRgABBBBAAAEEEEAAAQQQQAABBBBAAAEEvChAwNqLo0qfEEAAAQQQQAABBBBAAAEEEEAAAQQQQAABFwoQsHbhoNFkBBBAAAEEEEAAAQQQQAABBBBAAAEEEEDAiwIErL04qvQJAQQQQAABBBBAAAEEEEAAAQQQQAABBBBwoQABaxcOGk1GAAEEEEAAAQQQQAABBBBAAAEEEEAAAQS8KEDA2oujSp8QQAABBBBAAAEEEEAAAQQQQAABBBBAAAEXChRwYZtpMgIIIIAAAggggAACCCCAAAIIeEBg+qtvSlLSjoh6EhcXJ927XSflypWN6HouQgABBBCITQEC1rE5LrQKAQQQQAABBBBAAAEEEEAAAc8LfPnl17J23fqI+pkvXz658opLCVhHpMdFCCCAQOwKkBIkdseGliGAAAIIIIAAAggggAACCCDgaYEbb+wZcf/OOaej1KpVI+LruRABBBBAIDYFCFjH5rjQKgQQQAABBBBAAAEEEEAAAQQ8L9CpYwdJSKiX5X4WKFBA+mYj2J3lG3IBAggggECOCRCwzjFqboQAAggggAACCCCAAAIIIIAAAv4Cmtbjpn69/XeFtX3ppRdK1SqVwzqXkxBAAAEE3CVAwNpd40VrEUAAAQQQQAABBBBAAAEEEPCUwBmnnyotWjQLu09FixaR3j27hX0+JyKAAAIIuEuAgLW7xovWIoAAAggggAACCCCAAAIIIOA5gZuzMMv62muulDJlSnvOgA4hgAACCKQKELDmSUAAAQQQQAABBBBAAAEEEEAAgVwVOOmkJtK2zRmZtqFkyRJy/XXXZnoeJyCAAAIIuFeAgLV7x46WI4AAAggggAACCCCAAAIIIOAZAc1lHReXL8P+dOt6ncTHF8/wHA4igAACCLhbgIC1u8eP1iOAAAIIIIAAAggggAACCCDgCYG6dWvLued0CtmXChXKy9VXXRbyOAcQQAABBLwhQMDaG+NILxBAAAEEEEAAAQQQQAABBBBwvUCfPj2kQIECQfvRp3d3KVSoUNBj7EQAAQQQ8I4AAWvvjCU9QQABBBBAAAEEEEAAAQQQQMDVAlWrVJZLL7kwXR9q1qwhF114Xrr97EAAAQQQ8J4AAWvvjSk9QgABBBBAAAEEEEAAAQQQQMC1Ar16dpUiRQqnaX+/vj2t/NaEMNKg8AYBBBDwqAB/23t0YOkWAggggAACCCCAAAIIIIAAAm4UKFu2jFxz9ZW+pjdq1EDOOrO97z0bCCCAAALeFiBg7e3xpXcIIIAAAggggAACCCCAAAIIuE6g6w3XSokSJUy7b7n5Rte1nwYjgAACCEQuEHwlg8jr40oEEEAAAQQQQAABBBBAAAEEEEAgWwLx8fHSp3c3WfjHX3JyqxbZqouLEUAAAQTcJZDvmFW0yYmJiZKQkOCu1tNaBBBAAAEEEEAAAQQQQAABBBBAAAEEEEAAAc8IkBLEM0NJRxBAAAEEEEAAAQQQQAABBBBAAAEEEEAAAXcLELB29/jRegQQQAABBBBAAAEEEEAAAQQQQAABBBBAwDMCBKw9M5R0BAEEEEAAAQQQQAABBBBAAAEEEEAAAQQQcLcAAWt3jx+tRwABBBBAAAEEEEAAAQQQQAABBBBAAAEEPCNAwNozQ0lHEEAAAQQQQAABBBBAAAEEEEAAAQQQQAABdwsQsHb3+NF6BBBAAAEEEEAAAQQQQAABBBBAAAEEEEDAMwIErD0zlHQEAQQQQAABBBBAAAEEEEAAAQQQQAABBBBwtwABa3ePH61HAAEEEEAAAQQQQAABBBBAAAEEEEAAAQQ8I0DA2jNDSUcQQAABBBBAAAEEEEAAAQQQQAABBBBAAAF3CxCwdvf40XoEEEAAAQQQQAABBBBAAAEEEEAAAQQQQMAzAgSsPTOUdAQBBBBAAAEEEEAAAQQQQAABBBBAAAEEEHC3AAFrd48frUcAAQQQQAABBBBAAAEEEEAAAQQQQAABBDwjQMDaM0NJRxBAAAEEEEAAAQQQQAABBBBAAAEEEEAAAXcLELB29/jRegQQQAABBBBAAAEEEEAAAQQQQAABBBBAwDMCBKw9M5R0BAEEEEAAAQQQQAABBBBAAAEEEEAAAQQQcLcAAWt3jx+tRwABBBBAAAEEEEAAAQQQQAABBBBAAAEEPCNAwNozQ0lHEEAAAQQQQAABBBBAAAEEEEAAAQQQQAABdwsQsHb3+NF6BBBAAAEEEEAAAQQQQAABBBBAAAEEEEDAMwIErD0zlHQEAQQQQAABBBBAAAEEEEAAAQQQQAABBBBwtwABa3ePH61HAAEEEEAAAQQQQAABBBBAAAEEEEAAAQQ8I0DA2jNDSUcQQAABBBBAAAEEEEAAAQQQQAABBBBAAAF3CxCwdvf40XoEEEAAAQQQQAABBBBAAAEEEEAAAQQQQMAzAgSsPTOUdAQBBBBAAAEEEEAAAQQQQAABBBBAAAEEEHC3AAFrd48frUcAAQQQQAABBBBAAAEEEEAAAQQQQAABBDwjQMDaM0NJRxBAAAEEEEAAAQQQQAABBBBAAAEEEEAAAXcLELB29/jRegQQQAABBBBAAAEEEEAAAQQQQAABBBBAwDMCBKw9M5R0BAEEEEAAAQQQQAABBBBAAAEEEEAAAQQQcLcAAWt3jx+tRwABBBBAAAEEEEAAAQQQQAABBBBAAAEEPCNAwNozQ0lHEEAAAQQQQAABBBBAAAEEEEAAAQQQQAABdwsQsHb3+NF6BBBAAAEEEEAAAQQQQAABBBBAAAEEEEDAMwIErD0zlHQEAQQQQAABBBBAAAEEEEAAAQQQQAABBBBwtwABa3ePH61HAAEEEEAAAQQQQAABBBBAAAEEEEAAAQQ8I0DA2jNDSUcQQAABBBBAAAEEEEAAAQQQQAABBBBAAAF3CxCwdvf40XoEEEAAAQQQQAABBBBAAAEEEEAAAQQQQMAzAgSsPTOUdAQBBBBAAAEEEEAAAQQQQAABBBBAAAEEEHC3AAFrd48frUcAAQQQQAABBBBAAAEEEEAAAQQQQAABBDwjQMDaM0NJRxBAAAEEEEAAAQQQQAABBBBAAAEEEEAAAXcLELB29/jRegQQQAABBBBAAAEEEEAAAQQQQAABBBBAwDMCBTzTEzqCAAIIIIAAAggggAACCHhQ4IcffpZ33n0/ZM+2bN0mu3fv8R2vUKGclCpZ0vc+nI3AOvLnzy91atcM51LfOUeOHJGVq9b43kdSh14c2Bb6k94kElsnxiewDh0vJ8YnkjoC2+KESW72J/C5d6I/kdShBoFtiWR8AuuIpC1OjHEk/bn7rjukRo3qeikFAQRySSDfMavovRMTEyUhISGXmsFtEUAAAQQQQAABBBBAAAEEggnM/HiWPDNmXLBD7EMAAQQQcFhgwvjnpFGjBg7XSnUIIJAVAWZYZ0WLcxFAAAEEEEAAAQQQQACBXBKoXaumXH75xenuvmbtOknanuTbX716NSlfvpzvfTgbgXUULFhQmjZtHM6lvnMOHTpsTYT61/c+kjr04sC20J/0JpHYOjE+gXXoeDkxPpHUEdgWJ0xysz+Bz70T/YmkDjUIbEsk4xNYRyRtcWKMs9KfKVNflX379uslFAQQyGUBAta5PADcHgEEEEAAAQQQQAABBBAIR6By5UpyzdVXhHNqLp5zTS7eOxq3pj/pVWPJxIm2OFFHeqXc20N/IrV/4413CVhHisd1CDgswKKLDoNSHQIIIIAAAggggAACCCCAAAIIIIAAAggggEBkAgSsI3PjKgQQQAABBBBAAAEEEEAAAQQQQAABBBBAAAGHBQhYOwxKdQgggAACCCCAAAIIIIAAAggggAACCCCAAAKRCRCwjsyNqxBAAAEEEEAAAQQQQAABBBBAAAEEEEAAAQQcFiBg7TAo1SGAAAIIIIAAAggggAACCCCAAAIIIIAAAghEJkDAOjI3rkIAAQQQQAABBBBAAAEEEEAAAQQQQAABBBBwWICAtcOgVIcAAggggAACCCCAAAIIIIAAAggggAACCCAQmQAB68jcuAoBBBBAAAEEEEAAAQQQQAABBBBAAAEEEEDAYQEC1g6DUh0CCCCAAAIIIIAAAggggAACCCCAAAIIIIBAZAIErCNz4yoEEEAAAQQQQAABBBBAAAEEEEAAAQQQQAABhwUIWDsMSnUIIIAAAggggAACCCCAAAIIIIAAAggggAACkQkQsI7MjasQQAABBBBAAAEEEEAAAQQQQAABBBBAAAEEHBYgYO0wKNUhgAACCCCAAAIIIIAAAggggAACCCCAAAIIRCZAwDoyN65CAAEEEEAAAQQQQAABBBBAAAEEEEAAAQQQcFiAgLXDoFSHAAIIIIAAAggggAACCCCAAAIIIIAAAgggEJkAAevI3LgKAQQQQAABBBBAAAEEEEAAAQQQQAABBBBAwGGBAg7XR3UIIIAAAggggAACCCCAAAIOCjRu1FD69e0l1apVdbBWqkIAAQQQ8Bfo2rWLJCcnS4WK5f13s40AArkgkO+YVfS+iYmJkpCQkAtN4JYIIIAAAggggAACCCCAAAIIIIAAAggggAACCIiQEoSnAAEEEEAAAQQQQAABBBBAAAEEEEAAAQQQQCAmBAhYx8Qw0AgEEEAAAQQQQAABBBBAAAEEEEAAAQQQQAABAtY8AwgggAACCCCAAAIIIIAAAggggAACCCCAAAIxIUDAOiaGgUYggAACCCCAAAIIIIAAAggggAACCCCAAAIIELDmGUAAAQQQQAABBBBAAAEEEEAAAQQQQAABBBCICQEC1jExDDQCAQQQQAABBBBAAAEEEEAAAQQQQAABBBBAgIA1zwACCCCAAAIIIIAAAggggAACCCCAAAIIIIBATAgQsI6JYaARCCCAAAIIIIAAAggggAACCCCAAAIIIIAAAgSseQYQQAABBBBAAAEEEEAAgRgWWLDge7n5loEy7oWXY7iVNA0BBBBwt8C9Q4aZv2tXrV7j7o7QegQ8IFDAA32gCwgggAACCCCAAAIIIICAZwV27Nwpi5cslTJlSnu2j3QMAQQQyG2B5ctWyvakJElJTsntpnB/BPK8ADOs8/wjAAACCCCAAAIIIIAAAggggAACCCCAAAIIIBAbAgSsY2McaAUCCCCAAAIIIIAAAggggAACCCCAAAIIIJDnBQhY5/lHAAAEEEAAAQQQQAABBBBAAIHsCGzatFl27tqVnSq4Ng8IHDlyRJYtXxETPeWZjYlhoBEIIBBCgIB1CBh2I4AAAggggAACCCCAAAIIIJCZwLTpb8j1XfvItZ27y9ffzM/sdI7nUYGdO3fJtV16SN9+A6TfzbfL0aPHck2CZzbX6LkxAgiEKcCii2FCcRoCCCCAAAIIIIAAAggggAACgQIfzvxUjh07JocOHZaPP/lMzu50ZuApUXk/c+Ys+X3hn0Hrrlu3tvTscUPQY5HsfH/GR/LPP/9KQkJ96XpD50iqiOiaQ4cOSUpKipQoUSKi62Pponnzv5WkpB2mSUuXLpd/Ev+V5s2a5koTc+uZzZXOclMEEHClAAFrVw4bjUYAAQQQQAABBBBAAAEEclZAUxmMHz/Z3PTMM9vJFZdfElYDZn48S+bN+zbTcytUKC9Dh9yV6XlZPeG773+UGTNmmstuvrmPNGyQkGEVGnh+9LGnZP/+/dKgQX255eYbMzy/VYtmvpnVrVo2z/BcJw/+t3iJfDM3+IzuXbt3OxqwTkxcZPq4f39y1APWGzZukldffVMWL1kqq1evFU2jUbFiBWlgBcsvueQCadvmDCcZc6yuli1OPBvx8cWt4H+9HLt34I1y65kNbAfvEUAAgVACBKxDybAfAQQQQAABBBBAAAEEEEDAJzBnzlz59beF5v3WbdvCDlivW7fed52vsiAb1apVDbI3+7tOObmVjBn7gmzbtl0Ojz8iz40dmWGlH370scxf8J05J5xZyvcPvVvatm1tzQKOl9NPOzXDup082KXL1XLO2R3TVKkzoTVA79Yy1/pg4+nRz8revfvSdGHLlq2iP99+94N0vvYqufWWG6VAgZwJZ9w3ZLhs354kXbt2sbzPStOurLypVauGTJ82QRZas+I7tG8rRYsUycrljp6bW8+so52gMgQQ8LRAzvwN72lCOocAAggggAACCCCAAAIIeF/ADuJqT3Xmq/5oEC6zosG5KlUq+06bN/87E7QrXaqU9O7dzbe/ePHivm0nN4oUKSw339RHnnhytPzxx18moNvOCjAHK3v27JFXX3vLHDrrzPbSwpo9nVkpVKiQnHdup8xOc/x47Vo1RX/8i/8Y+e93w/aCBd/LQw+PME3VGchdOl8tTZo0kuLFi8mSxcvkk1mfi6bSeO//PrAC2nujMhs/mNOq1Wtk8+YtstuatZ7dEmzMsltnJNfn1jMbSVu5BgEE8qYAAeu8Oe70GgEEEEAAAQQQQAABBBAIW2DFilWybt0GKVq0qGh+ZE0RocHRHrWuz7SOZlaeXv2xy0Yr5YPOMi1uBSWvuvIye3dUX88/72yZ8cFM+e+/JfLyhKnS+ozTJH/+/Onu+drrb1uByT1SsGBBufXWvumOsyM6AkePHpWJk6eZyqtaH26MGvmY1KhR3XezJo0byUUXnWc+dNBZ2F/M/kquu+4aqVO7lu8cNhBAAAEEvCMQ552u0BMEEEAAAQQQQAABBBBAAIFoCNgzd0879WQ5u2PqooK6iJxbSr58+eT2/jeb5q5Zs9YsjhjY9o2bNpugtu6/9porRAOnOVkOHz5sguU5ec9g99Ic3jldPv/iK9Fx0XLHHbemCVbbbSlcuLDcd+9g0dnXR48ek8mTp9uHwnrNjX6F1bAwT0pd2PNQurN1f0rKgXT73bIjWs+9zsJfvnyl+aBNPxChIICAuwSYYe2u8aK1CCCAAAIIIIAAAggggECOC9jB6XbtWktza7b0uBcnmPQMm6wgb+XKlXK8PZHcUGd5d7KC7bpQ4bTpb4jOui5WrJivqokTp4oGNcuUKS09ut/g2++/sWPHThk0eIj/rjTbw4cPkfr16qbZl9GbgwcPyjvvzpAvrIDt+g0bTCBW0zU0tVJhXNflGmnT5vSMLnfsmC50+PnnX5qZ7/8uWiylS5eSFs1PknOtVCc5scjhjz/+YvqiM6bbtA7dZ00Poot9vvHmu/LTz78ar7i4fD6HuXMXyCvTXpcyZcvIs2OekrVW/vT33vtA/v4nUVatWi3Vq1eXk1u1kLPOam9efRf6beiCm+phl6SkJLP51tv/Z83snmPv9r12vuZKOeecjr739sbUV14LudioPov33D3QPjXoa+8bb5NjVqD1xReekU9nzTYfpujs/w4d2sq91rX58xeQCROnyJyv51k5trdLY2sW+oPDhqT78+jUM/v6G+/Il19+HbStgTt1AdXRT6emdwk8pu+z89x/+NEn8sEHH6erduKE50U/1JhttVEX7dSxt4t+o2LkU4/ab3lFAAEXCBCwdsEg0UQEEEAAAQQQQAABBBBAILcE1q/fIJoSRAODrVufJpp7WnPxam5fnXmtuYbdUnSxPl2UUIN4b771nvTr28s0fZEVpP3GCnZqubFPD5M32bwJ+I/OBtV+hyoHDoQ/01WD48OGP2YCr1qfzgLXgOy+fftloZVr+48//5YHhw+VszulzmgPdc/s7t+6dZsMvPNe0Ve76AKVGgjV9BtPPfGIvTtqrxs3pQaINZCrDhmV5lYgXQPWhw4dMoFaDY7aZbeVg1zHZ9/+/bLF6s9ddw01r/ZxncWtPzM/niWPPvyACf7ax+xXfdZXWsHtwKJ5rPUnsOizFKyoYahnpULFCsEuSbNv9erVJiD/51//yPiXJ4vOpNaiH27UrVNbChUqKG+/877Zp//RND1PPPWMPP/sKN8+3XDqmdWFJ0P1J80NrTcakA5Vsvvc79q1O2g7jlo++qHCyxOmpLv1ocPpZ6anO4kdCCAQUwIErGNqOGgMAggggAACCCCAAAIIIBBbAvOtxfC0NG3axASrdbtt2zNM0EgXUHRTwFpng3e+9ior4PmOvGvNvNXZuhrwfGn8JBMQ1Pzcl15yoXYxaClXrpx88P6baY5p6oEevVLTjaQ5kMEbDSLqAoM6S7hUqZIyeNAAk1dbc4RroHXq1FflM2vG8xNPPm1mfLdq2TyD2iI/pG2/594HTLA6Li5Oune7zsxCr2gFVNeuXSfvz/hIHnrkCSlXrmzkNwnjyg0bUgPWet/MSiW/czZs2GjGL/CavXv3mWB1QWvWZH9EAABAAElEQVS2+iNWYLphwwQ5eOCg/PX3PzJp8jTRoOejj480s4B1Jrl/efSRB+SAda5dhgx9ULZbs6y7dL7KmpV/jr3b91qx4omAuW+ntdH/tpt8H4jY+ydPmW7Nlv7CfhvWq16js7F11v3kKa/Kt9/9YH1D4HWTT/6OAbfI6aefItOsGcVz5syVP60POfT5qegXxHfqme3Vs6tcfVXonPObrGD+0PsfMgHyG27oHLRvTjz3+u2Hbl27mPo1J/2AO+422/rB2gTrWxL6DYWO1gz6+vXriY5NUtIOK4BOwDrogLATgRgWIGAdw4ND0xBAAAEEEEAAAQQQQACB3Baw81e3a9va1xTd1hnKOqtTg3nlykY3oOm7sQMb3bt1sYLBs00gS4OB7du1sQKZiabm2/vfYs0kjwt5F51lXtZKN+FfChbM+q/Vv//+p5nprbOJR48aIQ0a1PdVqcHGoUP+n737gI+ieBs4/iT03ntVCBCKIIhKUQFBrLz2QpEuiAjYsKGg2FCKFEFBsHcFRf/YpdroltC7gIKUUASU9s4zYY/L5e6Su+wll+Q3nzdmb3d2dua7e/w/77OTZ+6W/8wMYg1Cjp/wokx7eaLnuJsb8xf86Jmt+ohJJ+E9mzs+vrYMeXiwvDBxsg3u63WdWb5u9kFnlGvgXEvp0qVSbdq7jgZJG/o54/DhwxJj7uPUF8fawK5TpVq1KnLeuedItx597Uz29006Ft+AddWqVZzq9nfuU/dXg+lxcTWSHQv2QXNti+jP6ZI/f/7TH9K4pWlsnJcouhCoBqwPHz4ibS9uLddff7VtZaDJ+63PihZN0+MdsHbrmdU0Mfrjr+iM6ieefM4Gqy+/vL10uOpyf9XEjedexxMbm/Sdy5379Hfviy++sbnPhz36oNSocYbf67MTAQSyjkDg/yXOOmOgpwgggAACCCCAAAIIIIAAAhEQ0DQRmi5DSwszq9opdevGm+BVcRvAnH9qBrZzLNp/a95qJxXIV19/K6Oen2C7rLmamzRplCHd/z1hhb1Oy5bNkgWrvS/evWsn+3HTpi1BUyx4nxPqtnNv69evmyxY7d1O926dpUiRIt67XN3WWbdOyZUrl7MZ8Ld3neNe5/qe0Oe27smC1c5xDTx3vCVphq4zfudYNP5u0vj0M1mlciXPXzmcbXJxO6WYSdNTuXJF+/EfM7s8o8uYsRNl1eo1UrtWnNw1sF/Ay0fyuZ8+Y6Y89eRQgtUB9TmAQNYSIGCdte4XvUUAAQQQQAABBBBAAAEEMkxg/oIfbFBag2HeM091lmMzk89ai6YFyWrlsksvsSkDTpw4KXtNygCdqdmvX+8MG4Yzo7tW3OmZ1b4Xr2yCk7qI3PHjx2Xd+g2+h135vHJV0suIBiZgHahogL+GSZWS1UqjhoHTqDRq2MAOR/86QFNoRHOpUKF8su4VLpI0a7t8+bLJ9kfypUKyC/l8mDlzlswyaU40tc3wx4fYlBw+VTwfI/ncX2FmdmtAn4IAAtlD4PTfT2SP8TAKBBBAAAEEEEAAAQQQQAABlwTmmkX3tHinA3Ga1n2aZ1nz5u7ff0CKFo3cLFznmm791oD7HSZAfZdZlE+L5rLOyGDXhg0b7XWXLl1uU5PYD37+kzt3LpNPWWTt2vVSN76Onxrp26V5f7X4BkV9W61YsYJdBNJ3vxuf9V44JS0pR06tPWhP0bQf/oo+i0kpOfwdNeOteDoIvHXrtmQpNPyfwV5/AgkrVsq4CZPsgqy6QGi5csmD6L7nRPK5b9q0se/l+IwAAllYgIB1Fr55dB0BBBBAAAEEEEAAAQQQiJTAvn37PLmdZ3z8mWzYuDnZpY4cOWI/6wxgzat7+WWXJDse7R/i69TydFHzNWdkUTMty5b/an9Su/ahQ4dTqxLWcSf4650L2F9DznHNue12KVy4sJ2Vq3mQExP3pdp8YmKip07pAItBOv31VPTZyJ3LKxTiIPjU4WNwgb17E+XRoU/K0aPHpHevbnJOk7ODn2CORvK515cqFAQQyD4CXv9KZ59BMRIEEEAAAQQQQAABBBBAAIH0CeiCfCdOnLCNaDBx0aIlARvUhRmzWsA64GAy4ICTh1lzaTupVYJdtnTp0sEOp/uYE0gM1FBqxwOdl5b9GgQvX76cbNnyh+wwiyimVnbs/NtTpUIF/0HK1Gdqn/S0wUboAvo8DH3sKdm1a7ddtLRTx6Sc4Km1FMnnvkyEvyOpjY3jCCDgrgABa3c9aQ0BBBBAAAEEEEAAAQQQyBYC807lptZgYt8+PfyO6WMz83q5SQmyePEyOXTokGi+Y0rqApo6Yd++/aIBvJo1a6R+QoRqlC1TWjZt3iI7vYLA/i7lBJJTDwT7Ozv1fRVNnmYNWG/YuCnVyhtP1dFUIoFSUOhMbX3JkjdvXr/t7dhxOuhdxizCSAlNYOKkKTYVkOa2f+jBeyWtM+8j+dx7p5YJbTTURgCBaBQgYB2Nd4U+IYAAAggggAACCCCAAAKZKHDw4D+ydNly24Pb+/SUVq0u8Nub+vXqyvU3djFpAY7Kjz8tkovbXOS3HjuTC1SpUlnWrFkXscUUk18t8CdNhaIB61Wr1gSspCkf1qchkBywgTQcqFu3jvz08yJZtuwX2bBhk5wZYJFHXSTzo+kzbYsa6M+Tx39IQwPrmve7Xr14v1dfvWat3a8LFVauVNFvHWenk17k2LGkNC7O/pz6++tvZsuHH30iBQrklyeGPyqFCqX9JVW0PPc59d4xbgSykoD/FQqy0gjoKwIIIIAAAggggAACCCCAgKsCP/600Oam1YDguec2Cdh2GTNDt1atmva4pgWhpE2gQf26tuKcOfPFmTHse+bGTZulZ+/+0q3H7QHr+J4T6mcnd/eixUsDLqr40fRPZO+evaE2HVL9667tIBo81jLxxZft7Gh/DXw0/WNxFors3q2zvyqefS9Pe92z7b3xr1nF8o0337W76tSOS3V2cFxc0gz4VatWezeTI7fXrd8gI0eNtWMffN9dckb1aiE5RMtzH1KnqYwAApkiQMA6U9i5KAIIIIAAAggggAACCCAQvQJOOpBGDc9KNc1Hi+bn24H8bGbIahoG36KLN/7xx1bPz4EDB20VnZXtvf/Pv3b4npptP1915WVSrVoVuwjd4AceTbbwouYHXrlytTz40FBZt2698S8gZ5xRPSIWeu9KlCxh237o4WHy+Rdfy+HDSQs8asqSaa+8IZOnvCKlSpaMyPWdRnXhxY633GA/aq70AYMGS8KKlXbmvs6W3rp1u4wdN0kmvDDZ1qlvAv7Nm53nnJ7it6aH2Gxmjj885HHZ+fcuz/H16zfKgIGDba5sTWNxxRXtPccCbTSoX88emjN3ge3D4iXLRIPeWrRvTp53uyMb/+fAgQPyyCPD5ciRf+W6a/9P2rS+MOTRRstzH3LHOQEBBDJcwP/fz2R4N7ggAggggAACCCCAAAIIIIBANAhoQGrhosW2Ky1bNEu1Sxo4fOXVN02g84g5b4ldhM37pLfefl/ee3+69y67rXmTO9/a27O/kknN8PabUz2fo3FDA6d9+w1K1jXvvM733jfE5qX2rjB1yoQUuZY1zcTgewclBVSNw6C77pfixYubxQfL2kCrWmrRnL+DBvTzbs6z/exzz8u8+T94PuvGkSNJ5/1i8opf2SH5QngaYLz7rv7J6pcuXUqee2a4DRD/888heWbEaBnx7BgpVrSoJJoXDVr6mpQweq+mz5iZ6mzkZI2H+OGG66+RP//6S2bOnGUD9v3uuFvUKX/+fKIpapxSu1acDHl4sPPR7+88efLKmFHPSL/+d8sNJmVNiRLFbfDbux3Ny966VepB10vatTHO39uczWqgP5p7PDY21rxwOCb33D1Arrzi0hT9CHZ/li5dnqb7k6LRMHa49cy++vrbsv3Pv2wP1GDGx0mpWfx1qVixYvLx9HdSHHLjude/PNAXEVqc2fa63bFzT88sff18/nlNZcCdfXWTggACWVCAgHUWvGl0GQEEEEAAAQQQQAABBBCIlIAGqzVoraV588CzWJ3ra0oQTQ3yt5nJqgHUtAS5nXOz2u8TJ46LzjQNVHThSd9y/MQJ3132s84Sfu21l2TixCmy4PsfJTEx0f7oQZ313NLMfr69b6+AOYJ1JnSgvugsbd9jTjDbtzOa8uLZZx6XD03qj+XLfrWB6n3799tZ3e0vuVhuufl6O7PY9zy3P2v6mXvuulN0Vr8u6rdr1245duyYCVYfs5cqUKCAXHZpO+l3e++Auau9+6Qz2J8c/oh9mbLS5OjWWdF6jbp146WNCVRfffWV3tUDbhctWkRGj3xKXjMB219//V22mL8W2GNSpKixzuTWIKy/4tb98dd2KPvcemYPHUqaea/X1pc05v8ClmCzztP73B/972iyQLXTif37D4j+OEXvEQUBBLKuQIz5h8b+M5OQkCBxcXFZdyT0HAEEEEAAAQQQQAABBBDIhgIzP50lo0aPtzMGR5jAIiV7CmiA9i+TFqVy5UpmtnWxTBmkhgd0EcbSpUomm62aGZ3ZuzfRLpz4z6F/RBdYrFSxog0QB+uL813Jly+ffPXFx56qunDk5i1bzAKLleyMbc+BMDf0hY7JKCJ58+aN6KzzMLuXpU6LhufeAbv2uk6ye88eeWnSWKlTp5azm98IIJAJAv5fBWZCR7gkAggggAACCCCAAAIIIIAAAjlVQNNz6E9mFs3rHOpCepHqr6bxCLbgZyjX1ZnVNWucGcopQetqmhKKOwLR8Ny7MxJaQQABNwVi3WyMthBAAAEEEEAAAQQQQAABBBBAAAEEEEAAAQQQCFeAgHW4cpyHAAIIIIAAAggggAACCCCAAAIIIIAAAggg4KoAAWtXOWkMAQQQQAABBBBAAAEEEEAAAQQyU0DzS1MQQAABBLKuADmss+69o+cIIIAAAggggAACCCCAAAIIIHBKoMNVl4v+UBBAAAEEsrYAM6yz9v2j9wgggAACCCCAAAIIIIAAAggggAACCCCAQLYRIGCdbW4lA0EAAQQQQAABBBBAAAEEEEAAAQQQQAABBLK2AAHrrH3/6D0CCCCAAAIIIIAAAggggAACCCCAAAIIIJBtBAhYZ5tbyUAQQAABBBBAAAEEEEAAAQQQQAABBBBAAIGsLUDAOmvfP3qPAAIIIIAAAggggAACCCCAAAIIIIAAAghkG4Hc2WYkDAQBBBBAAAEEEEAAAQQQyIYC8XVqS6+eXaVSpYrZcHQMCQEEEIgOgY4db5TDhw9LmbKlo6ND9AKBHCwQc9IUHX9CQoLExcXlYAqGjgACCCCAAAIIIIAAAggggAACCCCAAAIIIJCZAqQEyUx9ro0AAggggAACCCCAAAIIIIAAAggggAACCCDgESBg7aFgAwEEEEAAAQQQQAABBBBAAAEEEEAAAQQQQCAzBQhYZ6Y+10YAAQQQQAABBBBAAAEEEEAAAQQQQAABBBDwCBCw9lCwgQACCCCAAAIIIIAAAggggAACCCCAAAIIIJCZAgSsM1OfayOAAAIIIIAAAggggAACCCCAAAIIIIAAAgh4BAhYeyjYQAABBBBAAAEEEEAAAQQQQAABBBBAAAEEEMhMAQLWmanPtRFAAAEEEEAAAQQQQAABBBBAAAEEEEAAAQQ8AgSsPRRsIIAAAggggAACCCCAAAIIIIAAAggggAACCGSmAAHrzNTn2ggggAACCCCAAAIIIIBAKgLz5/8gt/UZIOMnvJhKTQ4jgAACCIQrcN/9Q+y/tZs2bwm3Cc5DAAGXBHK71A7NIIAAAggggAACCCCAAAIIREBgb2KirF6zVkqUKB6B1mkSAQQQQEAF1q/bKLv37JEjh48AggACmSzADOtMvgFcHgEEEEAAAQQQQAABBBBAAAEEEEAAAQQQQCBJgIA1TwICCCCAAAIIIIAAAggggAACCCCAAAIIIIBAVAgQsI6K20AnEEAAAQQQQAABBBBAAAEEEEAAAQQQQAABBMhhzTOAAAIIIIAAAggggAACCCCQZoFjx47JCxOnyKFDh6R9+7bS+OyGaT6XigggELrA/v0HZOKkKXLi5Enp0ukmqVKlcuiNcAYCCCCQhQSYYZ2FbhZdRQABBBBAAAEEEEAAAQQyW2DaK2/I9BkzZcnS5RIfXzuzu5Oh11+4cIkMe+xpefGlqRl6XS6WswWKFi0iMTEx8uWX38hjw5+Ro0eP5WwQRo8AAtlegBnW2f4WM0AEEEAAAQQQQAABBBBAwB2BZct/lXfe/cA2dke/3lIgf/6gDa9YuUqmTn3db53CRQpLg3p1pX6DuhJXs4bkypXLb71o2rl12zaZPWeexMXViKZuRV1fXpg4WTZs2GSDrMMfHyIFChSIuj5mtQ71ua2HzJv/vaxdu14mT5kmd/S7LasNgf4igAACaRYgYJ1mKioigAACCCCAAAIIIIAAAjlbYNKkl+XEiZNytkkD0rrVhali7Nu3XxYvWRaw3pw58+2xUqVKytgxIzIs1cH3P/wk06a9IRo01+tS3BM4ePAfmfHxp55ZwD/9vChNz4p7PYi+ltx43ooXLyY9uneRceNflI+mz5Trr7taypUrG32DpUcIIICACwIErF1ApAkEEEAAAQQQQAABBBBAILsLLF32i6xes9YOs3evriEPV4NtxYoWteedOHlCdu78W9Zv2CiLFi2V3bv3yMBB98vY5zMmaK05gdet3yDFiiX1J+TBcEJAgR9/WugJVmuluXO/z/EBa7eet2uuvkreevt9+315/4Ppcmf/vgHvAwcQQACBrCxAwDor3z36jgACCCCAAAIIIIAAAghkkMD770+3V6pQoZzUqxsf8lUvNQs0+psRmpCwUh58eJjs3rNHHnxomLz5xssht80J0SMwb973tjNNmjSSJUuWi86w/u+//yRv3rzR08ks2pPY2Fhp3fpC+fDDj+V/s74yM65vlUKFCmbR0dBtBBBAILAAiy4GtuEIAggggAACCCCAAAIIIICAEdCAo5Pao03rVq6a1KsX75kp+sfWbfL337tcbT+jGlOjkydPhn25o0ePyqFDh8I+3/tEt9rxbjMt20eO/CsLFy22VW/v00t0scDDhw/LosVL03J6sjpq6dbiggcPHrTPcLILhPHh8JEjJiXOiTDOdO+Ui9tcZBtT1+W//Opew7SEAAIIRJEAM6yj6GbQFQQQQAABBBBAAAEEEEAgGgVWrFxtgodHbdfatEk9d3WoY7jwguYSGxtj82P/+luCOEE5befzL76Wd9/9UGLM7NIJ456TwoULB2z+2eeeF52xXb9+Xbnv3oGeeprOZPKUVzyfExMT7bbmW+7bb5Bnv7ORP18+eT4Nua13muD6p5/OEl2McqUxyp07l1SrWlU6dbpRLrqwpdNcwN9//bVD3nnvQ5k/7wfZs3evDXgXLFhQGjVsIDdcf7U0btwo4Ll3DrhXNNXEwAG323rffjtHFnz/oyz75TfZu2evlCpZUnSWc/87bjOpT4oFbMfNAxqs1qB1+fLl7MKU55/XVL76+jvRWdctmp+f6qWOHz9uZg5/KUuWLpfly3+zAfz4+NrW45ZbbpBdxnvII8NtO2NGPyMlS5YI2KY+B2q7ePEyGzTXiqVLl5K2F7eSjrfcGDAdzLffzZXXX39bqlStLE88/ohNXfPxJ5/Ze7xq1Rq7OGi1qlWkc+ebAqY6idTzpmOoG1/H+uqzs2zZr2ly1fMoCCCAQFYSIGCdle4WfUUAAQQQQAABBBBAAAEEMkFguQnIailQoIDUrHGm6z3IZwLEpUqVsrOr15g82d4B68ZmgccRz46xwdz5C36Uyy5t5/f6Oov2q6+/tbNyb7jhmmR1NLCrAWXfogFSf/sLFy7kWzXFZw1233ffw7Jp8xbPsWPHjtk8348OfVJu7XKL9Oxxq+eY78b2P/+SAQPvSzajPCYmxgZpf/jxZ5tKY8jDg5NZeLehs9H37k2Uf/45JDNN0HzU6PHeh22KFQ0WLzQ5wqdNfcEGsJNViMAHJx1I82bn2dY1SK19+P6Hn0Wtc+XKFfCqOqP6uZFj7QsK70q/mAC8/qxZu056dOvi8T5m2gtU9K8BHnhwqOcliz63//77r+zatVvefe8jMzP5N/tCokD+/CmaOHDggL1GLvPyQZ+pewc/LJs3/+GppzOsNf/5sMeelg0bNvm9x5F43jwdMBsNzAsZDVj/8utv3rvZRgABBLKNAAHrbHMrGQgCCCCAAAIIIIAAAgggEBmBP01wVYvOUI1E0WCmM+u5SpXKyS6hea8bmhnHGjSfPXtewID1gu9/ssFqzZXc6qILkrVxjplp/PLkCZ59GhCe9sobJgCfX8aPHenZ72xoruBg5cjhI/LosCfk2PFj8tjQh6R2nVoSa4LNCStWyQsTJ9vA6NvvfGD7WrFihRRN7dix0ywyOdgGq9VUZ0k3PKu+5DcBVF2IcsrLr8lSM8v4yaees0HeVhcFnq2tixxqUPhGE6S/2MwerlihgpkVvFNmfPyZfPa/L6zr1Kmvy+D7Us4kT9GxdOzQ9B3aFy0tWzSzv5s2bSJ58uQWDQLrLPRzmpxt9/v7z0uTp3mC1Y0anSXdu3WWM8+obmeRL1q8xMyQf1VGP3/6HvprQ/fpc/LQw4/ZYHWrVhdIn97dpUKF8jYlyNKlv8izI58XnSk91LxUePqpYQGD6DpT/BFT58SJk3amtd7jGNO+ztyeYO6xpq55513/99jt5813rPpyR8uff+7wPcRnBBBAIFsIELDOFreRQSCAAAIIIIAAAggggAACkRPYt2+/bbx0qZIRuYimAXHyFWvg1re0b9fGBiI1VYQGP4sUKeJbRebMmW/3NW9+nkkbknyGtKYRiYs7nUpEZ8hq0cB0XFwNux3Kf3R2c568eWTayxNFZ4c7RYPr1atVlR69+onOttb0El063+wc9vx+8633bKqJYsWKmjZeSJayQ1M+jHruKZP64nEzM/kneX7cRBOADxyw1hQaOhO7XdvWnvY1d7SmRNGZvvPmfy/fmHQh+llncEeqLDNpV3TWudo3bJh0D3VBwIZnNbD5z3X2daCAtc5+fv+DGbZrOjv7ySeG2hQxukPHUrlyRdtO7z53ptr9l0zqF21Pg+b6MsEpep+aNTtXnh89Qrr16Cs/L1wsP5iZ3xeYdDT+yrZt2829zStTp0xIdo81CK4vVXr2vsM+s3PmLjApRm5I1oTbz1uyxs2HMuYlhxadAa4zvlN7wWIr8x8EEEAgCwkEf22chQZCVxFAAAEEEEAAAQQQQAABBCIjsG//qYD1qUCZm1dJTNwno0aNs02WMDmJfWdY64GLzIxpDThqEFjTgvgWDdwtXpK0sN8lJridEeXO/n2TBTKda555ZnXRhSS1aNoPf+W331fY3Z073ZQsWO3U1Xze/W7vbQPMmo86UDta/6wG9ZIFq5029PdVV15mP2oAd49pJ5Jl7rwFtvlzmzYxubxPz41r2TJptvX8BT/Y2cr++rB6zTqbMkSP3dm/jydY7V1XXa+84lLvXSm2deHLtSZ1iJYe3bukOK47qlWrYnJPJ83AX23SzwQrd97Rx+89rlHjDNHc2lq2b/8zWBMROVaqdNKLI02joi9wKAgggEB2EyBgnd3uKONBAAEEEEAAAQQQQAABBFwW0ECxljx58oTdsgYHNZ2C/vxmZlTr7GNN89Cxcw/RGcsakB7y0H1+29eZui1bJC3aN3vOvBR1nHQgxc3iguede06K427v0Bmt9U8Fpf21XdGkoNCy06T+8C06C3nz5s12d6OGZ/ke9nzWWcWlTs1oV7NApYEJWAcqFSqU8xzaufNvz7bbGzrLV++BFt/FFZ181how/z0hKVDve30nj3hp80LEXwoVp76mhglWVppUHzpTX9OQnHFG9YBVa9ZMmlUfLGCtLw2cFw/+GqpgFpbUEklXf9fVfd7fw2PHAufyDnQ++xFAAIFoFzj92jPae0r/EEAAAQQQQAABBBBAAAEEMkWgWNGi9rq7du8O+/qPPPpEwHPz588nTz85TBo3bhSwTvv2bW2QW/MQa6oLTRXhFCcdSKvWFySb3escd/t3ieLFRXNlByoFTYBdywkzA9a3rDfpSDQvspaKFZMC2751nM+VKlW0+bB1IUrvlB/Ocf1dtmwZ74/Jtp1+6M4TJ08kO+bmh19//d3mytZFFc87L/kLA02TojOS16/fKJoWRGeE+5at27bZXU6g3/e48zm14xtM/m8tOsN73PhJzmkpfm/54w+7b+26pNQwKSqYHcXMyw/vdC++dQoVSko74+8e+9Z1+7MuHukU7++Bs4/fCCCAQFYXIGCd1e8g/UcAAQQQQAABBBBAAAEEIixQrHgxe4Xdu/eEfSXNO53LazHDIkUKS/36dUVnCGug2pmxGugCTc9pLCVNyhCdqbvApJe4/PL2tqp3OpD2l1wc6HRX98eY2bfhlqOnZqvr+cGC3vb4qRnt/x09GvBykcxLHfCiPgfmmkC0Fl0887HhI3yOig1W607Np93/jttSHJdTcX0NeAcruXMHP3781Gzjw2ZRzBkffxqsKXvs0D+HAteJYL7vwBdN2xHne1igQIFks63Tdja1EEAAgegXIGAd/feIHiKAAAIIIIAAAggggAACmSpQygSKtXjP7Ay1Q7p4nc62DbdoGo62F7eyi/N9ZxZYdALWTjqQKpUriS5YGO3Fe4E8DfAGK8dOHc8VGzxQG6yNSB/TPMqan9opixYtcTZT/N5hUqRoGo7ateJSHNMdmlokWEkt/UWuUwHtMmVKyzNPDQvWlD0WE5M1s6TuOvXiKFKLoKYKRwUEEEAgwgIErCMMTPMIIIAAAggggAACCCCAQFYXaFC/nrz3/nTZt2+/6OxOJ7dyRo9LZ1C//8EMWbp0uSctyOzZSTmt22XQYovpHfMZ1at5mvjrrx1Bcy3vMMe1VK9e1XNOtG2sMnmj//57l+3Wbb27+c1BrSlQHh/+jK2jaUF8A9ZO3upgi0vqyeoVrDgvRDRlTI0aZ9pFK4PVz6rHNpj0KlqC5S/PqmOj3wgggIAKZM3Xidw7BBBAAAEEEEAAAQQQQACBDBPQxe6c1BNOgDjDLu51IV0s78wzq9vUEzqrV9OBLFm6zPbtkhDSgWiOYy2pzXD2urRrmyVKFBcnF/Oq1WsDtrtv3z7569SijQ1M6pRoLXPnLbBdq16tqnTqeJO0bnVhip+L21wkV15xqa3npA/xHk98nVr2o87gDxaU/tUs1hmsVKlS2R7+999/Zeu27cGqZugxN583DeqvWr3G9r9RKotQZugguRgCCCDgogABaxcxaQoBBBBAAAEEEEAAAQQQyI4CurCbMyv229lzM3WI7S9pa6+vgfP5C36Uo0ePiQZ0U8uB7d3puLga9uORI//Kxk2bvQ9lyLbm7tby+utv2/77u+i0V960KTIKFy4k1aqdnpXtr25m7ps3PykdSIsW5wfthnP8jz+2yqbNW5LVrV07TjRViqYXmTBxsv2drIL5oOfN/PR/vruTfdYXAZrnXMu0aa8nO+b9Ydz4F6Vbj9tl9JgJ3rsjtu3m8zb71Pcv1uRRD7ZIacQGQ8MIIIBABggQsM4AZC6BAAIIIIAAAggggAACCGR1gWuuucoOYcWKVfJnKqkZIjnWdm1bm+BmjCxd9otMnzHTXqpd2zYhXbJa1Sqii0BqGTrsSZk5c5Zs3/6np41Iz7y+9poOogvm6WzZgXcNlq1bT88GPnz4sGhA9eNPPrP96XjLjXa8ns5F0caGDZtk26mZzC2aBw9YNzELa+bLl8/2XtOCeBe16HDV5XbXfBMAv2/wEFmxcpXoCwWddT3r86/k9jvulvLly3uflmJbF23sd3tvu/8780JDA9Lq6ZS9exNl2itvyEfTP5GNGzfJBRc0dw5F9Lebz9u33yW9MGrZorlorm4KAgggkB0FyGGdHe8qY0IAAQQQQAABBBBAAAEEXBbQBQ+nvPyqDSC+884Hcvdd/V2+Qtqa0/zZTRqfLYsWL5U1a9ZJnjx5pHXrC9J28qlamt5k4IDbZcSzY2Tz5j9k1Jjx9kjevHntrObixYvJRx+8GVKboVSOj68tI555XO5/4BFJSFgpnbr0lBJmZnChgiaIbQLnmvNZS9dbO5o0GzeG0nSG1nXSgWiak/hUFrzUYLUGrX/48WfRtCC3drklWV8HDugne/bslXnzv7f3Vu+vd2nSpJH06NZF7rjzHu/dKbb1hcbPPy+Sr7+ZLZ/M/J/8b9aXoqlC/vvvP09wXU+65uqrpOk5jVOcH4kdbj1vuqDl+lP5q2+++bpIdJU2EUAAgagQYIZ1VNwGOoEAAggggAACCCCAAAIIRLeA5uHt0vlm28lPP5sla9euz7QOt2+flBZEO9Ds/HM9s6VD6ZAGNsc+P0JaXdTSLnyogW8Nah47dkw0cB3p0vCs+vLsiCdE84Nr2WuCtTrTWoPVFSqUswH1Ht27RLob6Wpfg8tamjU7L02zwJ20IOvWrU8xS19nzT/6yP3S57Yeck6Ts+1sbE0TUqtWTbnh+mvkiccfkdx50jbnbsjDg2X440NsoPrEieN2NrXOBM9jztf0HM+OGC6DBvZL19hDPTm9z5umvhk7bpK97HnnniP16saH2gXqI4AAAllGIMbkiLKvbhMSEsw/3HFZpuN0FAEEEEAAAQQQQAABBBDICQIzP50lo0aPl/PPa2pn5WbmmPX/fXzgwaHyk5nBqnmYJ4wb6VmMMSP7tXjJMrnn3ofsJZ9+apg0NwHT9JYTJ06ILtangWtnkbz0tpnW8xPNAos7d/xtA+aa5qFs2TKZ4prW/mZEvaNHj5r83kelYMGCnsv9+ONCeeChoTaY/b9PP7QBaM/BABt6TzX/dWxsLqlatXKG39sA3bIz+UN53t42f9Xw0uRpUrx4cZk29QUpVbJkoKbZH6bAtdd1kt179shLk8ZKnVMLgYbZFKchgEA6BdL2ejKdF+F0BBBAAAEEEEAAAQQQQACBrC+gqQ0efOAeGThosOzYsVN++mmRmV17boYP7PU33rHXrFatip1h7UYHdDav5lLOjFK8WDHRn5xaNEj4/fc/2eFfambP6wx3fXGgP97l94QV9mP9+vFpClZrZU1FUrNm0iKb3m1l9nYoz9v+/Qfk8y++lrLmZcbdd91JsDqzbx7XRwCBiAsQsI44MRdAAAEEEEAAAQQQQAABBLKPgOZ3fu3VlzJlQJquY8bHn8ovv/xmr9/JLEioQXRK1hbQWdQTJ00xCyQekU2btkj/O/qkSDGiizC+/8EMO9DGZzfK2gMOsfdFixaRN16bHOJZVEcAAQSyrgAB66x77+g5AggggAACCCCAAAIIIJBjBPoPuNfmIj548B87Zs0B3dbkoaZkfYEC+fObBSY7yYsvTZWPpn8iC77/URo0qCfxdWrbNC1r1q6TefMW2Pze557bRK67tkPWHzQjQAABBBAIKEDAOiANBxBAAAEEEEAAAQQQQAABBKJF4LffEmxXNL/0RWahxAcG3yW5cuWKlu7Rj3QK3HLz9SYlS355/fV3bLoZTTnzzTezPa3qoowdrrrcLpbIffewsIEAAghkSwEC1tnytjIoBBBAAAEEEEAAAQQQQCB7CYwZ9bRoaoRq1aqlOX9x9hLI/qO5+v+ulCuvuFR0Uc1t27bLrl27pVzZshIXV0Nq1DhT8ufPl/0RGCECCCCAgBCw5iFAAAEEEEAAAQQQQAABBBCIeoHGjXNW3uKovyER6qDOoD//vKYRap1mEUAAAQSygkBsVugkfUQAAQQQQAABBBBAAAEEEEAAAQQQQAABBBDI/gIErLP/PWaECCCAAAIIIIAAAggggAACCCCAAAIIIIBAlhAgYJ0lbhOdRAABBBBAAAEEEEAAAQQQQAABBBBAAAEEsr8AAevsf48ZIQIIIIAAAggggAACCCCAAAIIIIAAAgggkCUEWHQxS9wmOokAAggggAACCCCAAAI5VSC+Tm3p1bOrVKpUMacSMG4EEEAg4gIdO94ohw8fljJlS0f8WlwAAQSCC8ScNEWrJCQkSFxcXPDaHEUAAQQQQAABBBBAAAEEEEAAAQQQQAABBBBAIEICpASJECzNIoAAAggggAACCCCAAAIIIIAAAggggAACCIQmQMA6NC9qI4AAAggggAACCCCAAAIIIIAAAggggAACCERIgIB1hGBpFgEEEEAAAQQQQAABBBBAAAEEEEAAAQQQQCA0AQLWoXlRGwEEEEAAAQQQQAABBBBAAAEEEEAAAQQQQCBCAgSsIwRLswgggAACCCCAAAIIIIAAAggggAACCCCAAAKhCRCwDs2L2ggggAACCCCAAAIIIIAAAggggAACCCCAAAIREiBgHSFYmkUAAQQQQAABBBBAAAEEEEAAAQQQQAABBBAITYCAdWhe1EYAAQQQQAABBBBAAAEEEEAAAQQQQAABBBCIkAAB6wjB0iwCCCCAAAIIIIAAAggg4IbA/Pk/yG19Bsj4CS+60RxtIIAAAgj4Ebjv/iH239pNm7f4OcouBBDISIHcGXkxroUAAggggAACCCCAAAIIIBCawN7ERFm9Zq2UKFE8tBOpjQACCCCQZoH16zbK7j175MjhI2k+h4oIIBAZAWZYR8aVVhFAAAEEEEAAAQQQQAABBBBAAAEEEEAAAQRCFCBgHSIY1RFAAAEEEEAAAQQQQAABBBBAAAEEEEAAAQQiI0DAOjKutIoAAggggAACCCCAAAIIIIAAAggggAACCCAQogAB6xDBqI4AAggggAACCCCAAAIIIIAAAggggAACCCAQGQEC1pFxpVUEEEAAAQQQQAABBBBAAAEEEEAAAQQQQACBEAUIWIcIRnUEEEAAAQQQQAABBBBAAAEEEEAAAQQQQACByAgQsI6MK60igAACCCCAAAIIIIAAAggggAACCCCAAAIIhChAwDpEMKojgAACCCCAAAIIIIAAAggggAACCCCAAAIIREaAgHVkXGkVAQQQQAABBBBAAAEEEEAAAQQQQAABBBBAIEQBAtYhglEdAQQQQAABBBBAAAEEEEAAAQQQQAABBBBAIDICBKwj40qrCCCAAAIIIIAAAggggAACCCCAAAIIIIAAAiEKELAOEYzqCCCAAAIIIIAAAggggAACCCCAAAIIIIAAApERIGAdGVdaRQABBBBAAAEEEEAAAQQQQAABBBBAAAEEEAhRgIB1iGBURwABBBBAAAEEEEAAAQQQQAABBBBAAAEEEIiMAAHryLjSKgIIIIAAAggggAACCCCAAAIIIIAAAggggECIAgSsQwSjOgIIIIAAAggggAACCCCAAAIIIIAAAggggEBkBHJHpllaRQABBBBAAAEEEEAAAQQQcFNg5arVMuiu+1M0ufPvXbJ//wHP/jJlSkmxokU9n9Oy4dtGrly55IzqVdNyqqfO8ePHZeOmLZ7P4bShJ/v2hfGkNAnH1o3749uG3i837k84bfj2xQ2TzByP73PvxnjCaUMNfPsSzv3xbSOcvrhxj0MZz/4D+7U6BQEEokAg5qQp2o+EhASJi4uLgi7RBQQQQAABBBBAAAEEEEAAAUdg5qezZNTo8c5HfiOAAAIIRFDgpUljpU6dWhG8Ak0jgEBqAsywTk2I4wgggAACCCCAAAIIIIBAJgo0qF9XBtzZN2APtvyxVfbs3uM5XrlyJSldupTnc1o2fNvIkyeP1KsXn5ZTPXWOHj1mJkKt8HwOpw092bcvjCelSTi2btwf3zb0fvm7P7//vkK+mz1PqlerKh06XK7VkhU37rFvX9ww0U76G0+yzvv54MZ4fNtwYzzhtKHD8+2LGybh9MWNexzOeMqVK+vnLrMLAQQyUoAZ1hmpzbUQQAABBBBAAAEEEEAAAQQQyOYCzl8FnH9eUxnxzOPZfLQMDwEEEEDAbQEWXXRblPYQQAABBBBAAAEEEEAAAQQQQAABBBBAAAEEwhIgYB0WGychgAACCCCAAAIIIIAAAggggAACCCCAAAIIuC1AwNptUdpDAAEEEEAAAQQQQAABBBBAAAEEEEAAAQQQCEuAgHVYbJyEAAIIIIAAAggggAACCCCAAAIIIIAAAggg4LYAAWu3RWkPAQQQQAABBBBAAAEEEEAAAQQQQAABBBBAICwBAtZhsXESAggggAACCCCAAAIIIIAAAggggAACCCCAgNsCBKzdFqU9BBBAAAEEEEAAAQQQQAABBBBAAAEEEEAAgbAECFiHxcZJCCCAAAIIIIAAAggggAACCCCAAAIIIIAAAm4LELB2W5T2EEAAAQQQQAABBBBAAAEEEEAAAQQQQAABBMISIGAdFhsnIYAAAggggAACCCCAAAIIIIAAAggggAACCLgtQMDabVHaQwABBBBAAAEEEEAAAQQQQAABBBBAAAEEEAhLgIB1WGychAACCCCAAAIIIIAAAggggAACCCCAAAIIIOC2AAFrt0VpDwEEEEAAAQQQQAABBBBAAAEEEEAAAQQQQCAsAQLWYbFxEgIIIIAAAggggAACCCCAAAIIIIAAAggggIDbAgSs3RalPQQQQAABBBBAAAEEEEAAAQQQQAABBBBAAIGwBAhYh8XGSQgggAACCCCAAAIIIIAAAggggAACCCCAAAJuC+R2u0HaQwABBBBAAAEEEEAAAQQQQACBnCsQX6e29OrZVSpVqphzERg5AggggEDYAgSsw6bjRAQQQAABBBBAAAEEEEAAAQQQ8BWIi6sh+kNBAAEEEEAgHAFSgoSjxjkIIIAAAggggAACCCCAAAIIIIAAAggggAACrgsQsHadlAYRQAABBBBAAAEEEEAAAQQQQAABBBBAAAEEwhEgYB2OGucggAACCCCAAAIIIIAAAggggAACCCCAAAIIuC5AwNp1UhpEAAEEEEAAAQQQQAABBBBAAAEEEEAAAQQQCEeAgHU4apyDAAIIIIAAAggggAACCCCAAAIIIIAAAggg4LoAAWvXSWkQAQQQQAABBBBAAAEEEEAAAQQQQAABBBBAIBwBAtbhqHEOAggggAACCCCAAAIIIIAAAggggAACCCCAgOsCBKxdJ6VBBBBAAAEEEEAAAQQQQAABBBBAAAEEEEAAgXAECFiHo8Y5CCCAAAIIIIAAAggggAACCCDgV2D+/B/ktj4DZPyEF/0eZycCCCCAAALBBHIHO8gxBBBAAAEEEEAAAQQQQAABBBBAIBSBvYmJsnrNWilRongop1EXAQQQQAABK8AMax4EBBBAAAEEEEAAAQQQQAABBBBAAAEEEEAAgagQIGAdFbeBTiCAAAIIIIAAAggggAACCCCAAAIIIIAAAggQsOYZQAABBBBAAAEEEEAAAQQQQAABBBBAAAEEEIgKAQLWUXEb6AQCCCCAAAIIIIAAAggggAACCCCAAAIIIIAAAWueAQQQQAABBBBAAAEEEEAAAQQQQAABBBBAAIGoECBgHRW3gU4ggAACCCCAAAIIIIAAAggggAACCCCAAAIIELDmGUAAAQQQQAABBBBAAAEEEEAAAQQQQAABBBCICgEC1lFxG+gEAggggAACCCCAAAIIIIAAAggggAACCCCAAAFrngEEEEAAAQQQQAABBBBAAAEEEEAAAQQQQACBqBAgYB0Vt4FOIIAAAggggAACCCCAAAIIIIAAAggggAACCBCw5hlAAAEEEEAAAQQQQAABBBBAAAEEEEAAAQQQiAoBAtZRcRvoBAIIIIAAAggggAACCCCAAAIIIIAAAggggAABa54BBBBAAAEEEEAAAQQQQAABBBBAAAEEEEAAgagQIGAdFbeBTiCAAAIIIIAAAggggAACCCCAAAIIIIAAAggQsOYZQAABBBBAAAEEEEAAAQQQQAABBBBAAAEEEIgKAQLWUXEb6AQCCCCAAAIIIIAAAggggAACCCCAAAIIIIAAAWueAQQQQAABBBBAAAEEEEAAAQQQQAABBBBAAIGoECBgHRW3gU4ggAACCCCAAAIIIIAAAggggAACCCCAAAIIELDmGUAAAQQQQAABBBBAAAEEEEAAAQQQQAABBBCICgEC1lFxG+gEAggggAACCCCAAAIIIIAAAggggAACCCCAAAFrngEEEEAAAQQQQAABBBBAAAEEEEAAAQQQQACBqBAgYB0Vt4FOIIAAAggggAACCCCAAAIIIIAAAggggAACCBCw5hlAAAEEEEAAAQQQQAABBBBAAAEEEEAAAQQQiAoBAtZRcRvoBAIIIIAAAggggAACCCCAAAIIIIAAAggggAABa54BBBBAAAEEEEAAAQQQQAABBBBAAAEEEEAAgagQIGAdFbeBTiCAAAIIIIAAAggggAACCCCAAAIIIIAAAggQsOYZQAABBBBAAAEEEEAAAQQQQAABBBBAAAEEEIgKAQLWUXEb6AQCCCCAAAIIIIAAAggggAACCCCAAAIIIIAAAWueAQQQQAABBBBAAAEEEEAAAQQQQAABBBBAAIGoECBgHRW3gU4ggAACCCCAAAIIIIAAAggggAACCCCAAAIIELDmGUAAAQQQQAABBBBAAAEEEEAAAQQQQAABBBCICgEC1lFxG+gEAggggAACCCCAAAIIIIAAAggggAACCCCAAAFrngEEEEAAAQQQQAABBBBAAAEEEEAAAQQQQACBqBAgYB0Vt4FOIIAAAggggAACCCCAAAIIIIAAAggggAACCBCw5hlAAAEEEEAAAQQQQAABBBBAAAEEEEAAAQQQiAoBAtZRcRvoBAIIIIAAAggggAACCCCAAAIIIIAAAggggEBuCBBAAAEEEEAAAQQQQAABBBBAAAG3BOLr1JZePbtKpUoV3WqSdhBAAAEEcpAAAescdLMZKgIIIIAAAggggAACCCCAAAKRFoiLqyH6Q0EAAQQQQCAcAVKChKPGOQgggAACCCCAAAIIIIAAAggggAACCCCAAAKuCxCwdp2UBhFAAAEEEEAAAQQQQAABBBBAAAEEEEAAAQTCESBgHY4a5yCAAAIIIIAAAggggAACCCCAAAIIIIAAAgi4LkDA2nVSGkQAAQQQQAABBBBAAAEEEEAAAQQQQAABBBAIR4CAdThqnIMAAggggAACCCCAAAIIIIAAAggggAACCCDgugABa9dJaRABBBBAAAEEEEAAAQQQQAABBBBAAAEEEEAgHAEC1uGocQ4CCCCAAAIIIIAAAggggAACCCCAAAIIIICA6wIErF0npUEEEEAAAQQQQAABBBBAAAEEEEAAAQQQQACBcAQIWIejxjkIIIAAAggggAACCCCAAAIIIOBXYP78H+S2PgNk/IQX/R5nJwIIIIAAAsEEcgc7yDEEEEAAAQQQQAABBBBAAAEEEEAgFIG9iYmyes1aKVGieCinURcBBBBAAAErwAxrHgQEEEAAAQQQQAABBBBAAAEEEEAAAQQQQACBqBAgYB0Vt4FOIIAAAggggAACCCCAAAIIIIAAAggggAACCBCw5hlAAAEEEEAAAQQQQAABBBBAAAEEIixw/PhxWbd+Q4SvQvMIIBBIgO9gIJno208O6+i7J/QIAQQQQAABBBBAAAEEEEAAAQSykUBi4j7p3vN22bNnr8TF1ZDJL46X2NiYbDRChpJdBY4dOyYvTJwihw4dkvbt20rjsxtmyaHyHXT/ts36/CtZ/stvUq1qFenU8UZXL0DA2lVOGkMAAQQQQAABBBBAAAEEEEAAgWgSOHjwoOTLl1/y5Ek9BLJw4RLRIEz58mWlb5+erg1j7rwFNlitDa5du15+T1ghZzWo51r7gRrat2+/jHn+hUCHpUf3zlLVBJvcKLv37JEJE16yTfXu1U0qVqzgRrNhtfHR9E/k999XmJcDNaXjLTeE1QYnJQlMe+UNmT5jppQpU1oGDbojy7Jk1ncwy4KloeNnNagvo8eMl6NHj0kl831v1eqCNJyVtiqp/2udtnaohQACCCCAAAIIIIAAAggggAACCGS6wMmTJ2Xmp7Nk6bJfZPXqNfLnnztssLrGmWdK7dpx0uGqy6RmzRp++7l12zaZPWeenQXtt0KYOxs1PMtzZuHChVxv39O4z8Z///1nx+Oz2/Px2ms7SFXPp/RtHPrnkHw3e55t5KYbr8vUgHVCwkrbl0OHDrsesNbn6977Hg4Lq3u3zlK/fl177sRJU2T9+o1SsGBBeWTIYMmbN2/QNhcs+FFmfPypxOaKlYcfvE+KFy8WtL4bB5ct/1XeefcD29Qd/XpLgfz53Wg2U9rIrO9gpgw2gy5auXJFufGG6+Stt9+T50aNk7r14qWsebHhRiFg7YYibSCAAAIIIIAAAggggAACCCCAQKYLaID26WdGeQKnTod0BuAqE7zWn6++/laGPDRYWrZs5hyO+O9q1arIa6++JMtMEP2Cls0zLPCnQc3RI59ONr4DZsb50GFPJtvHh9AEFi9ZFtoJp2pfc/VVnvN0NuoHH86QEydOyhtvvis9e9zqOea7ceDAARk5epzs3ZsoN914bYYEq7UPkya9bPt3tkkD0rrVhb7dylKfM+s7GAmk73/4SaZNe0MKFyksY8eMiMQl0txmly43239T//57l7z++tty7z0D0nxusIoErIPpcAwBBBBAAAEEEEAAAQQQQAABBLKEgJ35OniI/GJyqubKlUuuuKK9XHpJW6lQobwcOXJE1qxZZwODuvDhkEeHy2PDHpKLLmyZYWOrXq2q6E9Gljx58kiTJo2SXXLfvn3JPvMhNIGYmBi/weWjR4/K62+8YxtrdVFLqVHjzBQNa9DUKXXj68jV/3eVTbehs5jbXtxavI879fT3pBen2mB1RfMs9+geOLDtfU56t+1fKKxZa5vp3atrepuLivMz4zsYiYHv33/ALuBarFjRSDQfUps6675L55tNapAJ8sWX39jvRokSxUNqw19lAtb+VNiHAAIIIIAAAggggAACCCCAAAJZSmDx4qU2WK2dvrN/H/Gezar7NKdys2bnyoCBg+1M68/+90WGBqy1D5TsIXBrl1tSDOTw4cOegHVLM4u+XdvWKer47tBA8PwFP4jOTh1lZlCPff5Z0YC4d9EXMJpXXcu99wyU/PnzeR+O2Pb770+3bVeoUE7q1Y2P2HVoOOsLXGRe0IwdN8nksj5q09b06N4l3YOKTXcLNIAAAggggAACCCCAAAIIIIAAAghkssCvvyXYHhQokF/+r8OVfnuTL18+6dq1oz22dOkvcvDgP37r+dup6UZ0FndmlmPHjonOroyGomlW0lvcGI8b/UjvOMI9X/NX33VqIcNffv3dE5h22tMA4MjR4+1zd9ml7VLMlnfquf1bn3Un7Umb1q1cad7t+6SLqWoO8K1bt5u0JSdc6WNObMSN72DxYsU8z+YPP/7sCiMzrF1hpBEEEEAAAQQQQAABBBBAAAEEEMhMgX379tvLFzPBk9jY5LNUvft1TpOzZcQzj9tdqQW6dpqZr5+aBRx18bmVK1dL7ty5pFrVqtKp041BZ2dPe+UNmTt3gfdlPdsNGtQLKc+rBg/fM7NdvzR/br9tuwbnTtoF+urVrWPyGV9nZ417Go/wxjffzJaFi5bIkqXLJTFxn13EsuFZ9aVTxxvTfGU3xrP9z7/kiy++tjnBV5j7orm6tR9tzazm5s3OS3NfoqFii+bn22dp7rwF8uJLU6Vli/NFn2Etb771nmzZ8oeUKFlC+t3eO8O6q6YaLNfSpk3ac1fPmTNfXnn1Tdvf50c/I39s3SYffDBDfvs9QTZt2iyVK1eWxiYfts7I1d/+yseffCYzZnya4tDkl8aJvnD66uvvbK5kbdsp55/X1POddval9zs4x3x/XzHfY53xPm7sc1K0aBGn6RS/n3p6pFngda00bNhA7r6rf4rjzo7l5t+RL7/6VtauW2/u61YpZtrUv/y4/LJLpF27iwP+u6XpWSZPecVpxnz3Eu22228QYwAAQABJREFUvnDr22+QZ7+zkd84PR8kt7Ub30HnWs7vNq0vkoULl5iXCBvMi8CDUrhwYedQWL8JWIfFxkkIIIAAAggggAACCCCAAAIIIBBNAlWqVLLd2bFjp2zbtl0qVarot3t58+YVDXClVjQYdN99D8umzVs8VXU24mqT1/fRoU+KpoUItFDerl27k53nacBslClbxvtj0G2dlTrkkeHy88LFtp4GzwoVKij//HPIBtGXm3QRjz7ygLRpnfagYtALBjn46mtv2WCkd5WEhJWiPxrMH3Dn7d6H/G67MR5NnzFg4H02jYZzEfX+9ru5okHGZ556zNmdZX4PHHC7eQmwzM6en/DCZHn4oftsoPqtt9+zYxh4Z9+gAVO3B6qBVS0FChSQmn5ycQe63n6zOKR+X/45dEj0Zc/ddz9gfzv1NfiuPzPNS6DHhz0sF1zQ3Dnk+a0vnry/c86BE+avG95590Mb1Hf2Ob+PHksKrjuf9Xd6v4ONGjWQrebfEf3Oa9qWKy5v7928Z1tzwn9tXuToy6+Ot9zg2e+9cfz4cXl56mvy7nsf2hdOzrGdf/9rffR7PMu8gBk98imbf9857vzWv6rQ75hv0Xb97S9cuJBvVc9nN76Dnsa8Ns4yL+K06As1/WuX9L44ImDthcsmAggggAACCCCAAAIIIIAAAghkTYGzzYxNnVmtAZOHTZD30SH3y5lnVg9rMEcOH5FHhz0hx44fk8eGPiS169SSWBMsTlixSl6YONkGw95+5wPRNA06Q9K36GzYXj2TL1SnAav/zfrSt2rAzxooGzrsSRus1sXVNHWEBto1iKjBwGnTXpfPTZDrqaefE13k7OxGZwVsK70HPv3sc0+wWk379ukptWvFyb///iuaymLipCky4tkxQS/jxnh05ua95iWCBq1jY2Olc6ebpHWrC6WseQnwxx9b5aPpn8jQx56SUqVKBu1LtB3U/t7Wu7tduE5nEF/avp289sbbZpbzMRv40zFmZPnTzGDXUrp0qbAuqy97NFidx7wceswEpmvXjpP//v3PBDJ/lykvvyoalH78iREy8rkn7cx474t06XyLZ8b+qlVr5I4777GH9SXUS5On2b8u0EUta9asYe57admzZ6/891/KgHV6v4Oa5uK8c8+R73/4SWabmeOBAtZz531vg9WaiujCC1t4D8Wz/c23c0T/vdDyfx2ukNbmBVNczTPtvyfzzPmzPv9S9CWBLtrZvVtnz3nOxjlm4dSXJ09wPoqm3dAZ5HrN8WNHevY7G/rd8Ffc+A76a1f3lSp1+llxnp9AddOyn4B1WpSogwACCCCAAAIIIIAAAggggAACUS2gM0Gv/r+rZPqMmbJx4ybp2fsOOfvss+TCC1rIOU0am3QE/mdc+xuUphvIkzePTHt5ok1D4NQpV66sVK9WVXr06mdnXuqs3i6db3YOe34nzXBMPssxf/78nuNp2dAc2xos01nVI599UmrVquk5rWyZ0vLA/XfLfyZtw7cmGDZ+wou2r54KLm+88ea7tkUNEk56YbQNGjqXuKRdG5ve4dZutzm7/Ob6dmM88xf86Jl9+4h5IeE9szw+vrYMeXiwfaHwvklDoSWzc457QNKw0eGqy+1M3d/M7NSHH3lMDpuXJjqbPliKiTQ0G1YVDShrKR1m4F8XoIwxQdOpL461L1icTlSrVsUGgbv16Gv/SkAXdtRULt5FXzrFxiaFK3PnPh22/OKLb6RKlcoy7NEHpUaNM7xP8bvtxnewffuL7XdwqUmBoyb64si3zJk73+66oGXzZGP1rqdpTnRcrS66INn91IC4/uTJk8cuVqj/nvgLWGt6jbi40yk21pm0G1o0MB0XV8P7UkG33fgOBrqALgaq5vqywnl+AtVNy37/Ife0nEkdBBBAAAEEEEAAAQQQQAABBBBAIIoE7uzf185szpUrl531uGTJchnz/AvSqUtPuaVTD5lqZiVrSoK0FG1Lc+b6Fp1hXK9evN2tuZQjVX5PWGGbbtmyWbJgtff1unftZD9u2rTFzDL9z/uQa9t79yaKplnR0rdPj2TBauciOhP35puudz76/e3GeJz0B/Xr100WrPa+oAb8ihQJnG/Yu240beuLiXvvGWCCl7ltsFr7prOuy5iXExld9u0/FbAOc4a19rfPbd39BnB1NnzHW5Jynjv3My3j0xdRTz05NE3B6rS0l5Y6mtZCnyVNvaFpQXyLpgNZtiwpfUr79m19D3s+T3phjMz+dpYMNcF2f0WD1lp0FnmkvsfavhvfQW0nUHH+soGAdSAh9iOAAAIIIIAAAggggAACCCCAQI4T0FmMOuP5rTenSo/uXaRq1Soeg+3b/7R/ct+1ex+7gJmmWwhUdOZi/VNBaX91KlYob3fvPBXI9Vcnvfs0D6yWWnGnZ1b7tlm5ciUbVNeAmjPr0rdOej+vXLXaNqEB1Qb1k/LU+mvTyWHr75juc2M8Tl8amIB1oFKwYEGpYV4qZMVS1ARHvV+ShJI/2s3xauoILTrzN9zSqGHgFDWNzOKEWnbv2ZMsx3Wwa2lKjirmec/IouNv3foCe8nZs+eluLSTDkQDtY3PbpTieFp3FDqVc1rzYOvs9EgVN76DwfqWJ09ee1j/PUpvOT23Pr0tcT4CCCCAAAIIIIAAAggggAACCCAQBQIVypeTrrd2tD87d/4tixcvFQ0uLTK/NZjy1tvv29y3mlbDXylRvLjfmcRO3YImVYMWXQguUmXDho22aU1HoHl6A5XcuXOZXNIia9eul7rxdQJVC3u/zvrUUtzkydY/+w9U/OXy9q7rxnicvlQ49cLAu33vbe2LLmSX1cq48S/alApOv0eOHm9yF48X79QYzrFI/i5WNCn1xa7du8O6TNGiRWx6iEAnV6iY9MJHj2816Xc0xU1qpWnTxqlVicjx9u0ulpkzZ9lFThPNjGrNbe0UJx1Iu7ZtbMoPZ3+g35s3/yGrzAugjZs2yz6zkOIhszjl4UOHZffuPYFOcXW/G9/BYB3afep50fuf3kLAOr2CnI8AAggggAACCCCAAAIIIIAAAlEroCkILjezM/VHA0XDzWJv69dvtAsWduhwud8gb4yZqZ3ZxZmluMwsxqY/qZVDJvAVieLkgc5t0qwEK7lM4NwpOhvbt7gxHuf9QGoBXOe4v3749itaPv/08yKzuF/SLF7964BXX3vT5mJ/590P/eZJj2S/ixVPCsqGG0h1/AP1MXcur3Ckc1MDVT61P7UXIqmcHvZhTT+j19a/0Jg//we56srLbFvJ0oFccnHQ9nft2i1jx02SefO/D1ov0gfd+A4G6qPOyk9M3GcPF/MK6geqn9p+rycktaocRwABBBBAAAEEEEAAAQQQQAABBLKuwBnVq8kTwx+VTp17mBzXJ+XXX3/3G7COhhFqHm4tvXp2lWbnN021S6VLpz5LNdVGglQ4cfxEkKNmtnkqx90cjxN4C9Sh1I4HOi+z9h8+ckRGj5lgL6+LWOpfB+w3eaQ//OgTm8amVasLMjQdRqmSJWxfNNAaTnFecgQ+N/S/TCgT4ec7cF9F2puA9CuvvmlfKDgBaycdiC5EqnntAxVNPTTk0eGi+bp10cYWLZpJC5MbWxegLFCggPmrhfyybt16GXjX/YGacG2/m99B307tMbnunfse7mKd3m0SsPbWYBsBBBBAAAEEEEAAAQQQQAABBLKcgAYof/s9aZFCDUprYChQ0fzTFSpUsAucbTOzJqO1lCtXVnTxMg0yaVAss0rZMmXspfcm7pWjR48GzGvsLMyolZ3AlXef3RiPpo7YtHmLaJqXYMXpi79+BDsvs45Nnfq6XdhS003cccdtthv6omKemdGrYx05cqw8P2aEZNSMcc1V/t770+3zp7OsncX00uqjM2118cC8eZNyGvuet2PH6ftXxvwFRFqK5qfPrHLJqYC1LrCoM6t1BrGTDqT9JW2CduvnhYtssForDb5vkLQ0AWvfklH31Y3voG/fnc/r129wNqVBg8C57j2VUtmITeU4hxFAAAEEEEAAAQQQQAABBBBAAIGoFtCg7rDHnpKBgwbLJzP/F7SvOrN6r5kNqKVI4fTnWg16sXQcrFKlsj07UospprVr8fG1bVV1W7NmXcDTVq9ZG/CYHnBjPE5fVq1aE/BaOqN1/cZNAY9H2wF1+2j6J7Zb/fv38eRI1tm3d9/V3+7XfNyzPv8qw7re0CyK6ARR/S02mFpH9EWB5lQPVJxnpYhZZLJypYqBqkXNfn3JpYuK6qKIc+d+b4PWGrzWxVnbXtw6aD/XrUsK5JYuXUqaNzvfb92VQZ5nfyc4KVdC/UsCN76D/vqj+2bPmW8PVahQTjQNU3oLAev0CnI+AggggAACCCCAAAIIIIAAAghkuoAG2bR8+tnnnoC0v0599fW3drEzPVa3blIw1l+9zN7XwOTO1TLHBII2BgjAak7unr37S7cetwesk95x6KzMEqdSREx5+VW/s6d18bg333ov6KXcGI8TsNbFMwMtqqjB371BFqkM2skMPqgB0JGjxtlA6LnnNpF2bZMHP5udf660bnWh7dWkF6cGfa7d7Loumle7Vpxt8tvZc8Nq+uVpr/s971+zQugbb75rj9WpHecJjPutHEU725lULVq+M3nGnXQgTc9pLCVPfTcCdbVw4cL20JEj/5r7fDxFNfX49rs5KfYH2xEXl/QXF9qm/huQ1uLGd9DftfQvLxYs+MEeanpOE39VQt5HwDpkMk5AAAEEEEAAAQQQQAABBBBAAIFoE7jpxmtNuorcNoXCIJMP9sefFibrogZ3dAG7UaPH2/2aOiTQjMdkJ2bSB82Vq3ludRbl4AceTbbwou7TnLgPPjTU5r8tWLCAnHFG9Yj19KorLrVt6+KPgx94RP7Yus0GrjXgmpCwUvrdcXeqgUc3xtOi+fme4PlDDw+zC2cePpy02KSmT5n2yhsyecorUqpkyYhZuNnwBx9+bGetFyiQX+69e4DfpgcOuF10JvKBAwdk3PhJfutEYuc111xlm12xYpX8+deOkC6h6Ts2m9QtDw95XHb+vctzri52OmDgYJv+RGdwX3FFe8+xaN9o0/pCmw7nFzPbffr0mba7mts6tRIfX8tWOXjwoIx4doxs2LDJftZZ6Js3/yF33f2A/BWib7WqVewzoQ0NHfakzJw5yy4KaRs2/wk089qN76BzDe/fP/20SP7555DddfX/Xel9KOxtcliHTceJCCCAAAIIIIAAAggggAACCCAQLQJ14+vIXYP6y3Mm36/mOX7gwaFmUbP8Ur5cOdFZjDtMLmAnkNPwrPoy/PFHzJ/0x0Sk+88+97zNP+zd+BGzsJ6WpUuXy5UdbvQ+JBoMc9I/OAf0z/4H3zsoKehn+q5B+OLFi0v58mVtMPDw4aT2dAb0oAH9nNOS/d66dbv07Tco2T7vvM73m0C4sxCbU2nqlAmibXqXHt272CDjl199KwsXLpHOXXpJwYIF5dixYzZXsaZMGDXyKenWva89zUkn4d2GG+PRtArPPTNcBpjULxoge2bEaBsELFa0qCSa3MJa+vbpaV9aTJ8xM9Ugunf/Mnpbg5SvvPqGvWyvnt1SmDv9KVGiuBlTD/tcfzd7nmg+ZZ15HenS9uJWojPqdeHFd975IMXzGez6efLklTGjnpF+/e+WG27sIjoGnYV78OA/ntN0TM7scc9Os6EzhjXQrWXbtu32t/6nY+eeniCtfj7/vKYy4M6k500/+xY3voPebepM6RYtzk/6iwfTR33+W7ZMmY/a+xzdrlc3Xi5t31a++PIb+err7+yPpszQf5P0JYum0HjyiaFy54B7fU8N+Fm/X/oiQwPgGvQeNSbpJZzmDNeXSMWLF5OPPngzxflufAd9G9V/T95570O7u2nTJlKjxhm+VcL6zAzrsNg4CQEEEEAAAQQQQAABBBBAAAEEok3gisvby+QXx4kGTrRoUFcDYNv//MsGqzVQdM3VV5ng6tNBF2ZM77h01q/OiPX+0YCdFg2ae+/XbSeY7Xvd+iYtyGuvvSQ6k7NQoYKSmJgomr9Zx6VpOnTG5CtTJ0mtWjV9T7WfNQWB77V0pqdTNJWH7/HjJuDlWzRApgvG3drlFqlTu5YN9Ou5GiDTwKEGq9Myqzm949F+aTqEZ595XFq1usDme9aA2b79++0Mcw1W33Lz9b7dj8rPo8dMsPexbt06cu01HYL2UZ/rRo3OsnWSzkuaVR70pHQe1OBml84321Y+/WxW0JzU/i6lfx3w5PBHpJFJ1XPo0GEbrNa/gNDUPXcNvENuvsn/fTr639GkBVG9gtXa/v79Bzz7NZC9J5W0L259B73H5j2jutVFLSVfvnzehwNu33vPAOnerbOnvi6kefz4CTnv3HNktPm3qHTpUgHPDXSgnUkfM/b5EaL9OOOM6nb2ty50qS+RAi12qW258R3UdpyiL7H0ryz05V/3rp2c3en+HWO+2Ce1lYSEBPOlT8pPk+5WaQABBBBAAAEEEEAAAQQQQAABBHKkwMxPZ9m0GxrIHGECi5lV9pkZtzrDWIPVOuNQA53FixXLrO64cl2d7aozcytXrmTH5EqjYTSiQe5du/dItapV0zVLPb3j0ZCWzqYvXapkstm3YQyJU/wIqK/+pcJPPy+ygc4J40YGnbXufPc1kPvVFx97WtSFMDdv2WIWWKwk+fOnLcjrOTkbbejs523b/7RB5erVqiaz1EVNtYT7Vx/ats7azpMnj+jLhrSW9HwHdcZ85669bc54fbnRq2fXtF421XppH0GqTVEBAQQQQAABBBBAAAEEEEAAAQQQiA6BYiY4rT/16sVHR4dc6IXOxAxnNqYLl07WhOZU1p/0lvSOR2d+ay5ySmQE1PfBB+6RgSYFy44dO0VzFTdrFno6Ep1ZXbPGmZHpZBZqNTY2VqqYl03+SriBaqctbbtAgQLOxzT/Ts93UF9Q5MmVS3TxSZ1B7mYhYO2mJm0hgAACCCCAAAIIIIAAAggggAACCCCQTQT0rxNee/WlbDIahuGmQMdbbhD9iUQhh3UkVGkTAQQQQAABBBBAAAEEEEAAAQQQQAABBBBAIGQBAtYhk3ECAggggAACCCCAAAIIIIAAAggggAACCPgTMJlEKAikS4CUIOni42QEEEAAAQQQQAABBBBAAAEEEEAAAQQQ6HDV5aI/FATSK8AM6/QKcj4CCCCAAAIIIIAAAggggAACCCCAAAIIIICAKwIErF1hpBEEEEAAAQQQQAABBBBAAAEEEEAAAQQQQACB9AoQsE6vIOcjgAACCCCAAAIIIIAAAggggAACCCCAAAIIuCJAwNoVRhpBAAEEEEAAAQQQQAABBBBAAAEEEEAAAQQQSK8AAev0CnI+AggggAACCCCAAAIIIIAAAggggAACCCCAgCsCuV1phUYQQAABBBBAAAEEEEAAAQQQQAABIxBfp7b06tlVKlWqiAcCCCCAAAIhCxCwDpmMExBAAAEEEEAAAQQQQAABBBBAIJBAXFwN0R8KAggggAAC4QiQEiQcNc5BAAEEEEAAAQQQQAABBBBAAAEEEEAAAQQQcF2AgLXrpDSIAAIIIIAAAggggAACCCCAAAIIIIAAAgggEI4AAetw1DgHAQQQQAABBBBAAAEEEEAAAQQQQAABBBBAwHUBAtauk9IgAggggAACCCCAAAIIIIAAAggggAACCCCAQDgCBKzDUeMcBBBAAAEEEEAAAQQQQAABBBBAAAEEEEAAAdcFCFi7TkqDCCCAAAIIIIAAAggggAACCCCAAAIIIIAAAuEIELAOR41zEEAAAQQQQAABBBBAAAEEEEAAAQQQQAABBFwXIGDtOikNIoAAAggggAACCCCAAAIIIIAAAggggAACCIQjQMA6HDXOQQABBBBAAAEEEEAAAQQQQAABBBBAAAEEEHBdgIC166Q0iAACCCCAAAIIIIAAAggggAACCCCAAAIIIBCOAAHrcNQ4BwEEEEAAAQQQQAABBBBAAAEEEEAAAQQQQMB1AQLWrpPSIAIIIIAAAggggAACCCCAAAIIIIAAAggggEA4AgSsw1HjHAQQQAABBBBAAAEEEEAAAQQQQAABBBBAAAHXBQhYu05KgwgggAACCCCAAAIIIIAAAggggAACCCCAAALhCBCwDkeNcxBAAAEEEEAAAQQQQAABBBBAAAEEEEAAAQRcFyBg7TopDSKAAAIIIIAAAggggAACCCCAAAIIIIAAAgiEI0DAOhw1zkEAAQQQQAABBBBAAAEEEEAAAQQQQAABBBBwXYCAteukNIgAAggggAACCCCAAAIIIIAAAggggAACCCAQjgAB63DUOAcBBBBAAAEEEEAAAQQQQAABBBBAAAEEEEDAdYHcrrdIgwgggAACCCCAAAIIIIAAAgggkK0FVq9ZK7NmfRX2GGvXjpPLL7sk7PM5EQEEEEAg+woQsM6+95aRIYAAAggggAACCCCAAAIIIBARga1/bJOPP/ks7LYvbnMRAeuw9TgRAQQQyN4CpATJ3veX0SGAAAIIIIAAAggggAACCCDgukDr1hdJ9WpVw2o3NjZWunXtFNa5nIQAAgggkP0FCFhn/3vMCBFAAAEEEEAAAQQQQAABBBBwVSA2NkZ69+oWVpuXXtpOqlatEta5nIQAAgggkP0FCFhn/3vMCBFAAAEEEEAAAQQQQAABBBBwXaBly2ZSt26dkNrNmzevdO/WOaRzqIwAAgggkLMECFjnrPvNaBFAAAEEEEAAAQQQQAABBBBwTeC23t1Dauuaq6+UsmVKh3QOlRFAAAEEcpYAAeucdb8ZLQIIIIAAAggggAACCCCAAAKuCZzd6Cw5p8nZaWqvUKGC0qnjTWmqSyUEEEAAgZwrQMA65957Ro4AAggggAACCCCAAAIIIIBAugVuu627xMTEpNrOzTddL8WKFU21HhUQQAABBHK2AAHrnH3/GT0CCCCAAAIIIIAAAggggAAC6RKoXStOLrqwRdA2SpQsITfccE3QOhxEAAEEEEBABQhY8xwggAACCCCAAAIIIIAAAggggEC6BHr17CqxsYFDDN26dJQC+fOn6xqcjAACCCCQMwQC/69Jzhg/o0QAAQQQQAABBBBAAAEEEEAAgXQKVKlSWS67tJ3fVipWKC9XXnmp32PsRAABBBBAwFeAgLWvCJ8RQAABBBBAAAEEEEAAAQQQQCBkgW7dOkvevHlTnNejx62SO3fuFPvZgQACCCCAgD8BAtb+VNiHAAIIIIAAAggggAACCCCAAAIhCZQtU1qu/r8rkp1To8YZcnGbVsn28QEBBBBAAIFgAgSsg+lwDAEEEEAAAQQQQAABBBBAAAEE0izQqdNNUqhQQU/93r26mdzWMZ7PbCCAAAIIIJCaAAHr1IQ4jgACCCCAAAIIIIAAAggggAACaRIoXqyY3HTjdbZuw7PqS7Pzz03TeVRCAAEEEEDAESBg7UjwGwEEEEAAAQQQQAABBBBAAAEE0i1w4w3XSNWqVaRPnx7pbosGEEAAAQRynkDMSVN02AkJCRIXF5fzBBgxAggggAACCCCAAAIIIIAAAggggAACCCCAQFQIMMM6Km4DnUAAAQQQQAABBBBAAAEEEEAAAQQQQAABBBAgYM0zgAACCCCAAAIIIIAAAggggAACCCCAAAIIIBAVAgSso+I20AkEEEAAAQQQQAABBBBAAAEEEEAAAQQQQAABAtY8AwgggAACCCCAAAIIIIAAAggggAACCCCAAAJRIUDAOipuA51AAAEEEEAAAQQQQAABBBBAAAEEEEAAAQQQIGDNM4AAAggggAACCCCAAAIIIIAAAggggAACCCAQFQIErKPiNtAJBBBAAAEEEEAAAQQQQAABBBBAAAEEEEAAAQLWPAMIIIAAAggggAACCCCAAAIIIIAAAggggAACUSFAwDoqbgOdQAABBBBAAAEEEEAAAQQQQAABBBBAAAEEEPAErGNiYtBAAAEEEEAAAQQQQAABBBBAAAEEEEAAAQQQQCDTBDwB60zrARdGAAEEEEAAAQQQQAABBBBAAAEEEEAAAQQQQMAIELDmMUAAAQQQQAABBBBAAAEEEEAAAQQQQAABBBCICgEC1lFxG+gEAggggAACCCCAAAIIIIAAAggggAACCCCAAAFrngEEEEAAAQQQQAABBBBAAAEEEEAAAQQQQACBqBDwBKxPnjwZFR2iEwgggAACCCCAAAIIIIAAAggggAACCCCAAAI5U8ATsM6Zw2fUCCCAAAIIIIAAAggggAACCCCAAAIIIIAAAtEiQMA6Wu4E/UAAAQQQQAABBBBAAAEEEEAAAQQQQAABBHK4AAHrHP4AMHwEEEAAAQQQQAABBBBAAAEEEEAAAQQQQCBaBAhYR8udoB8IIIAAAggggAACCCCAAAIIIIAAAggggEAOFyBgncMfAIaPAAIIIIAAAggggAACCCCAAAIIIIAAAghEiwAB62i5E/QDAQQQQAABBBBAAAEEEEAAAQQQQAABBBDI4QIErHP4A8DwEUAAAQQQQAABBBBAAAEEEEAAAQQQQACBaBEgYB0td4J+IIAAAggggAACCCCAAAIIIIAAAggggAACOVyAgHUOfwAYPgIIIIAAAggggAACCCCAAAIIIIAAAgggEC0CBKyj5U7QDwQQQAABBBBAAAEEEEAAAQQQQAABBBBAIIcLELDO4Q8Aw0cAAQQQQAABBBBAAAEEEEAAAQQQQAABBKJFgIB1tNwJ+oEAAggggAACCCCAAAIIIIAAAggggAACCORwAQLWOfwBYPgIIIAAAggggAACCCCAAAIIIIAAAggggEC0CBCwjpY7QT8QQAABBBBAAAEEEEAAAQQQQAABBBBAAIEcLkDAOoc/AAwfAQQQQAABBBBAAAEEEEAAAQQQQAABBBCIFgFPwDomJiZa+kQ/EEAAAQQQQAABBBBAAAEEEEAAAQQQQAABBHKggCdgnQPHzpARQAABBBBAAAEEEEAAAQQQQAABBBBAAAEEokiAgHUU3Qy6ggACCCCAAAIIIIAAAggggAACCCCAAAII5GQBAtY5+e4zdgQQQAABBBBAAAEEEEAAAQQQQAABBBBAIIoECFhH0c2gKwgggAACCCCAAAIIIIAAAggggAACCCCAQE4WIGCdk+8+Y0cAAQQQQAABBBBAAAEEEEAAAQQQQAABBKJIwBOwzps3bxR1i64ggAACCCCAAAIIIIAAAggggAACCCCAAAII5DQBT8A6JiYmp42d8SKAAAIIIIAAAggggAACCCCAAAIIIIAAAghEkUBupy8nT550NvmNAAIIIIAAAggggAACCCAQJQI//rhQ3nv/o4C92fn3Ltm//8D/t3cncDaV/wPHv8PY9y37nhCypGRLslX/di2WtKhoUwkhhLSRSIqklNK+iSIku8iWSvYlFNnHMkMY//N9xjm/O3fuvXPnzr0z9879PK/XuPee5TnP8z6Xfr/v+c73cfaXKFFMChUs6Hz25417H9mzZ5fKlSr4c6pzzNmzZ2X7jp3O50D60JPdx8J8UpoEYhuM++Peh96vYNyfQPpwH0swTDJzPu7f+2DMJ5A+1MB9LIHcH/c+AhlLMO5xIPPp9VQPKV++nJ5KQwCBTBKIsQLVJlK9ZcsWqVAhbf+DJJPGzGURQAABBBBAAAEEEEAAgagRmDZ9hrw6amzUzJeJIoAAApkpMGH8GKlR46LMHALXRiDqBZwM66iXAAABBBBAAAEEEEAAAQQQCGOBShUryI03XpdihDt37ZZDBw8528uVKyvFixdzPvvzxr2PHDlySK1aNf051Tnm9Okzsm7dn87nQPrQk93HwnxSmgRiG4z7496H3q9g3J9A+nAfSzBMMnM+7t/7YMwnkD7UwH0sgdwf9z4CGUsw7nFa5vPupA/kxIl4PYWGAAKZLEDAOpNvAJdHAAEEEEAAAQQQQAABBPwRKFWqpLS/9SZ/Ds3EY9pn4rVDcWnmk1I1nEyCMZZg9JFSKfO2MJ9A7T/66HMC1oHicR4CQRZwFl0Mcr90hwACCCCAAAIIIIAAAggggAACCCCAAAIIIIBAmgQIWKeJi4MRQAABBBBAAAEEEEAAAQQQQAABBBBAAAEEQiXgBKzPr70YquvQLwIIIIAAAggggAACCCCAAAIIIIAAAggggAACPgWcgHVMTIzPA9mJAAIIIIAAAggggAACCCCAAAIIIIAAAggggEAoBZyANRnWoWSmbwQQQAABBBBAAAEEEEAAAQQQQAABBBBAAIHUBJyANRnWqVGxHwEEEEAAAQQQQAABBBBAAAEEEEAAAQQQQCCUAk7AmgzrUDLTNwIIIIAAAggggAACCCCAAAIIIIAAAggggEBqAk7AOrUD2Y8AAggggAACCCCAAAIIIIAAAggggAACCCCAQCgFCFiHUpe+EUAAAQQQQAABBBBAAAEEEEAAAQQQQAABBPwWIGDtNxUHIoAAAggggAACCCCAAAIIIIAAAggggAACCIRSgIB1KHXpGwEEEEAAAQQQQAABBBBAAAEEEEAAAQQQQMBvAQLWflNxIAIIIIAAAggggAACCCCAAAIIIIAAAggggEAoBZyA9blz50J5HfpGAAEEEEAAAQQQQAABBBBAAAEEEEAAAQQQQMCngBOwjomJ8XkgOxFAAAEEEEAAAQQQQAABBBBAAAEEEEAAAQQQCKWAE7AmwzqUzPSNAAIIIIAAAggggAACCCCAAAIIIIAAAgggkJqAE7BO7UD2I4AAAggggAACCCCAAAIIIIAAAggggAACCCAQSoHYUHZO3wgggAACCCCAAAIIIIAAAukTqFmjujxw/z1StmyZ9HXE2QgggAACXgU6dbpDEhISpMQFxb0eww4EEMgYgRirFIhZbXHTpk1SqVKljLkqV0EAAQQQQAABBBBAAAEEEEAAAQQQQAABBBBAwE3AKQnCootuMnxEAAEEEEAAAQQQQAABBBBAAAEEEEAAAQQQyFABJ2DNoosZ6s7FEEAAAQQQQAABBBBAAAEEEEAAAQQQQAABBNwEnIC123Y+IoAAAggggAACCCCAAAIIIIAAAggggAACCCCQoQIErDOUm4shgAACCCCAAAIIIIAAAggggAACCCCAAAIIeBMgYO1Nhu0IIIAAAggggAACCCCAAAIIIIAAAggggAACGSpAwDpDubkYAggggAACCCCAAAIIIIAAAggggAACCCCAgDcBAtbeZNiOAAIIIIAAAggggAACCCCAAAIIIIAAAgggkKECBKwzlJuLIYAAAggggAACCCCAAAIIIIAAAggggAACCHgTIGDtTYbtCCCAAAIIIIAAAggggEAYCCxatFS6dX9cxr7xVhiMhiEggAACWVOgT9+B5t/aHX/tzJoTZFYIRJBAbASNlaEigAACCCCAAAIIIIAAAlEncPjIEdm4abMUKVI46ubOhBFAAIGMEti6ZbscPHRITiaczKhLch0EEPAi4GRYnzt3zsshbEYAAQQQQAABBBBAAAEEEEAAAQQQQAABBBBAIPQCTsA6JiYm9FfjCggggAACCCCAAAIIIIAAAggggAACCCCAAAIIeBFwAtZkWHsRYjMCCCCAAAIIIIAAAggggAACCESswN69/8qRuLiIHT8DRwABBKJNwAlYR9vEmS8CCCCAAAIIIIAAAggggAACCGRtgfcnfyQdOt0nt91+l/w0b2HWniyzQwABBLKIAAHrLHIjmQYCCCCAAAIIIIAAAggggED0CAx/5TUZMvQl2bBxU/RMOoCZTp32vehvlJ8+fUamfzczgB44BQEEEEAgowViM/qCXA8BBBBAAAEEEEAAAQQQQAABfwU0IDtx4vv+Hm6Oq1ChvDzx+MNpOifSDl68eKkcPXpM2rRpmalD/3P9Bnn33Q88jiF/gfxSp9bFUrvOxVLtwqqSPXt2j8eFcmP9unWczOr69S4J5aXoGwEEEEAgSAJOwJpFF4MkSjcIIIAAAggggAACCCCAAAJBEzhmBWVXrlqTpv7iExLSdDwHBy4QF3fU5/2ZP3+R6bxYsaIyZvRwKV++XOAXC+DM/v16SZMmV0gBK3h++WUNA+iBUxBAAAEEMlrACViz6GJG03M9BBBAAAEEEEAAAQQQQACB1ATKlisr93e9O7XDZOu27WIHR5taAUpaxgt0va+LFCpY0Fw48Vyi7Nu339yXFStWy8GDh+SJJ/vKmNcyNmidM2dOadM6c7PQM/5OcEUEEEAgsgWcgHVkT4PRI4AAAggggAACCCCAAAIIZEWBMqVLyd1dOvqc2pkzZ+ShR540x1S/qJp07HCbz+PZGRqBa9q1lpIlL0jR+bp166X/gCFy8NAh6f/MEJny4TspjmEDAggggAACtgCLLtoSvCKAAAIIIIAAAggggAACCESkwEcffy6bN2+VHDlipV/fp/yulZyYeE6OxMWZRfkye+KnT58WLa8RjHby5KlgdBO0PmrVqik9HnvI9Ldr99+yf/+BgPo+e/as/LNnr2zdut3U7w6okwg/KZy+sxFOyfARQCCMBciwDuObw9AQQAABBBBAAAEEEEAAAQR8C2jw8oMPPzEHdbmro1SpUsnnCRoYnvLRZ7L05+Wyc+cu0eBu7ty5pFLFitKhQ3u5qkVz8WeNp19//U1mzZ4rm7dstfrZbZXCKCBlypSW665tay2E2EqyZYvxOQ7dqRnHU6Z8JousBRQPHDhoAud58uSRGjUuks4db5fLLrs01T7sA+bNXyhLliyT1WvWmvIbF5QoLg0a1JOHH35AChcqZB+Waa9XNm9iTDTg+tvv66TV1S2SjeXe+x5K8eDgWsuyw53tZZ8V4H7vvQ9l9pyfRLPptek9GvfmKLm4Zg2nn8OHj8iTPfs6n93fDBrUVy6sWsV9c7LPer7209oqI9Llrg7J9rl+0MUmhw8fbTYNGfKMVK5U0XW3816/X599/pVolvmWrdskPj7B+p6Ukpo1qpvfHPCUke6cfP5NoN/ZxMREeaxHLzlxIl7atr1aOne6071r57M+8Hn+hRHm86CBT8uF1iKZNAQQQCCzBAhYZ5Y810UAAQQQQAABBBBAAAEEEEiXgGbcvjxilAliVqtWVe7q7D0gpxfSAPWgZ5+XHX/tdK6rgU8NKm7YuEmGDH1JmjaZJ88Pe9ZrwFmv+c67k+XTz74UDb7abd/+Uyaw+uva32XGD3Nk1MgXfWZ6//XXLnnksZ5y/PgJ00WePLklb968Jti8xgo664/W7k6tHIqePP27mTLy1dftoZhXDfL+MOtHWb5ilbz79huiix5mZsuVK5c1hmImu3rTps0pAtZ6T9zX1jp8+LAcORInPR7vLXv3/pts+Hrs2TNnk23TYLbrvU220/pw6lTqmedVL6wiX345VaZNn2G+T94eXsydO99cS0vWeAtWaxB46LCXZdeu3cmGog9Z9EcfeDw3dIA0adwo2X7XD+n5zmbLlk0qWoH0GTNmWfOZ6TNgPfenpPnog46qqQT1XcfHewQQQCAUAgSsQ6FKnwgggAACCCCAAAIIIIAAAiEX0FIgmzZtkdjYWOnft5fPALEGOF8eMdoEGXPkyCHdu90nzZs1kcKFC8vKVatl4cIlJoC4ZOkyeX/yFNEFBD21H61A5ceffGF23XTj/0nLlldKNSvIue7PDaaPGTNniWZfa9b3fffe5akLs23wkBdMsLpG9YtMFnSti2uakia7d/9jZYB/KjOtoPe7kz6Qhg3rJ8sidu9w2bIV1rGz5bb2N0mrVldJWSvLe++/+2Tqt9+bQOXhQ4flHaufvn2Sany7n59RnzXQf+TIEXO58uXLpbjsj7OnOdu03vUvv6wyn8eNn2iC1Zrx2/DSelYGfWWxItvmPhY8v8CjfaIGxL/56mP7o3k9fvy4dLmnW7Jtvj5c07a1CVjrgpGaRa33xb3pd2n+gsVmc9u2rdx3m896zOChL8rff/8jpUqVlHvv6Sx169YxmeGLFi2R77+fZeagWdofTJ4ghTxkwQfjO9vOGp8GrDXgv379RqlZs7rH8c5fsMhsb9Pmar9+w8BjJ2xEAAEEgiRAwDpIkHSDAAIIIIAAAggggAACCCCQcQLbtu2wgsJJwUkt3VC1qhXI9NG0nISWZdA2bOhAadz4cufoZk0bi/5ccEEJ+XDKp/L1N9NNgFEzVN3b1G+/M9nXWjrkqZ6PObsbXd5Q9EeD4d9MnS5zf1rgNWCtpUC27/jLnNvrqR5y0UUXOv2UK1dGdNtOKyt3j1WvefXqtT4D1poJPOCZPtLWCjTaTYOfGqCOP3HCBFbnWHPv0+sJr1nj9nmhfNUyIKdPJ5XzqHtJ7RSX0ocOdssWk+SupSwWLf7ZZJlrwDd79uz2IR5ftQxL0aJFku3TuuZpaZqpX7lyJdm+fYfMm7fIY8D6jz/+NCVctF9Xd/1st1+szPY9e/aYcjP6fXO9x3fcfqtc3bKFdOzc1dRQX7nq1xQZ59pPML6zaq1lR/61HmJoUNpTwFp/u2DPnqQMdm8BeHtevCKAAAIZIeD811ef3NEQQAABBBBAAAEEEEAAAQQQCHcBzdZ9afirJgCqNYlTKwWi89EAorZaF9dIFqw2G8//cdttN5uAXtmypU3A2HWf/X78m6Nl3twZMvjZ/vamZK8atNammbX//fdfsn32hyOH4+y3puSF8+H8Gw16j3tjlMkWTm1umrXrLWh6ww3XmR61BvKBgwfdL5Nhn7Wsx6vnS5YUsQLKnjKsPQ1GS500b9bYlEZJLVjt6fxAt2lWsjYN8HqKlcybn5SNXLv2xVK2bBmPl9HvgX5PZs2cmixYbR9cvHgxsUuJbNu23d6c7DUY31ktaWJ/P+xxJ7uI9UED89o0WF+pYgXznj8QQACBzBRwHjV6q8uUmYPj2ggggAACCCCAAAIIIIAAAgi4C2hJDqcUSL+nTEkQ92PcP+/e9bfZdImH7F77WF2c8K1xr9kfA3rNlz+fOU8XvEtISJCcOXOm6KdChXKmXnV8fLy89fa7JnO4QYO6AZViqGMFTb01ra9st31Whq3WJw5l22jVptbFI7Xp/LWOttZqnvrtdLPwn9axHmhlg/vbNOta63hndGtjLbj49sRJpt62ZuVrYNpuGsBesHCx+WgHgu19aX21vyt2HXP384P1ndUAvP7mgGZZa5kT14Uq9ZoLFiYFrO1Avfs4+IwAAghktIATsPb01DCjB8P1EEAAAQQQQAABBBBAAAEEEPAloKUaJn/wkTmkc6c7RGsb+9P+/mePOUzLIwSj6aKJGzZsNKU94o4eEw0+J8QnmEUTU+tfM6gfefgBs1CiBnSf6t3fZOo2vLS+1KpVUxo1aigaPPen+ZpP3nx5nS4SM+C3qnVBS28td+5c8tILQ6RBg3reDkmxXQP7vuaX4oQgbdDs5wb161m1zdfIvPkLkwWs7XIgWmrkaqt+eWpNF/T87bc/ZJv1vf3H+g7qQ4x463sSb73q4pO+WrC+s5rRrqVAtIb1fCs73DVgbZcD0fI3rVu19DUc9iGAAAIZJuAErDPsilwIAQQQQAABBBBAAAEEEEAAgQAETCmQl0eZUiBas/ruLh397uX06aTyHHnz/i+I6/fJLgdqBvGY18fLQmvhvPS0G66/1tTMfnvi+7Jly1ZTQkTLiHw77Xur1nQ2udQKXvd4tLtUrFje52U81dn2eUIIdxYoUECyu9T9LlAgvwn21qlTywSqS1uLD6allbEWkMys1q5daxOw1sUVH7Pug/1b6XZZjcZXNBKdr682Y+ZsmfjO+3LIWvgykBas76xeWxeT1IC1jv/hhx7433zOlwPRxT2LFCkcyDA5BwEEEAi6gBOwtv/xDfoV6BABBBBAAAEEEEAAAQQQQACBIAh88umXomUntJ5xv6f9KwViX9augXzq1Cl7U5pfddHAgc8OM4G/QoUKSlNrocamjRuZoHKePHmsBfZym+DzEz37+tW3vVDj7t3/WMHR1aLZuytX/yqHrQDnCqvm9v0PPmpqWbsu2OdXx5l00LsT3whqRnSJ4qEtYeKLqXnzJqL3VB9Q6H3RoLtrOZB27Vr5Ol0WW4tFDh8x2hyjJUWaNrnCCtrXFV0QM2+e3Oa70u+ZIdaimr967ScY31m785ZWNvjYNyfIvn37TVmQWhfXNLu0Tre2dm18z8ccxB8IIIBABgk4AWtKgmSQOJdBAAEEEEAAAQQQQAABBBBIs4CWAnl/8hRzXqeOt3tcyM5Xp6Ws7F4tv6EBu0Db8l9WmGC1nv90nyelmRWwdm+BJIOVK1dG9Ofmm643QdElS5bJkOdesjLJT8uEtyfJqyNfdL9MVHzOzOzxPNbDhyuvbCqzZv1ospI1YG2XA9GHFVc0usznPXhvclLZGi1Z8+bYVz0ee86q8+2rBeM7a/dvj3nxkp9NWRANWG/YsEn27v3XBOabNWtiH8orAgggkOkC2TJ9BAwAAQQQQAABBBBAAAEEEEAAAR8CWgrk5eGjTSmQypUryT13d/ZxtOdd5cuVNTs2bPReNzguLk5eHTXW/Gh5Dve2Zcs2s0lrHDdpfIX7bvN5vRUETE/TgHezZo2d+shbrCA7LXMErrEWK9SmWcia5GeXA9FsZV0Q0lvT7+uOHX+Z3TfdcJ3Hw/SYzee/Tx4PsDYG4zvr2redFa51rF3n08IKzGuNcRoCCCAQLgJOwDqQp8DhMgnGgQACCCCAAAIIIIAAAgggkHUFPv3sS9HF4TTjtl/fnqIL3qW1XXJJbXOKltrQvjy1tyZMkmnTZ8is2XNFg9LuLX/+/GaTLqSXmHjWfbdouZG5P81Psd19w+dffC1d7ukmjzzaU45aCzZ6aoULJy26WLxYUU+72ZYBAvXq1ZUSJYqbhTR14cQFCxebq2o9aF9NS3loeRhturiip7Zg4RI5fvy4p13OtmB8Z53OrDd23e19+w/IunXrTSBe97c7H5h3PZb3CCCAQGYKOAFrSoJk5m3g2ggggAACCCCAAAIIIIAAAp4EtluZqu+9n1ReQcswJFplFP5cv8Hnj5Y6cG833vB/Ur58ObO5b7/B8vOyX0xfumHnzl3ywYefyMwf5pj9rVpdJblypcw4rVnzIrNfA41an3jbth3ms/7/6b/+2iU9n+pnSiyYjT7+qF79InPNdX9ukBdfGmnqJNuHa9B70aKlVuB8ptmkdY9pmSOQLVuMtGnd0lx8zNjx5j5p1nPNmtVTHZB9zJSPPjMlOOLj4805+jr12+/khRdfSXXRxmB8Z10Hqg96rrayw7W9OX6i+a7qgxkNzNMQQACBcBJI+2PpcBo9Y0EAAQQQQAABBBBAAAEEEMjSAp9/8Y2p5ayTXPrzcvOT2oRz5swpc2Z9m+wwDdZp3emBg56TI0eOSL/+g01QulDBAqIZp3arVq2qPNHjYftjslet+3tNu9byg1XXePacn8zPBReUMJnVcXFHpXTpkvLC84Olx+O9k53n/qGule3dscNtootIauC8/e13mXN1kUEtKaK1q7XpYosP3H+P++lZ8rOWYll1fgFCuxzLV19/K8uWr0g235EjnpcyZUon22Z/0MUrH3rkSfujeXVNzuvdZ6BZsNP1gNQWimxrZR9//MkXpv65ntfOuv/+tB6PdpcHuj0mx44dk8FDXzS/FVC6dGnZvXu39aDknHR78F7zkEOz+b21YHxn3fvWbOpvp30vf1oPS7S1btXS+s2FGPfD+IwAAghkqoCTYZ2po+DiCCCAAAIIIIAAAggggAACCHgQ0Fq/wWqXWAvnffD+29Lq6haSN29eE2i2g9X58+eTrvd1kbGvj/RZz7d3r8flvnvvcjKwdRHHs2cTpdHlDWXUyJc8lhLxNP6Hut8vgwY8Lboon7Y9e/6V335fZ4LVBa0g+v1d75bXRg13ruOpj6y07cCBg6KBajtYbc/N3ma/nj59xt6V4lXLtGiA2PXHteyGZje77tP3Z1NZ+LBypYrOAp9aSrVtm6tTXNfThooVy8sbY0c62dg67l27dkvFChWke7eu0rnTnZ5OS7EtGN9Z105r1aopZcuWcTZRDsSh4A0CCISRQIz1tPGcjmfDhg1SpUqVMBoaQ0EAAQQQQAABBBBAAAEEENCaypp9quUwhr/8HCBBEtD/K7zfyqz+9999UrJUSSlhlUZIy9pOWprk73/2yJkzZ6RSxQrJztUMWm3+Zq5qUHWvNY5TVm3s0qVLSZEihZP1F6Qp000mCWhgXL8r5axAsV0HXYei30GNyFhxcL/ud3q/s/b0H+3RS/74408TiJ84Yay9Oepfb23fWQ4eOiQTxo+RGjWSyv9EPQoACGSSgFMS5HzcOpOGwWURQAABBBBAAAEEEEAAAQQQyDgBDU5rOQ/9CaTpApBaz9hT8zdQbZ+rQcwLrR9a1hQoUKCA1KheIMXk9DuowWp/W3q/s3qd1WvWmmC1vu/Y4XZ9oSGAAAJhJ+CUBEnLk+SwmwUDQgABBBBAAAEEEEAAAQQQQAABBBDwKqC/TTBq9Btmv5YFuapFM6/HsgMBBBDITAEnwzozB8G1EUAAAQQQQAABBBBAAAEEEEAAAQSCL/D9jFny5VdTZdu2HaZzXczxsUe7WSVrnBzG4F+UHhFAAIF0CDgBa0qCpEORUxFAAAEEEEAAAQQQQAABBBBAAIEwFNCFQe1gdbGiRWXggD7SoEG9MBwpQ0IAAQSSBJyANSVB+EoggAACCCCAAAIIIIAAAggggAACWUvg2mvaSL16l0jFCuWlaNEiWWtyzAYBBLKkgBOwzpKzY1IIIIAAAggggAACCCCAAAIIIIBAFAuUKlVS9IeGAAIIRIqAU7CIkiCRcssYJwIIIIAAAggggAACCCCAAAIIIIAAAgggkDUFnIB11pwes0IAAQQQQAABBBBAAAEEEEAAAQQQQAABBBCIFAEC1pFypxgnAggggAACCCCAAAIIIIAAAggggAACCCCQxQUIWGfxG8z0EEAAAQQQQAABBBBAAAEEEEAAAQQQQACBSBFg0cVIuVOMEwEEEEAAAQQQQAABBKJSoGaN6vLA/fdI2bJlonL+TBoBBBDICIFOne6QhIQEKXFB8Yy4HNdAAAEfAjHWYovndP/69eulatWqPg5lFwIIIIAAAggggAACCCCAAAIIIIAAAggggAACoROgJEjobOkZAQQQQAABBBBAAAEEEEAAAQQQQAABBBBAIA0CBKzTgMWhCCCAAAIIIIAAAggggAACCCCAAAIIIIAAAqETIGAdOlt6RgABBBBAAAEEEEAAAQQQQAABBBBAAAEEEEiDAAHrNGBxKAIIIIAAAggggAACCCCAAAIIIIAAAggggEDoBJyA9fm1F0N3JXpGAAEEEEAAAQQQQAABBBBAAAEEEEAAAQQQQMCHgBOw9nEMuxBAAAEEEEAAAQQQQAABBBBAAAEEEEAAAQQQCLmAE7COiYkJ+cW4AAIIIIAAAggggAACCCCAAAIIIIAAAggggAAC3gScgLW3A9iOAAIIIIAAAggggAACCCCAAAIIIIAAAggggEBGCDgBa2pYZwQ310AAAQQQQAABBBBAAAEE0iawaNFS6db9cRn7xltpO5GjEUAAAQT8FujTd6D5t3bHXzv9PocDEUAgNAKxdreUBLEleEUAAQQQQAABBBBAAAEEwkfg8JEjsnHTZilSpHD4DIqRIIAAAllMYOuW7XLw0CE5mXAyi82M6SAQeQJkWEfePWPECCCAAAIIIIAAAggggAACCCCAAAIIIIBAlhRwAtZZcnZMCgEEEEAAAQQQQAABBBBAAAEEEEAAAQQQQCBiBJyANSVBIuaeMVAEEEAAAQQQQAABBBBAAAEEEEAAAQQQQCBLCjg1rLPk7JgUAggggAACCCCAAAIIIIBAWAqsWLFKfpw7X/LnzyePPtJdsmWLCctxMigEEAiuwNGjx2Tc+ImSeO6cdOl8p5QvXy64F7im9rYAACWSSURBVKA3BBCIeAEnw/qc9Q8FDQEEEEAAAQQQQAABBBBAAIFQCxw4cFCGvTBCfpj1o5QpUzrDgtXj33pXhgx9SebPXxTqKaa5/8TEc3IkLi7N53ECApEmULBgAdHf8p9l/f0fOuxlOX36TKRNgfEigECIBciwDjEw3SOAAAIIIIAAAggggAACCPxPQJOlnreC1XFxR6VKlUpyy803/G9niN+tWLlKtm7dLhUrlperpHmIr5Z697t27ZZvpn4nmzZvkS1btkpCwkkpVrSo1KhxkdSvf4m0v/UmK5jv5Jk5HS79ebl89dW3EmPtG/hMHylcuJCzz/3NvPkL5bvvfpDq1S+Sbg/e6747xec3x70t27btMAHFYc8NlDx58qQ4xnXDzB/myI8/znPd5LzX7HnNnq1cqaJceWUzyZHDewjiu+9/kHnzFpoHGL2e6uH04f7m99/XyfuTPzKbr7mmjbRp3dL9kHR//nnZL/Lll1ONwchXXkh3f3SQUqB7t66ycNES2bx5q7w9cZL1WxbdUh7EFgQQiFoB7/+1iFoSJo4AAggggAACCCCAAAIIIBAqgWXLVsiaX38z3T/5+CMeA7KhunY49asGg559Xo4dO5ZsWAcPHZIlS5eZnxUrVsvgZ/tLvnx5kx2zb99+Wblqjdn23vtTpOeTjybb7/ph79595lgNbqfWjh8/YQXQpzsZr8uWr5CWV13p87S///7HGYuvA8uXmyJPWuNseGl9j4ft2vW36afK4cMe9+vG/fsPyKAhL8jhQ4elfr1LrLGF5qGDXkd9WevL661I9w59yNL1vi7y+ti35Kuvp8lt7W+WkiUvSHe/dIAAAllDgIB11riPzAIBBBBAAAEEEEAAAQQQiAiBTz79wozzsssulbp160TEmIM9yF9+WSX9BwyRM2fOSIUK5eUuq45vTSurulChgrJn779WxvJ8mfrtd7L8l5Xy+BN95J2Jb3gNnk7/bqbcdtvNUr5c2XQPUzOLXcszLFiwJNWAtX1RHbsGIF3bkSNxsn37DiuTdqns2v23PN13kLw17jW56KILXQ/z6/2pU6dkwMDnTLC6bNky8tzQgRIbS0jDL7wwPUh/u+Kjjz+XgwcPyedffC09HnsoTEfKsBBAIKMF+Nc9o8W5HgIIIIAAAggggAACCCAQpQIbNm6Stb/9YWbfptVVUaogVkmLKSZYrYHX8W+ONgtP2hiFChWSGlb5jtq1asrgoS/Klq3bZP2GjXJxzRr2Iclez549KxPeniTPPzco2fZAPixcuMScduml9WTVql9FM6z/++8/yZkzZ6rd5c2bR26+6XqPx2nQumev/nL48BF54cVX5L1J49OcWf/KyDGycdNmyyq/vPziENE6yLTIFtByNy1bXmnKr3w/Y7b1wOPuFL9NENkzZPQIIBCoQOq/ExRoz5yHAAIIIIAAAggggAACCCCAgIvAzz//Yj7lyJFDmjVr4rInet5qVrUGoLVd/3/XJAtWuypcZZW7sDOR7UCy6359X6RIYasudA5ZZGUwa23n9LSTJ0/JLytWmi4e7v6ACQgnJCTIipWr09OtObdy5UryyMMPmvc7/topWv4jLe3Tz76UOVadbA1wDhnc32Slp+V8jk0pcPz4cfMwIuWewLfow5N/9uw1deKPHk1e6sZbr62ubmF26Xft17VJpYK8Hct2BBCIHgEyrKPnXjNTBBBAAAEEEEAAAQQQQCBTBX5d+7u5fqNGDdOUSTnlo89kzpyf/Bp7iRLFJdCF8tatWy8jR70uiWcTpV271tKp4+1+XTMtB2md6MTEc+aUokWL+Dy1f99esm//fq/ZxJqhrZnYn372lYx/6x0ZZ2VrB9o0WK1B61KlSkq1alXlikaXyWzLXIPlTZtcEWi3znmutau3bU9a+NLZ6eONlk/RDHJtj/d4SC5r2MDH0eG3S00/+/wr0e+WZsvHxydYC0uWskrAVJe7u3T0WrdZF7P89NMvzcKab7z+isks9za7Ea+8ZvqvXfti6dP7CW+HmWM+sYL/K1eusRb4TDDHFS9eTFpbv+3QqeMdpiSNt5Pvve8h0QVTXdu117aVDne2t76jB+S99z403xd9IKNN63+Pe3OU198MsPvR3xzQ79xeqxTOmjW/BeW7ZvfNKwIIRK4AAevIvXeMHAEEEEAAAQQQQAABBBCIGIHTp0+bgJkO+JI6tdM0bq1xq5m5/jQtYRFI27Bhkzzdb5BoQLl165ZWIO62QLpJ9RxdbC5//nzmOqushf2usQLj3lqVKpVEf3w1rX89Y+ZsWffnBpm/YLFc1aKZr8O97rOzuJs0bmSO0SC1BqyXLF0umjmbPXt2r+f6s6NAgQImiKlBz7i4o/6cYupeDx32sgnwa7kRrXkcSW3z5q2i49+1a3eyYW/dut1kIc+aPdeqxT1AbHPXgxrUryvDR4w2QeJFi3+Wa69p47rbea+Z0rPnzDW1x2+//RZnu/sbXUSyX//B1nGnza48efKI1gU/cOCgeeChD5NeGz1c8uTO7X6q+ax//9wD1oetBTK1TnmPx3ubgLPriXrs2TNnXTd5fV/HCrRrwHrtb0kPtLweyA4EEIgaASdg7f4PT9QIMFEEEEAAAQQQQAABBBBAAIGQC2jQ2Q6WaVZnWto9d3eSW2/xHqzc++8+E4zT7M6OAWRFb9myVXo/PdAEkVtedaUM6N/bKj8Rk5YhpunYBvXrWQsRLjEB4fLly5lM7kAXENRAcJe7Osib4ybK2xPfk2ZNr0jzYoS60KIuuKitWdPG5lUXxcyRI1aOHTsma379TVwzpM0BafxDg7Z23KFM6dKpnn3iRLw8M2CodU+Oi9bU1uzqSGo6V61B/vff/5gM4nvv6WwWGdXM40XWvf/++1nmIczw4aPlg8kTrOzmQsmmV7LkBeb4Xy37efMWeg1YL16yzASrtc74VS2aJ+vD/qB9qKX+/dNSM90fvE9Kly5lSoKsXr1WRox8TfSBzeDBL8hLVn1wTw8nfpw9ze7OLBiqme/axo2faILNF15Y1fqO1LMesFQW60abuRUsWNA5x9ebYsWS/j3Ys+dfX4exDwEEokjACVhH0ZyZKgIIIIAAAggggAACCCCAQAYLHImLc65YvFhR570/bzQrWX88Nc2ofv6FV8wihtdd105uvOE6T4d53bZ9x1/Sq/cAE5i9snlTGTTw6TQvCOi1cy87Hnu0m6kNrWUZ3p30gXw77XtpcWUzadz4cqlTu5bkzp3Ly5meN99y843y9TfTTHB02vQZVnD/Rs8Hetm6Zs1aE6zXzO+6dZOy3/Plyyt1L6kjmpmr2dfpDVh/OOUTc3VdNLF27ZpeRpK0WUumDHthuOzcuUvKlysrzw0Z4DGI6rOTTN75y4pVsmfPHnMvhw0d6NQj12HdcfutcnXLFtKxc1fRvxcrrQUu7VrOrsNu1+Zq0WDzqtW/mu+nPpxwb/PnLzKbmjRp5LUe+gTrQYZmU+vDiKGDn3G6yJUrl/nOvTZquNzb9SFZ/stKWWpl1DdvnrK+vOsDlWwxScuh6UMFzf7W0iYakPcU6HYu5uNNifMPsPThRGJiYsj//vkYCrsQQCBMBJxFF/UpHw0BBBBAAAEEEEAAAQQQQACBUAgcjTvmdJvWDGvnRA9vRo8ZJxs2bpLqF1WTnk884uEI75s067dnr/4maKglMAY/2y/goJv3q6Tco9mzE8aPEc1K1aZlGb76+lvp3WeAXH/jbTJg4HMyb/5CvxfF00zoBx+4z/Q1efLHooHEtLQFCxebwy+3sqpdA5PNmiVlWy9avNSpu52WfrWUyLZtO2TI0JfkJytLWFvHDrdJ3rx5fXbz7qTJYi/QqUFQXVgy0lqjyxvKvLkzZNbMqcmC1fY89O9A5UoVzcdt27bbm5O9trAypjWorL85oIFh96YB3pWrkhbFbGsFtz01faCzefMWs6vrfV08HSIVK5aXllbmtbaNmzZ7PMbTxunfzZTm1nfk/q53p+vvTbHiSQ+wNCtdM/ppCCCAABnWfAcQQAABBBBAAAEEEEAAAQRCLnDmbNJibHqhYAUgp02bITNmzDKLxQ17bqBoWQR/2z//7JEnevaVw4cOm5ITQ60sXtdgrXs/uvDjjz/Oc9+c6uci1sKKo199KcVxGiScMP41WbZ8hVlQ8udlK0wWrJbnWLzkZ/NToUJ5GTigjwnGp+jAbcPVLa+Uz7/42pR2+Ojjz6SbVfbBn6YZrVpWQpv74opaW/k164HAIcvoj3V/WrXHa3nt8t9/98st7Ts5+3V5vjirvrH2bzfNgO/c6Q77o8fXHTt2miC3Bqo14K21k994823p9VQPj8dH8sZ8Vka7Nq2b7qlplruWeJn70wLzAOM6a5FD12aXAylslRPRALmntt4q9aHfKX2oUblyJU+HmG368ESvk5aAtf590WB1epvrvwdn/Kx7nd5rcj4CCIS3gBOwtmtJhfdwGR0CCCCAAAIIIIAAAggggEAkChRyqWd74OBBueCCEumaxro/18vrb4w3taafHdRPNGvZ36Z1hTVYrXW1tVWpXNkE9Hydv//AAdHyIWltx094DkZqPxrw0zIN+qP1hf+0Fk5c+vNyKzi5SP616nJrSYxHH+sl7707TrTWta+mvzX9cPf7zby+/Opbs0BhiRLFfZ1i9v322x/WwnlHTIZso0bJg55qWrVqZbNAoJYF8RWw1sC0BrY9NS01og8E/Ckrov3oXPSearkLzTTXMicNG9Y3ZVM89R/O206ePCVqvG37DtGHJFoGJj7e+rFeN/mRzdzOWpRTA8laa/ro0WNSsOD/yoLY5UCuatnc68MWO3tbv2uvjx3vlWrnrl1m3+Yt27we476jQoVyafp7536+/Vl/w8BurvOzt/GKAALRJ+AErKNv6swYAQQQQAABBBBAAAEEEEAgowRcF5U7eCApUBzotQ8fPiLPWgvEaebogw/c61cg1PVac9wypbUch5ZEqFXLe23lG/7vGqlfr65rN36997cetWaZ1q1bx/xodvSnn31pLaL4vglkj31jgowYPizV69Wrd4nJkl6ydJm88+5k6d+vV6rnLLAC0do0m3nosOEpjt+6NalchS4SqbW3vTUNjr/+2ohkuzXYrHPQDGLXBxbJDvLwQbN2r2rRzNzX9Rs2mkX9Xhn5utSsUT3dDzo8XC5km2bMnC0T33nfayDfnwtf1rCBFLWy9PVhwGKrNItmqWtzLQfSrm0rr12dPZ+xnJBwUr6ZOt3rcfaO+DSUkylTJvXFM+1+fb3aD47y5MkTtN++8HU99iGAQPgLOAFraliH/81ihAgggAACCCCAAAIIIIBApAoULVrYZM7qb/dqhnWgTQOrg4e+aOo+a2ZyaiUmvF1HM1efevIxefjRJ00JihdeGimT3hnndcFDLZlg15z21mewtms5jM6d7rQyrHfLD7N+lN9+/0PUzZ//3969W1dTZmT2nLly++23+ByS9qn1qe22wloo0FvTjG8tF6G1wj212Njs4h7AbH/rzVaZkqkmg/vDKZ/Kc0MHeDo12bZy5cpIl7s6mG2amf3swL7S44k+prbxsOeHyxgrKJ4tm7McV7Jzw+nDYqvm9PARo82Qate+2DxIaNCgrlW+ppDkzZPb+p7lln7PDLEyp3/1OWyda+tWV1mO38hPVsa5HbC2y4HoopQX16zhtY/s1n3Rpg8UXn5xiHnv64+Y8wsq+jrG3leieOoZ/Paxvl4PnP9Nh7QuxuqrT/YhgEBkCzgBa/0PFQ0BBBBAAAEEEEAAAQQQQACBUAjoQntVqlQy5SV0Ib5A27jxE2Xt2t9FA5vP9O/tVxDX/VrNmzeR/n2fMucOeKaPPPTwE6JlQrTvp3o+5n54UD/rdfZbJRDyWEFLb8Ff+4INrexaDVhrdqxmlWumbWpNa2Nfb2WDfzvte3nrrXet+tz1vZ6ywapvvH//AbO/24P3pgg4647ExHPy3LCXzTFaFiS1MZsDz/+h2eW33nKDTHrvQ9EM7b/+2mUW+HM9xv29ex1yzXq/7967TMb4b7+vk/cnfyTeFg907yszP79njVObPuR4c+yrHodyzqW+t8cDzm/UDGoNWGtw2y4LMu/8IpZtvCy2aPdnl8rR86pWrRLQ3xe7L/fXYD042HY+i7+Ojxrp7tfmMwIIZG2B8H8smbX9mR0CCCCAAAIIIIAAAgggEDUC9a2SFdo08KmZ0mltWspD6zNrsPf5Yc+KLkoXSKtapbITuLvQCuJpQFSbBnl9ZRkHci33c36xspifePJp86N1q301u1SCZlYXKJDf16HJ9ul8tLzCipWrzeKNyXa6fFiwcLH5VKliBZPR3fKqK63SKMl/Wl3dwgTA9UC7fIhLF6m+veXmG8xYNElOF4MMpGm2eT2rXIo2zdTWBxbh3Mxikefrnd90w3Ueh6rH+FsvWoPe+rBHz9GMeC0Hsmr1GvMdbuujHIhe2K59furUKdltPSwJt/bPnr2yYeMmMyz7HofbGBkPAghkvAAB64w354oIIIAAAggggAACCCCAQFQKaMawtiNxcbJqle9SCO5AW7Zuk5GvjjGbn+7TUypXquh+SMCfO3a43alf/bJVxuHYsWMB95XaifXrJ9XB1qzpz7/42uvhCSdPyg8/zDH7NTNWa1z724oUKSwdO9xmDv/jjz+9nrZwUVI5kKZNr/B6jO6w9+/atVt2/LXT57HuO3URPc341vbj3PmyZ++/7oek+jlbthgZZJUGKVSooJXxnSjDXhhhMo1TPTGTDtCSLlryQ5suruipafBfA8/+tnZtW5tDNbN6kVVuROu317FKjZQuVdJnF2VKl3Iy8ydN+sDrsa+PfUvu7fqwjBr9htdjQrFj3rwFplu9xw0a1AvFJegTAQQiUICAdQTeNIaMAAIIIIAAAggggAACCESiQKPLGzplJ+b+NN/vKWgAedCgYXLy5Clpf+tNcnXLK/0+158DtbTBM/16m/rVB6xyHaPHjPPntICO0WzmZs0am3MnvjPZlCE5ciQuWV9aqqNv30Gy/XyWbiB1uu+441YpVrRosn5dP2hZFi1Poq1pE98B60utQGKuXLnMsZodn9Z2pzWW2NhYkyH88Sefp/V0c3zx4sWk79M9zXstYzJi5GsB9ZPWk9b+9oek9hNnPYBxbzVrVjebpnz0mcy3ak/Hx8ebz/o69dvv5IUXX7Gy5gu4n+b1c5vWLa3a3TGyes1a+fqbaea4Nq2v9nq8vUOD5488/KD5+JMV7NaAdIJLEF1LzWjJFl14dPv2HaLlcjKyzf0pKWDdrGkTU2c7I6/NtRBAIHwFnBrW4TtERoYAAggggAACCCCAAAIIIJAVBDQwfIe1EOBrVkBYg2dauqJUKhmiOu/3P/hYtHSANg3WfTM1KWBnNrj9oYvaTf36E7etqX/UmtgPdb/fjG2ulQnc3Aoqa3mMULQBVu3tRx59ygSkP/v8a1OfuFixoiaDeN++A06Gd44csaLZ5IEE6PNYGb5du3aRV0YmZaW7z8MuB6LZ2DV9LNqn52mwWoPWS39ebsqC3N2lo3t3Pj/rgn8acJ1pZYzPnDlb7r27s+h809o0sH7zzdfL1KnfySIrO1wDvzffdH1au/H7eC1j8ri14GNqbfCz/VPcox6PdpcHuj1m7qUuEqr3snTp0rJ7925TF1xrhmtN71mz56bWvdmvXpc2qG/KvGzatMVk3Lds2dyvc9V++fIVoiV1tOzN9zNmmVIh//33n/PQQjvS8i2Xnf8tCPeOXx011ipDkvRbEfaDDg1yL7P6dW0jRzzvPJRy3e7pvZbf2Xq+fnWHDu09HcI2BBCIUgEyrKP0xjNtBBBAAAEEEEAAAQQQQCAzBK67tq0JUmuwbOybE/waQnz8/8oqaBBRFwL0/pPoV5+eDtLgpx2wG/3am3Lw0CFPh6V7my5AOeGtMfLwQ/ebILXOSTO7NXin2eQaIK51cQ0Z9erL0jaVRfV8DUatvZVO0UUQtTVu3Mhk7vrqR/fZZUG2bNkaUFkPLbuitbi1lMXHn36R2uW87n/UyhbWes7a3hw30WQFmw9h9ocufvnG2JHWw4CkTGudt5ZUqVihgnTv1tXUDE/rkNu1SyoLouc1vuLyNGVoDxzwtAx7bqAJVCcmnjVuGnjWQHq1alVlxPBh8uQTj3gdkn4/9Xg7WG0faG+zX3We/jQ9bszr482h+psXtS6u6c9pHIMAAlEiEGP9h/GcznXdunXWP1LVomTaTBMBBBBAAAEEEEAAAQQQiAyBadNniGY3XtHoMhn+8nORMehURql1lXtYmataj1gzMi+77NJUzsi6uzVwt3fvXvn7nz1WsPq46IKQlSpVsILI5JdllbuuDyH0/pYrW0by5//f4pkajtGIjBXHdxYB9TXnlavWSK/ez5hDXnpxiDSxHjYE0nQBRg2eZ8uWXSpUKGfKtQTST3rO+fiTL2TC25OkcOHCMundN32Wr0nPddJy7q3tO5uHVBPGj5EaNS5Ky6kciwACQRagJEiQQekOAQQQQAABBBBAAAEEEEDAt0Bta7G4+7vebUo6fPzpl3LppQ38yvL13Wtk7tUM1/Lly5mfyJwBo05NQGtV16iesl61ZpxrsNrf9sGHSaVuNHtbM6wDbZrBf+GFVQM9Pd3nHT16zJSHucAqFfNUzx5hEaxO96ToAAEEgipAwDqonHSGAAIIIIAAAggggAACCCDgj8Bdne8U/aEhgIBvgTNnzlh126fL2rW/mwM7d7zDr4xs371m3t6CBQvIh5PfzrwBcGUEEAh7AQLWYX+LGCACCCCAAAIIIIAAAggggAACCESjwGOP9zb1po8fP2GmX/eS2tLaWkSRhgACCGRlAQLWWfnuMjcEEEAAAQQQQAABBBBAAAEEEIhYgd9/X2fGHhsbKy1aNJN+T/eU7NmzR+x8GDgCCCDgjwABa3+UOAYBBBBAAAEEEEAAAQQQQAABBBDIYIHRr74kWkKjYsWKovXOaQgggEA0CPCvXTTcZeaIAAIIIIAAAggggAACCCCAAAIRJ9CgQb2IGzMDRgABBNIrkC29HXA+AggggAACCCCAAAIIIIAAAggggAACCCCAAALBECBgHQxF+kAAAQQQQAABBBBAAAEEEEAAAQQQQAABBBBItwAB63QT0gECCCCAAAIIIIAAAggggAACCCCAAAIIIIBAMAQIWAdDkT4QQAABBBBAAAEEEEAAAQQQQAABBBBAAAEE0i3AoovpJqQDBBBAAAEEEEAAAQQQQCB0AjVrVJcH7r9HypYtE7qL0DMCCCAQ5QKdOt0hCQkJUuKC4lEuwfQRyHyBmHNW02GsW7dOqlWrlvkjYgQIIIAAAggggAACCCCAAAIIIIAAAggggAACUSlASZCovO1MGgEEEEAAAQQQQAABBBBAAAEEEEAAAQQQCD8BAtbhd08YEQIIIIAAAggggAACCCCAAAIIIIAAAgggEJUCBKyj8rYzaQQQQAABBBBAAAEEEEAAAQQQQAABBBBAIPwECFiH3z1hRAgggAACCCCAAAIIIIAAAggggAACCCCAQFQKELCOytvOpBFAAAEEEEAAAQQQQAABBBBAAAEEEEAAgfATIGAdfveEESGAAAIIIIAAAggggAACCCCAAAIIIIAAAlEpQMA6Km87k0YAAQQQQAABBBBAAAEEEEAAAQQQQAABBMJPgIB1+N0TRoQAAggggAACCCCAAAIIIIAAAggggAACCESlQGxUzppJI4AAAggggAACCCAQYoHTp0/LmTNnRF/Pnj1rfhITE0V/XFu2bNlEf7Jnz25+cuTIIbGxsaKvNARUYNGipfLhlE+lTp2LpcdjD4GCAAIIIBACgT59B0rckaPyzDO9pVLFCiG4Al0igIC/AgSs/ZXiOAQQQAABBBBAAAEEfAicO3dOTp06Jf/995/50UC1P80OZrsfrwHrnDlzmp9cuXJJTEyMP91xTBYUOHzkiGzctFmKFCmcBWfHlBBAAIHwENi6ZbscPHRITiacDI8BMQoEoliAgHUU33ymjgACCCCAAAIIIJB+Ac2iPnnypPlxDTprgFkDzRp01uxpzZrWTGp91c/aNFit52vWtb7qZw14a+Bb+9KfEydOmGzr3Llzi/7o+TQEEEAAAQQQQAABBLKqAP9rN6veWeaFAAIIIIAAAgggEFIBDTAnJCSYQLW+16bB5Dx58pgfDS6nlhWtx3sKQGu2tgbBtX/9sYPX+t4OXFMyJKS3l84RQAABBBBAAAEEMkmAgHUmwXNZBBBAAAEEEEAAgcgU0Gzo+Pj4ZBnVmkldqFAhE6gOxqw00G0HvrU/DVTHxcWZzOvjx4+bVw1c582b12RtB+Oa9IEAAggggAACCCCAQDgIELAOh7vAGBBAAAEEEEAAAQQiQkBLdWiJDn3VpuU+ChcuHLRAtTcEO3itgesjVj1jLRuiWdf6mi9fPlN6xNu5bEcAAQQQQAABBBBAIJIECFhH0t1irAgggAACCCCAAAKZJqCBas2s1vIfWoNaA9X58+fP0PHYgWvNstbAtQbOte61Zlpr4JqGAAIIIIAAAggggECkCxCwjvQ7yPgRQAABBBBAAAEEQiqgJUA0QKwBa20apNZgtb1wYkgv7qVzHYMGrzVorWM7evSoCVzrdl3YkYYAAggggAACCCCAQKQKELCO1DvHuBFAAAEEEEAAAQRCLqDZy8eOHTM1pLWudNGiRTM8q9rbJDVgXqxYMVMO5NChQyagrsH1AgUKZGow3dt42Y4AAggggAACCCCAgD8CBKz9UeIYBBBAAAEEEEAAgagTcA1Wx8bGSvHixcOyVrRmVefIkUMOHDhgAut6owhaR93XlQkjgAACCCCAAAJZRoDfF8wyt5KJIIAAAggggAACCARLQDOV7cxqzWQuUaJEWAar7fnmypXLjFHHqgsz6th1DjQEEEAAAQQQQAABBCJNgIB1pN0xxosAAggggAACCCAQcgGtC62BX60HrcHqnDlzhvya6b2AjlHHqmPWsescaAgggAACCCCAAAIIRJoAAetIu2OMFwEEEEAAAQQQQCCkArq4or3Aotas1uzlSGk6Vh2zNtd5RMr4GScCCCCAAAIIIIAAAgSs+Q4ggAACCCCAAAIIIHBe4NSpUxIfH28+FSxYUPLlyxdxNjpmHbs2nYvOiYYAAggggAACCCCAQKQIELCOlDvFOBFAAAEEEEAAAQRCKqA1nzUr+cyZMyarunDhwiG9Xig717FrtrXORedEPetQatM3AggggAACCCCAQDAFCFgHU5O+EEAAAQQQQAABBCJWwM5G1hrQxYoVk5iYmIidi45d56Bzcc0aj9gJMXAEEEAAAQQQQACBqBEgYB01t5qJIoAAAggggAACCHgT0EzkkydPmt2FChWSHDlyeDs0YrbrHHQu2nRup0+fjpixM1AEEEAAAQQQQACB6BUgYB29956ZI4AAAggggAACCJwXSEhIMAFdDfLa9Z+zAo7OReekwWo7IJ8V5sUcEEAAAQQQQAABBLKuQGzWnRozQwABBBBAAAEEEEAgdQHX7OoiRYqkfkIQjpg3b57ppWXLlkHozXcXOqd9+/aZgHWePHkkNpb/C+BbLHz3rt+wUZ7s2TfFAPftPyBHjx5ztpcoUUwKnV9409mYyhv3PrJnzy6VK1VI5azku8+ePSvbd+x0NgbSh57sPhbmk9IkENtg3B/3PvR+BeP+BNKH+1iCYZKZ83H/3gdjPoH0oQbuYwnk/rj3EchYgnGP0zKfo8eO6uE0BBAIA4GYc1bTcaxbt06qVasWBkNiCAgggAACCCCAAAIIZJzA8ePH5dixY2aRwlKlSoX8wnPmzJH27dub63z11VfSpk2bkF9z7969ppZ1gQIFJH/+/CG/HhcIrsC06TPk1VFjg9spvSGAAAIIeBSYMH6M1Khxkcd9bEQAgYwRIL0iY5y5CgIIIIAAAggggEAYCmjuhl0qI6NKgaxcudKR0PcZEbDWue3fv9/MNV++fBG9oKSDF0Vv6tS+WB7v8ZDXGe/ctVsOHTzk7C9XrqwUL17M+ezPG/c+tJRMrVo1/TnVOeb06TNWItSfzudA+tCT3cfCfFKaBGIbjPvj3ofer2Dcn0D6cB9LMEwycz7u3/tgzCeQPtTAfSyB3B/3PgIZSzDucSDzKVnyAj2NhgACmShAwDoT8bk0AggggAACCCCAQOYKnDp1yqldnTdv3swdTAivrnPTYMFpq5a1zjl37twhvBpdB1ugcuVKoj+R0ZJ+eyAyxurPKJlPSqVwMgnGWILRR0qlzNvCfDLPnisjgECwBFh0MViS9IMAAggggAACCCAQcQL//fefGbNmHWf1Zs/RnnNWny/zQwABBBBAAAEEEIhMAQLWkXnfGDUCCCCAAAIIIIBAEATs4G1Wzq62mew52nO2t/OKAAIIIIAAAggggEA4CRCwDqe7wVgQQAABBBBAAAEEMkxAy2PoT2xsrCmXkWEXzqQLaUkQnas970waBpdFAAEEEEAAAQQQQMCnAAFrnzzsRAABBBBAAAEEEMiqAmfOnDFTi6Z6zvZc7bln1XvLvBBAAAEEEEAAAQQiV4CAdeTeO0aOAAIIIIAAAgggkA4BzTTWlitXrnT0Elmn2nO15x5Zo2e0CCCAAAIIIIAAAtEgQMA6Gu4yc0QAAQQQQAABBBBIIXD27FmzTUtlREuz52rPPVrmzTwRQAABBBBAAAEEIkeAgHXk3CtGigACCCCAAAIIIBBEATtoq3Wdo6XZc7XnHi3zZp4IIIAAAggggAACkSNAwDpy7hUjRQABBBBAAAEEEAiiQGJiouktW7bo+Z/E9lztuQeRk64QQAABBBBAAAEEEAiKwP8D9paAHLSkDWYAAAAASUVORK5CYII=;" vertex="1" parent="1">
          <mxGeometry x="100" y="237" width="542" height="347.89" as="geometry" />
        </mxCell>
        <mxCell id="QeW_MbtNmJis6Iord1d6-3" value="User" style="rounded=0;whiteSpace=wrap;html=1;" vertex="1" parent="1">
          <mxGeometry x="120" y="70" width="120" height="60" as="geometry" />
        </mxCell>
        <mxCell id="QeW_MbtNmJis6Iord1d6-4" value="Near/Auro" style="rounded=0;whiteSpace=wrap;html=1;" vertex="1" parent="1">
          <mxGeometry x="430" y="70" width="120" height="60" as="geometry" />
        </mxCell>
      </root>
    </mxGraphModel>
  </diagram>
</mxfile>
